<svg xmlns="http://www.w3.org/2000/svg" width="224.223" height="96.956" viewBox="0 0 224.223 96.956"><g transform="translate(-32.841 -1.999)"><g transform="translate(33.999 2.999)"><path d="M69.078,40.76c22.511-2.586,22.433-18.738,49.582-30.378C144.7-.783,187.373-4.205,208.382,12.616c13.469,10.771,20.187,31.583,8.9,45.191-18.908,22.763-67.845.837-146.811,25.658C51.728,89.323,25.38,99.742,20.052,94.629S34.789,74,27.46,66.175c-5.138-5.5-17.907-.979-23.723-6.695C-2.67,53.162,2.624,37.571,14.858,32.7,30.752,26.365,44.8,43.555,69.078,40.76Z" transform="translate(-0.999 -0.999)" fill="none" stroke="#dda15e" stroke-miterlimit="10" stroke-width="2"/><text transform="translate(80.805 69.513) rotate(-12.095)" fill="#dda15e" font-size="36" font-family="OCRAExtended, OCR A"><tspan x="0" y="0">Draw</tspan></text></g></g></svg>