<svg xmlns="http://www.w3.org/2000/svg" xmlns:xlink="http://www.w3.org/1999/xlink" width="1308.44" height="691.452" viewBox="0 0 1308.44 691.452"><defs><linearGradient id="a" x1="0.5" y1="0.067" x2="0.5" y2="1" gradientUnits="objectBoundingBox"><stop offset="0" stop-color="#fff" stop-opacity="0.29"/><stop offset="1" stop-color="#00ffdc" stop-opacity="0.18"/></linearGradient><linearGradient id="b" x1="0.742" y1="0.781" x2="0.324" y2="0.233" gradientUnits="objectBoundingBox"><stop offset="0" stop-color="#a123db"/><stop offset="0.31" stop-color="#9e22dc"/><stop offset="0.53" stop-color="#9520de"/><stop offset="0.71" stop-color="#861ce3"/><stop offset="0.79" stop-color="#7d1ae5"/></linearGradient><linearGradient id="c" y1="0.5" x2="1.002" y2="0.5" gradientUnits="objectBoundingBox"><stop offset="0" stop-color="#ffe000"/><stop offset="0.12" stop-color="#ffc903"/><stop offset="0.38" stop-color="#ff8f09"/><stop offset="0.45" stop-color="#ff7f0b"/><stop offset="0.76" stop-color="#ff9e1d"/><stop offset="1" stop-color="#ffb127"/></linearGradient><linearGradient id="d" x1="0.716" y1="0.089" x2="0.224" y2="0.935" gradientUnits="objectBoundingBox"><stop offset="0.01" stop-color="#06dffc"/><stop offset="0.3" stop-color="#15a2ec"/><stop offset="0.74" stop-color="#2d40d3"/></linearGradient><linearGradient id="e" x1="-0.082" y1="0.577" x2="1.883" y2="0.577" xlink:href="#c"/><linearGradient id="f" x1="0.381" y1="0.197" x2="0.86" y2="0.197" xlink:href="#c"/><linearGradient id="g" x1="-1.156" y1="-3.751" x2="-1.589" y2="-6.398" xlink:href="#b"/><linearGradient id="h" x1="-0.824" y1="-0.337" x2="-1.153" y2="-0.967" gradientUnits="objectBoundingBox"><stop offset="0" stop-color="#06dffc"/><stop offset="0.19" stop-color="#08dcfc" stop-opacity="0.988"/><stop offset="0.32" stop-color="#0dd4fb" stop-opacity="0.969"/><stop offset="0.44" stop-color="#15c5f9" stop-opacity="0.929"/><stop offset="0.54" stop-color="#22b1f7" stop-opacity="0.878"/><stop offset="0.64" stop-color="#3297f4" stop-opacity="0.812"/><stop offset="0.73" stop-color="#4576f0" stop-opacity="0.722"/><stop offset="0.82" stop-color="#5c50eb" stop-opacity="0.62"/><stop offset="0.9" stop-color="#7725e6" stop-opacity="0.502"/><stop offset="0.92" stop-color="#7d1ae5" stop-opacity="0.471"/></linearGradient><linearGradient id="i" x1="0.646" y1="1.017" x2="0.393" y2="-0.561" xlink:href="#h"/><linearGradient id="j" x1="0.5" x2="0.5" y2="1" gradientUnits="objectBoundingBox"><stop offset="0" stop-color="#82d7f8"/><stop offset="1" stop-color="#1485b1"/></linearGradient></defs><g transform="translate(-736 -343)"><g transform="translate(736 343)" fill="url(#a)"><path d="M 1279.18603515625 690.9519653320313 L 29.25374221801758 690.9519653320313 C 25.37174224853516 690.9519653320313 21.60624313354492 690.1917724609375 18.06174278259277 688.692626953125 C 14.63774299621582 687.2442626953125 11.56274318695068 685.1709594726563 8.921909332275391 682.5300903320313 C 6.280909538269043 679.8892822265625 4.207743167877197 676.8142700195313 2.759409666061401 673.3902587890625 C 1.260243058204651 669.8456420898438 0.5000763535499573 666.0801391601563 0.5000763535499573 662.1981201171875 L 0.5000763535499573 29.25378608703613 C 0.5000763535499573 25.37178611755371 1.260243058204651 21.60628509521484 2.759409666061401 18.06161880493164 C 4.207743167877197 14.63761901855469 6.280909538269043 11.56261920928955 8.921909332275391 8.921785354614258 C 11.56274318695068 6.280951976776123 14.63774299621582 4.207618713378906 18.06174278259277 2.759285449981689 C 21.60624313354492 1.260118842124939 25.37174224853516 0.4999521374702454 29.25374221801758 0.4999521374702454 L 1279.18603515625 0.4999521374702454 C 1283.068115234375 0.4999521374702454 1286.833618164063 1.260118842124939 1290.378295898438 2.759285449981689 C 1293.80224609375 4.207618713378906 1296.877197265625 6.280951976776123 1299.51806640625 8.921785354614258 C 1302.158935546875 11.56261920928955 1304.232299804688 14.63761901855469 1305.680541992188 18.06161880493164 C 1307.1796875 21.60628509521484 1307.93994140625 25.37178611755371 1307.93994140625 29.25378608703613 L 1307.93994140625 662.1981201171875 C 1307.93994140625 666.0801391601563 1307.1796875 669.8456420898438 1305.680541992188 673.3902587890625 C 1304.232299804688 676.8142700195313 1302.158935546875 679.8892822265625 1299.51806640625 682.5300903320313 C 1296.877197265625 685.1709594726563 1293.80224609375 687.2442626953125 1290.378295898438 688.692626953125 C 1286.833618164063 690.1917724609375 1283.068115234375 690.9519653320313 1279.18603515625 690.9519653320313 Z" stroke="none"/><path d="M 29.2537841796875 0.99993896484375 C 25.4390869140625 0.99993896484375 21.7388916015625 1.74676513671875 18.2564697265625 3.21978759765625 C 14.89208984375 4.64276123046875 11.870361328125 6.68011474609375 9.2752685546875 9.2752685546875 C 6.6800537109375 11.87042236328125 4.6427001953125 14.89208984375 3.2197265625 18.2564697265625 C 1.7467041015625 21.73895263671875 0.9998779296875 25.43914794921875 0.9998779296875 29.2537841796875 L 0.9998779296875 662.1981201171875 C 0.9998779296875 666.0127563476563 1.7467041015625 669.7129516601563 3.2197265625 673.1954345703125 C 4.6427001953125 676.559814453125 6.6800537109375 679.5814819335938 9.2752685546875 682.1766357421875 C 11.870361328125 684.7717895507813 14.89208984375 686.8091430664063 18.2564697265625 688.2321166992188 C 21.7388916015625 689.7051391601563 25.4390869140625 690.4519653320313 29.2537841796875 690.4519653320313 L 1279.18603515625 690.4519653320313 C 1283.000732421875 690.4519653320313 1286.70068359375 689.7051391601563 1290.183349609375 688.2321166992188 C 1293.547729492188 686.8091430664063 1296.569458007813 684.7717895507813 1299.164428710938 682.1766357421875 C 1301.759521484375 679.5814819335938 1303.796875 676.559814453125 1305.219970703125 673.1954345703125 C 1306.69287109375 669.7129516601563 1307.439697265625 666.0127563476563 1307.439697265625 662.1981201171875 L 1307.439697265625 29.2537841796875 C 1307.439697265625 25.43914794921875 1306.69287109375 21.73895263671875 1305.219970703125 18.2564697265625 C 1303.796875 14.89208984375 1301.759521484375 11.87042236328125 1299.164428710938 9.2752685546875 C 1296.569458007813 6.68011474609375 1293.547729492188 4.64276123046875 1290.183349609375 3.21978759765625 C 1286.70068359375 1.74676513671875 1283.000732421875 0.99993896484375 1279.18603515625 0.99993896484375 L 29.2537841796875 0.99993896484375 M 29.2537841796875 -6.103515625e-05 L 1279.18603515625 -6.103515625e-05 C 1295.342529296875 -6.103515625e-05 1308.439697265625 13.0972900390625 1308.439697265625 29.2537841796875 L 1308.439697265625 662.1981201171875 C 1308.439697265625 678.3546142578125 1295.342529296875 691.4519653320313 1279.18603515625 691.4519653320313 L 29.2537841796875 691.4519653320313 C 13.0972900390625 691.4519653320313 -0.0001220703125 678.3546142578125 -0.0001220703125 662.1981201171875 L -0.0001220703125 29.2537841796875 C -0.0001220703125 13.0972900390625 13.0972900390625 -6.103515625e-05 29.2537841796875 -6.103515625e-05 Z" stroke="none" fill="#707070"/></g><g transform="translate(1457.006 515.863)"><g transform="translate(0 0)"><path d="M84.45,85.466c-.559-6.851.354-15.005,6.7-20.479s12.716-3.891,15.843-9.662c3.947-7.317-4.654-13.032-2.364-23.383,2.215-9.96,11.561-10.537,8.955-16.755-2.83-6.758-15.992-11.17-18.822-12.231C91.04,1.577,81.21-1.867,75.346,1.317,70.077,4.2,72.739,9.024,68.4,13.027S58.311,14.888,46.4,16.21c-7.559.838-19.008,2.1-25,7.987-2.29,2.234-3.835,5.176-2.662,27.274S21.71,76.4,20.276,86.844c-1.043,7.447-1.862,13.293-5.585,19.939C10.334,114.528,6.183,116,6.332,122.31c.186,7.2,5.92,17.109,12.753,19.455C24,143.44,30.59,138.376,43.6,128.193c8.9-6.981,13.349-10.481,15.713-13.162,5.008-5.715,6.572-9.625,13.4-12.138,4.1-1.508,6.348-1.154,8.843-3.109C85.958,96.357,85.529,90.214,84.45,85.466Z" transform="translate(3.606 -0.006)" fill="url(#b)"/><path d="M107.826,108.456c3.91,5.008,7.8,11.915,7.447,20.107s-4.412,10.761-2.942,17.165c1.862,8.08,9.309,7.335,13.646,16.755,4.17,9.085-.279,15.229,4.356,18.505,5.045,3.556,14.149-.949,16.085-1.862,2.588-1.285,9.439-4.561,10.723-10.63,1.136-5.436-2.811-7.447-2.737-13.367s4.189-7.447,9.551-15.787c3.426-5.269,8.564-13.2,8.489-21.447,0-3.109-.8-6.348-13.144-22.862s-14.615-17.612-19.436-26.567a67.823,67.823,0,0,1-7.838-18.952c-1.862-8.694-.577-12.362-4-17.184-3.928-5.492-12.12-9.737-16.755-7.447-3.388,1.676-4.059,9.644-5.269,25.468A180.588,180.588,0,0,0,105,70.16c.484,7.447,1.862,11.487-.372,17.612-1.285,3.723-2.625,4.747-2.867,7.782C101.328,100.9,104.81,105.421,107.826,108.456Z" transform="translate(85.808 20.885)" fill="url(#c)"/><path d="M84.205,158.447c-9.7-6.646-12.436-12.753-13.032-17.221-.54-4.021.67-6.535,0-15.359-.2-2.774-.2-.968-1.4-10.239-.949-7.447-1.3-11.412-4.319-14.894a12.381,12.381,0,0,0-1.359-1.4,5.362,5.362,0,0,0-.614-.391c-15.3-8.21-23.16-6.013-23.16-6.013-6.237,1.75-4.431,6.088-15.061,13.032-6.293,4.152-8.75,3.817-9.942,6.833-2.271,5.715,5.418,10.035,4.04,17.984-.912,5.25-4.543,4.859-7.2,11.45-2.439,5.976-2.9,14.894,1.3,20.833s8.843,3.407,15.825,9.923c2.29,2.141,2.588,3.128,9.309,15.676,8.918,16.607,9.662,17.2,11.17,21.875,3.016,9.309,4.524,13.944,2.793,19.083-.931,2.774-2.942,6.218-2.327,11.17a40.063,40.063,0,0,0,1.4,5.12,35.54,35.54,0,0,1,.465,12.1c-.13,7.559,6.423,15.806,12.567,19.083,10.835,5.753,24.2-1.862,32.1-6.442,5.585-3.184,19.418-11.431,26.064-28.931.447-1.192,10.556-28.652-2.327-42.82-6.2-6.832-12.827-5.157-21.875-15.825a95.413,95.413,0,0,1-8.843-13.032,97.519,97.519,0,0,1-5.567-11.6Z" transform="translate(7.034 79.841)" fill="url(#d)"/><g transform="translate(0 4.547)"><path d="M12.661,166.636A50.769,50.769,0,0,1,4.73,154.275c-1.34-2.942-6.274-13.74-2.085-22.583,2.085-4.133,4.636-4.971,5.473-9.737.726-3.965-.819-5.064-.931-9.309-.149-6.851,3.723-9.309,6.4-17.221,2.532-7.447-.968-10.444,1.862-15.713a17.761,17.761,0,0,1,7.559-7.093l13.851.354c.428-3.556,1.154-8.676,2.439-14.782,2.253-10.575,3.723-17.724,8.378-25.822,2.923-5.12,7.8-13.4,16.532-16.178a30.924,30.924,0,0,1,4.878-1.043c9.2-1.415,12.083,1.154,17-.354s4.152-4.971,9.867-8.62a25.6,25.6,0,0,1,20.479-2.7c10.333,3.221,11.17,13.032,21.075,13.87a30.551,30.551,0,0,0,8.843-1.043c7.037-1.4,9.309-3.2,13.274-4.3,9.029-2.457,17.519,1.21,24.668,4.3a56.764,56.764,0,0,1,15.471,10.016c4.245,3.835,10.388,9.309,13.274,18.263,1.508,4.654.354,4.747,1.862,17.221,1.173,9.737,1.862,14.614,3.723,18.617A33.66,33.66,0,0,0,232.456,95.2c4.84,2.551,6.33,1.508,9.9,4.3,5.362,4.17,6.981,10.37,7.912,13.963,1.1,4.226,3.351,13.032-1.061,19.306-2.1,3.053-4.431,3.723-4.766,6.516-.372,3.277,2.42,4.077,3.965,9.085.242.782,2.42,8.21-1.173,12.92-1.471,1.862-2.755,1.862-3.835,4.059a11.319,11.319,0,0,0-.354,7.223c.428,2.755,1.638,10.388-.689,15.117-2.755,5.585-8.378,2.942-14.093,9.774-3.854,4.636-2.067,6.8-6.739,11.524a39.8,39.8,0,0,1-9.085,6.516c-3.128,1.731-3.984,1.694-5.7,2.681-2.848,1.657-6.348,5.12-8.489,13.255l1.62,74.357a104.964,104.964,0,0,1-14.428,15.136,115.426,115.426,0,0,1-29.192,17.8,131.6,131.6,0,0,1-31.072,8.6c-12.213,1.862-19.883,1.322-35.149.242-6.926-.5-12.734-1.229-17.091-5.7a19.139,19.139,0,0,1-4.915-10.128q-.372-32.264-.8-64.471A104.911,104.911,0,0,0,64.9,251.233,116.785,116.785,0,0,0,58.72,231.8,134.047,134.047,0,0,0,47.2,209.344c-6.088-9.532-9.048-11.431-11.747-12.343-4.543-1.508-6.237.521-10.239-1.4a17.984,17.984,0,0,1-9.085-13.963c-.41-4.636,1.434-7.782-.931-11.971a14.075,14.075,0,0,0-2.532-3.035Z" transform="translate(-0.992 -2.448)" fill="none" stroke="#000" stroke-miterlimit="10" stroke-width="2"/><path d="M64.346,50.14a11.878,11.878,0,0,1-5.585,6.516c-1.862.949-4.729,1.1-10.239,1.4-3.612.2-4.04,0-5.12.465-3.277,1.229-4.524,4.468-6.051,7.447-1.955,3.723-6.2,12.1-11.561,14.354-2.681,1.117-7.019,1.34-14.279-3.109" transform="translate(8.071 38.649)" fill="none" stroke="#000" stroke-linecap="round" stroke-linejoin="round" stroke-width="2"/><path d="M19.51,62.34c2.513-8.154,5.753-10.724,8.378-11.468a44.681,44.681,0,0,1,9.16.3c5.753.428,7.056.763,8.992-.149,2.886-1.359,2.7-3.351,5.12-3.872s3.388,1.378,7.447,2.16a12.362,12.362,0,0,0,7.763-.614c4.487-2.234,5.436-7.894,5.585-8.843" transform="translate(14.965 29.782)" fill="none" stroke="#000" stroke-miterlimit="10" stroke-width="1"/><path d="M29,37.412a8.545,8.545,0,0,1,5.287-1.4c3.835.372,4.543,3.723,8.843,4.8a10.575,10.575,0,0,0,8.676-1.545c1.564-1.229,1.508-2.215,4.356-5.12a14.894,14.894,0,0,1,3.258-2.96c3.016-1.471,5.38.354,13.032.465H74" transform="translate(23.143 21.831)" fill="none" stroke="#000" stroke-miterlimit="10" stroke-width="1"/><path d="M49.6,50.458a35.5,35.5,0,0,0,15.638.13,7.447,7.447,0,0,0,4.356-2.495c.987-1.34.707-2.327,1.694-5.585.819-2.644,1.21-3.965,2.029-4.654,1.973-1.694,4.468,0,9.141-.149a21.316,21.316,0,0,0,9.625-2.793,25.1,25.1,0,0,0,8.713-8.527,33.92,33.92,0,0,0,4.487-9.476" transform="translate(40.894 10.014)" fill="none" stroke="#000" stroke-miterlimit="10" stroke-width="1.5"/><path d="M29.26,27.858a8.75,8.75,0,0,0,6.051,4.8,8.415,8.415,0,0,0,6.218-1.694c2.011-1.545,1.657-2.774,3.09-3.891,2.923-2.29,7.168.614,12.418.931,3.035.186,7.559-.41,13.349-4.487" transform="translate(23.367 15.71)" fill="none" stroke="#000" stroke-miterlimit="10" stroke-width="1"/><path d="M35.26,29.92c8.489,2.327,13.628.949,16.755-.782,4.971-2.755,4.45-6.106,11.17-11.021A33.194,33.194,0,0,1,77.6,12.066a30.7,30.7,0,0,1,11.021.465" transform="translate(28.537 5.586)" fill="none" stroke="#000" stroke-miterlimit="10" stroke-width="1"/><path d="M86.1,17.35a50.788,50.788,0,0,0,8.992,22.192,25.543,25.543,0,0,0,8.843,8.061,22.9,22.9,0,0,0,9.625,2.476" transform="translate(72.347 10.393)" fill="none" stroke="#000" stroke-miterlimit="10" stroke-width="1"/><path d="M93.26,17.27a39.785,39.785,0,0,0,7.763,17.053c2.662,3.351,5.957,7.447,11.319,8.229a14.019,14.019,0,0,0,4.971-.149" transform="translate(78.517 10.324)" fill="none" stroke="#000" stroke-miterlimit="10" stroke-width="1"/><path d="M100.93,37.6a21.522,21.522,0,0,1,10.7,5.12c3.184,2.923,3.872,5.585,8.061,11.487a80.835,80.835,0,0,0,6.051,7.447" transform="translate(85.126 27.843)" fill="none" stroke="#000" stroke-miterlimit="10" stroke-width="1"/><path d="M102.85,42.85a21.577,21.577,0,0,1,8.843,7.726c1.862,2.96,1.545,4.375,3.872,7.447a17.649,17.649,0,0,0,7.6,6.051,14.112,14.112,0,0,0,9.011.763,12.79,12.79,0,0,0,4.338-2.16" transform="translate(86.781 32.367)" fill="none" stroke="#000" stroke-miterlimit="10" stroke-width="1"/><path d="M111.85,59.388c9.309-2.942,13.479-1.564,15.508.316,1.657,1.508,1.862,3.277,4.189,5.883a19.287,19.287,0,0,0,7.912,5.12" transform="translate(94.536 45.15)" fill="none" stroke="#000" stroke-miterlimit="10" stroke-width="1"/><path d="M113.6,61.68a32.45,32.45,0,0,0,12.865,12.567c3.481,1.862,8.583,4.487,14.6,2.96a16.96,16.96,0,0,0,7.912-4.822" transform="translate(96.044 48.593)" fill="none" stroke="#000" stroke-miterlimit="10" stroke-width="1"/><path d="M112.76,68.94a8.88,8.88,0,0,1,7.149.931c1.992,1.4,1.75,3,4.487,6.814a14.6,14.6,0,0,0,4.971,5.12,12.287,12.287,0,0,0,9.625.316,13.125,13.125,0,0,0,5.864-4.505" transform="translate(95.32 54.533)" fill="none" stroke="#000" stroke-miterlimit="10" stroke-width="1"/><path d="M120.1,80a33.791,33.791,0,0,1,3.872,7.912c1.1,3.3,1.192,5.287,2.942,6.814a8.173,8.173,0,0,0,5.9,1.564" transform="translate(101.645 64.38)" fill="none" stroke="#000" stroke-miterlimit="10" stroke-width="1"/><path d="M118.81,87.35a12.529,12.529,0,0,0,4.04,12.1,11.636,11.636,0,0,0,6.981,2.476" transform="translate(100.292 70.713)" fill="none" stroke="#000" stroke-miterlimit="10" stroke-width="1"/><path d="M117.44,94.68a10.333,10.333,0,0,0,3.258,8.229,10.5,10.5,0,0,0,9.16,2.178" transform="translate(99.334 77.03)" fill="none" stroke="#000" stroke-miterlimit="10" stroke-width="1"/><path d="M116.446,101a5.157,5.157,0,0,0,2.327,5.883,5.064,5.064,0,0,0,4.338,0" transform="translate(98.318 82.476)" fill="none" stroke="#000" stroke-miterlimit="10" stroke-width="1"/><path d="M37.89,74.017A42.317,42.317,0,0,1,60.231,60.743a35.913,35.913,0,0,1,23.737,1.6A34.5,34.5,0,0,1,99.792,77.462q-1.173,25.617-2.327,51.2a9.923,9.923,0,0,0,19.548-.465L117.7,87.7c.2-1.694,1.862-13.982,11.878-19.306a20.609,20.609,0,0,1,9.532-2.327c10.742-.242,18.617,7.2,22.806,11.17a49.336,49.336,0,0,1,7.223,8.6" transform="translate(30.804 46.662)" fill="none" stroke="#000" stroke-miterlimit="10" stroke-width="1"/><path d="M40.14,77.373A26.064,26.064,0,0,1,51.05,67.1c12.678-6.125,25.748,1.434,27.7,2.551a34.144,34.144,0,0,1,10,8.843" transform="translate(32.742 51.219)" fill="none" stroke="#000" stroke-miterlimit="10" stroke-width="1"/><path d="M43.146,74.927c.391-3.537,10.016-5.362,14.428-5.827C68.6,67.945,81.777,71.613,82,75.969c.261,3.574-8.061,7.447-15.117,8.322C55.192,85.687,42.662,79.134,43.146,74.927Z" transform="translate(35.321 54.801)" fill="none" stroke="#000" stroke-miterlimit="10" stroke-width="0.95"/><path d="M50.64,86.225a31.035,31.035,0,0,0,16.755-3.5,30.439,30.439,0,0,0,8.843-7.2" transform="translate(41.79 60.519)" fill="none" stroke="#000" stroke-miterlimit="10" stroke-width="0.95"/><path d="M85.39,77.52a23.644,23.644,0,0,0,22.341,13.5" transform="translate(71.735 62.242)" fill="none" stroke="#000" stroke-miterlimit="10" stroke-width="0.95"/><path d="M85.39,72.25c2.588-1.508,9.737-5.194,16.755-2.551a19.939,19.939,0,0,1,5.809,3.723,51.737,51.737,0,0,1,10.947,12.1" transform="translate(71.735 54.703)" fill="none" stroke="#000" stroke-miterlimit="10" stroke-width="1"/><path d="M85.9,77.711c.559-3.575,10.872-6.665,18.617-3.258,5.083,2.215,9.793,7.447,8.6,10.463-1.322,3.239-9.7,2.9-15.117,1.4S85.381,80.913,85.9,77.711Z" transform="translate(72.154 58.328)" fill="none" stroke="#000" stroke-miterlimit="10" stroke-width="0.95"/><path d="M70.138,94.27c-6.8,1.173-11.6,6.2-11.878,11.636a12.176,12.176,0,0,0,3.5,8.6" transform="translate(48.357 76.676)" fill="none" stroke="#000" stroke-miterlimit="10" stroke-width="0.95"/><path d="M63.931,103.947a4.84,4.84,0,0,1,3.723-4.878,3.965,3.965,0,0,1,3.556,1.545,4.543,4.543,0,0,1-.3,5.585,3.723,3.723,0,0,1-6.684-.931A4.673,4.673,0,0,1,63.931,103.947Z" transform="translate(53.241 80.795)" fill="none" stroke="#000" stroke-miterlimit="10" stroke-width="0.95"/><path d="M78.071,105.288a4.952,4.952,0,0,1,2.178-3.351,4.8,4.8,0,0,1,2.867-1.005,3.574,3.574,0,0,1,2.718,1.1c1.136,1.545-.112,4.561-2.085,5.957-.13,0-2.737,1.862-4.505.633A3.723,3.723,0,0,1,78.071,105.288Z" transform="translate(65.389 82.414)" fill="none" stroke="#000" stroke-miterlimit="10" stroke-width="0.95"/><path d="M84.19,98.59a10.407,10.407,0,0,1,3.035,10.072,11.04,11.04,0,0,1-6.665,7.223" transform="translate(67.573 80.399)" fill="none" stroke="#000" stroke-linecap="round" stroke-miterlimit="10" stroke-width="0.95"/><path d="M70.3,107.088a18.617,18.617,0,0,0,.242,8.08,4.747,4.747,0,0,0,1.676,3,4.319,4.319,0,0,0,4.059.3c2.383-1.173,3.035-6.162,1.4-12.343" transform="translate(58.449 86.888)" fill="none" stroke="#000" stroke-linecap="round" stroke-miterlimit="10" stroke-width="0.95"/><path d="M54.51,118.847a12.492,12.492,0,0,0,7.223.465c4.692-1.21,5.306-4.878,10.109-6.051a16.941,16.941,0,0,1,8.62.707c4.263,1.136,4.934,2.625,7.912,2.551,3.612,0,4.1-2.271,6.87-1.973s2.383,2.271,8.024,6.628a27.013,27.013,0,0,0,9.067,4.859c.782.223,1.415.372,1.862.465" transform="translate(45.125 92.815)" fill="none" stroke="#000" stroke-linecap="round" stroke-miterlimit="10" stroke-width="0.95"/><path d="M54.43,119.067a28.932,28.932,0,0,0,8.061,1.4A12.7,12.7,0,0,0,66.885,120c2.2-.726,2.29-1.638,4.059-2.215a9.42,9.42,0,0,1,6.944,1.005c2.867,1.582,2.476,3.277,4.9,4a7.447,7.447,0,0,0,5.976-.968c1.154-.782,1.192-1.415,2.439-2.029a6.944,6.944,0,0,1,4.152-.465c2.364.428,2.848,1.694,7.8,5.25a10.407,10.407,0,0,0,4.468,2.4,9.309,9.309,0,0,0,4.505-.5,10.872,10.872,0,0,0,3.835-2.29" transform="translate(45.056 96.709)" fill="none" stroke="#000" stroke-linecap="round" stroke-miterlimit="10" stroke-width="0.95"/><path d="M104.6,125.271a13.776,13.776,0,0,1-.372,3.984,11.6,11.6,0,0,1-2.718,5.585,9.569,9.569,0,0,1-10.165,1.545,29.955,29.955,0,0,1-6.8-5.418,7.149,7.149,0,0,0-3.481-2.1,6.572,6.572,0,0,0-3.723.41c-2.178.763-2.476,1.862-4.822,2.96a9.309,9.309,0,0,1-3.593,1.1c-4.431.223-7.763-4.692-8.266-5.455a15.6,15.6,0,0,1-2.569-8.247" transform="translate(48.21 98.529)" fill="none" stroke="#000" stroke-linecap="round" stroke-miterlimit="10" stroke-width="0.97"/><path d="M26.14,116.218a258.388,258.388,0,0,0,9.532,33.753c5.473,15.285,8.341,23.085,14.67,30.718,9.942,11.971,21.931,17.035,31.184,20.944,12.79,5.38,23.7,9.979,36.992,7.447,12.436-2.383,20.218-9.737,32.822-21.652A109.655,109.655,0,0,0,173.9,159.5c6.963-12.641,9.16-23.644,13.274-45.147A373.444,373.444,0,0,0,192.522,75" transform="translate(20.678 60.071)" fill="none" stroke="#000" stroke-linecap="round" stroke-miterlimit="10" stroke-width="1"/><path d="M14.689,129.457c-1.862-5.008-3.239-10.37-1.4-11.636,2.309-1.6,6.944,5.1,13.255,4.654,6.926-.521,12.809-9.309,15.136-16.755,4.114-13.032-2.96-21.633,3.016-30.03a17.761,17.761,0,0,1,8.154-6.051" transform="translate(8.857 55.452)" fill="none" stroke="#000" stroke-linecap="round" stroke-miterlimit="10" stroke-width="1"/><path d="M4.89,90.417c1.34-3.965,3.835-9.2,8.378-10.481s6.777,2.29,13.255,3.258c10.556,1.638,19.529-5.4,21.391-6.944A31.5,31.5,0,0,0,58.4,59.27" transform="translate(2.367 46.516)" fill="none" stroke="#000" stroke-linecap="round" stroke-miterlimit="10" stroke-width="1"/></g></g></g><g transform="translate(1778.033 708.672)"><g transform="translate(0 0)"><path d="M42.578,46.243c1.476,7.381-5.048,9.787-3.735,16.695.177.886.753,3.247,1.21,6.908a27.6,27.6,0,0,0,.31,2.76c.679,2.465,2.436,4.428,3.174,6.893a20.031,20.031,0,0,1,.1,10.008C43.213,91.693,42.77,94.2,45,95.59c1.845,1.122,4.31.694,6.244.133a9.034,9.034,0,0,0,5.58-3.735c1.845-3.1.266-6.465.959-9.772.841-3.941,4.428-6.185,6.982-9.019,1.889-2.14,2.952-5.58,5.476-7,1.476-.827,4.945-.369,4.591-2.849-.3-2.126-2.1-4.236-3.144-6.037a31.5,31.5,0,0,1-4.31-11.233,34.688,34.688,0,0,1,0-5.255v-10.5c0-1.476-.148-3.041,0-4.517.458-4.665,4.03-8.133,7.1-11.292,1.048-1.063,2.524-2.48,2.229-4.133-.339-2.067-2.716-3.144-4.325-3.779a41.922,41.922,0,0,0-17.02-2.273C45.634,4.986,33.692,9.8,34,14.359c.1,1.476,1.55,2.332,2.731,2.952a28.43,28.43,0,0,1,4.9,2.952c3.779,3.247,3.484,8.443,1.993,12.768-.738,2.17-2.214,4.045-2.509,6.362S42.091,43.882,42.578,46.243Z" transform="translate(15.446 1.257)" fill="url(#e)"/><path d="M66.3,88.338c9.2-1.476,12.281,5.122,20.9,3.867,1.122-.177,4.074-.723,8.635-1.166a20.665,20.665,0,0,0,6.938-1.476,26.392,26.392,0,0,1,8.089-2.362,34.673,34.673,0,0,1,9.565.472c1.978.34,4.163.8,6.052-.118,3.69-1.8,1.978-6.451,1.609-7.381a9.9,9.9,0,0,0-2.746-4.414c-1.343-1.2-1.978-.694-3.4-1.86a12.045,12.045,0,0,1-2.244-3.115,15.883,15.883,0,0,0-2.952-4.266c-2.067-1.476-4.148-.192-8.251-.487a55.917,55.917,0,0,1-6.023-1.476A56.846,56.846,0,0,0,91.572,62,79.254,79.254,0,0,0,77,63.125c-2.6.325-5.211.738-7.823.93a87.358,87.358,0,0,1-13.285-.4c-3.321-.251-6.628-.28-9.949-.28-1.816,0-3.69.148-5.491,0h-.325c-3.616-.546-7.248-1.166-10.894-1.476a11.16,11.16,0,0,0-6.495.974,18.274,18.274,0,0,0-6.628,6.716,20,20,0,0,0-3.38,7.543c-.384,2.539.856,4.163,3.38,4.163A37.463,37.463,0,0,1,26.3,81.99a57.836,57.836,0,0,1,8.281,3.735,18.23,18.23,0,0,0,9.285,1c4-.384,7.218.974,10.894,2.332a12.252,12.252,0,0,0,5.9.709C62.581,89.459,64.411,88.677,66.3,88.338Z" transform="translate(5.289 28.659)" fill="url(#f)"/><path d="M63.674,144.666a20.9,20.9,0,0,1,14.628-.517,11.19,11.19,0,0,0,5.535.959,11.337,11.337,0,0,0,4.31-1.86,14.273,14.273,0,0,1,5.8-2.022,37.994,37.994,0,0,1,6.214.221c3.838.177,4.428-3.233,3.218-6.244a6.82,6.82,0,0,0-3.484-4.03c-2.45-1.063-4.842.118-7.381,0a9.122,9.122,0,0,1-5.24-2.613,35.278,35.278,0,0,0-6.421-4A13.979,13.979,0,0,0,72,122.981a97.665,97.665,0,0,0-13.625,4.428c-3.188,1.166-6.347,2.539-9.624,3.454a52.638,52.638,0,0,1-15.735,2.185,16.636,16.636,0,0,0-6.155.5c-1.8.635-5.432,2.45-5.329,4.827,0,1.166,1.373,1.476,2.3,1.816a48.107,48.107,0,0,0,6.48,1.358,129.45,129.45,0,0,0,16.149,2.214,19.677,19.677,0,0,1,8,1.712C57.489,146.791,60.751,146.083,63.674,144.666Z" transform="translate(9.51 57.724)" fill="url(#g)"/><path d="M91.868,126.735c-1.476-4.532-2.509-11.159,2.465-13.964,4.148-2.318,9.89-.34,13.418-4,1.771-1.86,1.343-5.417,1.21-7.705-.192-3.735-.723-7.469-1.225-11.174a67.191,67.191,0,0,0-1.476-8.739,8.739,8.739,0,0,0-2.185-4.355c-1.757-1.579-4.428-1.476-6.613-1.078C91.971,76.828,86.081,80.43,80.649,77.2c-2.613-1.579-3.676-4.694-6.259-6.244-3.69-2.214-8.074-.827-11.72.664a19.1,19.1,0,0,0-9.61,8.4,23.617,23.617,0,0,1-1.889,4.177,7.292,7.292,0,0,1-3.38,2.273c-3.528,1.24-7.6.871-11.263.517-5.624-.561-11.218-1.476-16.8-2.48a57.805,57.805,0,0,0-9.462-1.122c-2.258,0-4.871.251-6.51,1.993a2.952,2.952,0,0,0-.664.9,5.462,5.462,0,0,0,.354,3.853,57.834,57.834,0,0,0,4.768,9.314c4.31,7.381,9.285,14.259,13.816,21.477a32.032,32.032,0,0,1,3.454,7.248c1.653,5.137,2.952,9.108,1.476,13.684a22.91,22.91,0,0,1-2.76,5.211,4.8,4.8,0,0,0-.841,4.251c1.166,3.484,4.871,6.3,7.735,8.34a36.756,36.756,0,0,0,12.016,5.9,13.2,13.2,0,0,0,8.857-.886c4.65-2.1,8.857-5.373,12.886-8.325,6.731-4.842,10.1-7.277,11.573-9.122a51.47,51.47,0,0,1,4.236-5.668,15.558,15.558,0,0,1,8-3.454c2.317-.443,5.9-.605,6.761-3.306S93.595,128.684,91.868,126.735Z" transform="translate(0.638 32.478)" fill="url(#h)"/><path d="M35.17,27.14l.605.192A68.241,68.241,0,0,0,53.784,30,85.305,85.305,0,0,0,72.53,27.775c.694-.133,2.17-.62,2.6.236.649,1.329-1.875,3.587-2.627,4.281A22.142,22.142,0,0,1,53.887,37.93a27.854,27.854,0,0,1-9.8-3.72,13.654,13.654,0,0,1-4.9-4.015,6.185,6.185,0,0,0-1.314-1.579A7.056,7.056,0,0,0,35.17,27.14Z" transform="translate(16.005 12.168)" opacity="0.95" fill="url(#i)"/><path d="M46.6,20.423c2.952,18.437,4.842,27.677,3.838,33.109a56.476,56.476,0,0,1-5.447,15.735A62.336,62.336,0,0,1,32.544,84.147c-4.886,4.3-9.9,8.488-14.761,12.9a27.352,27.352,0,0,0-8.458,12.547,28.814,28.814,0,0,0-.871,7.115c-.1,3.616-.133,7.218-.192,10.835-.162,9.152-.768,18.629.517,27.736,1.476,10.923,6.406,21.522,12.267,30.762A111.816,111.816,0,0,0,46.4,214.532a9.3,9.3,0,0,0-.472,6.377c1.343,3.941,5.9,5.639,9.55,6.583a87.4,87.4,0,0,0,15.16,2.008c6.657.5,14.185,1.255,20.666-.915a6.214,6.214,0,0,0,3.646-2.465,2.952,2.952,0,0,0,.162-2.391,10.968,10.968,0,0,1-.679-4.03c.413-4.975,4.281-8.414,5.535-9.595a57.454,57.454,0,0,0,6.554-8.119c4.9-6.539,9.7-13.152,14.51-19.765,8.089-11.115,10.141-25.448,11.248-38.807a27.648,27.648,0,0,1,1.653-8.857,15.574,15.574,0,0,1,3.764-5.225,37.084,37.084,0,0,0,3.38-3.07,7.558,7.558,0,0,0-.812-9.919c-2.509-2.037-4.34,1.919-5.58,3.528-1.579,2.052-3.425,2.362-4.738,0-1.624-2.952-2.273-6.6-3.262-9.816a43.324,43.324,0,0,0-4.576-11,38.54,38.54,0,0,0-4.783-5.624c-5.816-5.993-11.9-11.809-18.053-17.448a58.527,58.527,0,0,1-6.037-5.417,9.979,9.979,0,0,1-.649-.9c-5.476-8.37-3.779-20.223-.369-43.914a24.12,24.12,0,0,1,3.159-10.023,11.484,11.484,0,0,1,4.664-4.163c.723-.34,3.513-.8,3.616-1.786s-1.358-1.638-1.978-1.993A30.88,30.88,0,0,0,96.253,5.5,92.67,92.67,0,0,0,78.54,1.558a98.073,98.073,0,0,0-36.4,1.476,25.581,25.581,0,0,0-5.462,1.934c-.753.4-2.1,1.107-2.1,2.17s1.3,2.495,2.583,3.2c1.816,1.019,3.262.458,4.679.856C45.224,12.186,46.287,18.474,46.6,20.423Z" transform="translate(3.058 -0.51)" fill="none" stroke="#000" stroke-linecap="round" stroke-miterlimit="10" stroke-width="1"/><path d="M30.89,9.593a23.47,23.47,0,0,1,13.034-5c4.635-.28,9.27-.325,13.935-.517a46.867,46.867,0,0,1,12.03.369,48.062,48.062,0,0,1,12.532,4.3,40.46,40.46,0,0,1,4.325,2.716" transform="translate(13.967 1.078)" fill="none" stroke="#000" stroke-linecap="round" stroke-miterlimit="10" stroke-width="1"/><path d="M36.64,27.16a88.892,88.892,0,0,0,39.855.369" transform="translate(16.705 12.178)" fill="none" stroke="#000" stroke-linecap="round" stroke-miterlimit="10" stroke-width="1"/><path d="M37.22,30.49a42.04,42.04,0,0,0,37.892.251" transform="translate(16.981 13.763)" fill="none" stroke="#000" stroke-linecap="round" stroke-miterlimit="10" stroke-width="1"/><path d="M37.22,36A53.982,53.982,0,0,0,75.274,34.18" transform="translate(16.981 15.52)" fill="none" stroke="#000" stroke-linecap="round" stroke-miterlimit="10" stroke-width="1"/><path d="M32.37,48.628A80.271,80.271,0,0,0,80.979,47.24" transform="translate(14.672 21.738)" fill="none" stroke="#000" stroke-linecap="round" stroke-miterlimit="10" stroke-width="1"/><path d="M20.22,66.2q34.128.487,68.241-1.151,9.432-.443,18.85-1.063" transform="translate(8.887 29.713)" fill="none" stroke="#000" stroke-linecap="round" stroke-miterlimit="10" stroke-width="1"/><path d="M14.72,75.33a724.094,724.094,0,0,0,83.563,2.081q11.233-.384,22.466-1.107" transform="translate(6.268 35.112)" fill="none" stroke="#000" stroke-linecap="round" stroke-miterlimit="10" stroke-width="1"/><path d="M17.7,80.49q-.723,18.333-1.476,36.667" transform="translate(6.982 37.569)" fill="none" stroke="#000" stroke-linecap="round" stroke-miterlimit="10" stroke-width="1"/><path d="M1.075,82.689C.942,78.645.027,77.021.824,76.3c1.579-1.476,5.417,1.284,6.657,2.126a25.094,25.094,0,0,1,6.392,6.229,29.522,29.522,0,0,1,5.594,14.392c.221,3.144-.59,6.406-4.428,5.55-4.251-.959-8.222-4.428-10.968-7.6a14.23,14.23,0,0,1-3.38-6.377C.219,88.062,1.149,85.287,1.075,82.689Z" transform="translate(-0.502 35.37)" fill="none" stroke="#000" stroke-linecap="round" stroke-miterlimit="10" stroke-width="1"/><path d="M.89,80.49a16.547,16.547,0,0,1,10.7,16.237" transform="translate(-0.317 37.569)" fill="none" stroke="#000" stroke-linecap="round" stroke-miterlimit="10" stroke-width="1"/><path d="M92.546,97.2c-.576,5.152-1.092,6.392-1.476,6.392-.93,0-2.834-7.381-.487-14.51a20.873,20.873,0,0,1,2.7-5.417" transform="translate(41.852 39.079)" fill="none" stroke="#000" stroke-linecap="round" stroke-miterlimit="10" stroke-width="1"/><path d="M25.362,82.715a11.809,11.809,0,0,1,14.215,1.476,12.385,12.385,0,0,1,3.5,10.864,13.182,13.182,0,0,1-4.591,8.4c-4.886,3.72-11.706,1.358-15.1-3.233C19.693,95.188,19.62,86.538,25.362,82.715Z" transform="translate(9.162 37.81)" fill="none" stroke="#000" stroke-linecap="round" stroke-miterlimit="10" stroke-width="1"/><path d="M22.72,89.16H38.706" transform="translate(10.077 41.697)" fill="none" stroke="#000" stroke-linecap="round" stroke-miterlimit="10" stroke-width="1"/><path d="M28.72,82.49l.487,18.953" transform="translate(12.934 38.521)" fill="none" stroke="#000" stroke-linecap="round" stroke-miterlimit="10" stroke-width="1"/><path d="M47.3,81.133c8.768-.841,10.879-.251,11.071.5.354,1.388-3.941,3.129-4.783,3.587-1.181.62-2.377,1.24-3.528,1.934-.561.354-1.816.974-1.978,1.7-.635,2.8,10.333,0,10.776,1.875.3,1.476-11.809,4.428-11.558,6.643.325,2.509,9.9,1.078,9.3,3.735-.31,1.476-3.941,2.3-5.034,2.731-.8.31-4.679,1.373-4.517,2.642.207,1.638,9.58,1.151,9.846,2.952s-8.857,4.118-8.606,5.417c.1.59,2.155.945,9.093.487" transform="translate(21.659 37.679)" fill="none" stroke="#000" stroke-linecap="round" stroke-miterlimit="10" stroke-width="1"/><path d="M60.88,82.4c-.945,5.373-4.93,29.227,1.727,31.987a3.616,3.616,0,0,0,2.7,0c5.388-2.495,1.727-21.64-.989-33.213" transform="translate(27.272 37.893)" fill="none" stroke="#000" stroke-linecap="round" stroke-miterlimit="10" stroke-width="1"/><path d="M38.39,112.965Q39.955,80.49,41.829,80.49t4.177,34.7" transform="translate(17.538 37.569)" fill="none" stroke="#000" stroke-linecap="round" stroke-miterlimit="10" stroke-width="1"/><path d="M69.744,84.6c3.439-2.775,8.561-2.214,12.03.207A11.44,11.44,0,0,1,86.2,95.6a8.458,8.458,0,0,1-7.794,7.705,11.322,11.322,0,0,1-10.584-6.037C65.847,93.234,66.009,87.551,69.744,84.6Z" transform="translate(30.955 38.642)" fill="none" stroke="#000" stroke-linecap="round" stroke-miterlimit="10" stroke-width="1"/><path d="M73.39,84.66l.487,15.263" transform="translate(34.202 39.555)" fill="none" stroke="#000" stroke-linecap="round" stroke-miterlimit="10" stroke-width="1"/><path d="M67.55,91.85l15.012-3.69" transform="translate(31.421 41.221)" fill="none" stroke="#000" stroke-linecap="round" stroke-miterlimit="10" stroke-width="1"/><path d="M83.626,81.49l-.236,29.773" transform="translate(38.963 38.045)" fill="none" stroke="#000" stroke-linecap="round" stroke-miterlimit="10" stroke-width="1"/><path d="M10.89,105.83A364.1,364.1,0,0,0,96.5,109.461q11.2-.856,22.334-2.406" transform="translate(4.445 49.634)" fill="none" stroke="#000" stroke-linecap="round" stroke-miterlimit="10" stroke-width="1"/><path d="M17.05,112.636A191.9,191.9,0,0,0,91.491,115.2,190.316,190.316,0,0,0,110.3,111.16" transform="translate(7.377 52.172)" fill="none" stroke="#000" stroke-linecap="round" stroke-miterlimit="10" stroke-width="1"/><path d="M24.89,126.042a333.961,333.961,0,0,0,59.517.133q8.281-.709,16.5-1.845" transform="translate(11.11 58.442)" fill="none" stroke="#000" stroke-linecap="round" stroke-miterlimit="10" stroke-width="1"/><path d="M36.05,138a136.57,136.57,0,0,0,43.309,3.2" transform="translate(16.424 64.951)" fill="none" stroke="#000" stroke-linecap="round" stroke-miterlimit="10" stroke-width="1"/><path d="M34.74,151.323a109.233,109.233,0,0,1,47.693.62" transform="translate(15.8 70.183)" fill="none" stroke="#000" stroke-linecap="round" stroke-miterlimit="10" stroke-width="1"/></g></g><g transform="translate(736 343)"><g fill="#4b4b4b" stroke="#707070" stroke-width="1"><path d="M20,0H1286a22,22,0,0,1,22,22V57a2,2,0,0,1-2,2H2a2,2,0,0,1-2-2V20A20,20,0,0,1,20,0Z" stroke="none"/><path d="M20,.5H1286A21.5,21.5,0,0,1,1307.5,22V57a1.5,1.5,0,0,1-1.5,1.5H2A1.5,1.5,0,0,1,.5,57V20A19.5,19.5,0,0,1,20,.5Z" fill="none"/></g><g transform="translate(41.221 21.275)"><g transform="translate(-0.221 -0.275)" fill="#f6f02b" stroke="#707070" stroke-width="0.5"><circle cx="8" cy="8" r="8" stroke="none"/><circle cx="8" cy="8" r="7.75" fill="none"/></g></g><g transform="translate(59.837 21.275)"><g transform="translate(0.163 -0.275)" fill="#31f537" stroke="#707070" stroke-width="0.5"><circle cx="8" cy="8" r="8" stroke="none"/><circle cx="8" cy="8" r="7.75" fill="none"/></g></g><g transform="translate(22.605 21.275)"><g transform="translate(0.395 -0.275)" fill="#de3535" stroke="#707070" stroke-width="0.5"><circle cx="8" cy="8" r="8" stroke="none"/><circle cx="8" cy="8" r="7.75" fill="none"/></g></g><g transform="translate(83.107 9.308)"><g transform="translate(207.893 -0.308)" fill="#fff" stroke="#707070" stroke-width="1"><rect width="225" height="40" rx="15" stroke="none"/><rect x="0.5" y="0.5" width="224" height="39" rx="14.5" fill="none"/></g><g transform="translate(398.25 12.632)"><g fill="#fff" stroke="#707070" stroke-width="1"><circle cx="7.978" cy="7.978" r="7.978" stroke="none"/><circle cx="7.978" cy="7.978" r="7.478" fill="none"/></g><line x2="6.649" y2="6.649" transform="translate(13.962 12.632)" fill="none" stroke="#707070" stroke-width="1"/></g><text transform="translate(246.893 26.692)" fill="#131313" font-size="16" font-family="Poppins-ExtraBold, Poppins" font-weight="800" opacity="0.5"><tspan x="0" y="0">WWW.yyy.com/</tspan></text><g transform="translate(0 11.079)"><g transform="translate(220.733 4.878)" fill="#707070" stroke="#707070" stroke-width="1"><rect width="11.967" height="10.638" rx="2" stroke="none"/><rect x="0.5" y="0.5" width="10.967" height="9.638" rx="1.5" fill="none"/></g><path d="M966.945,363.406v-2.038a26.513,26.513,0,0,1,1.758-3.036h3.676l1.6,2.757v2.517" transform="translate(-743.626 -358.332)" fill="none" stroke="#707070" stroke-linecap="round" stroke-linejoin="round" stroke-width="1"/><circle cx="0.665" cy="0.665" r="0.665" transform="translate(226.052 11.526)" fill="#fff"/><g transform="translate(0 152.476)" fill="#dcdcdc" stroke="#707070" stroke-width="1"><rect width="304.505" height="62.497" rx="31.248" stroke="none"/><rect x="0.5" y="0.5" width="303.505" height="61.497" rx="30.748" fill="none"/></g><g transform="translate(105.048 282.788)"><g fill="#dcdcdc" stroke="#707070" stroke-width="1"><rect width="304.505" height="23.935" rx="11.967" stroke="none"/><rect x="0.5" y="0.5" width="303.505" height="22.935" rx="11.467" fill="none"/></g><g transform="translate(0 38.562)" fill="#dcdcdc" stroke="#707070" stroke-width="1"><rect width="289.878" height="23.935" rx="11.967" stroke="none"/><rect x="0.5" y="0.5" width="288.878" height="22.935" rx="11.467" fill="none"/></g><g transform="translate(0 77.123)" fill="#dcdcdc" stroke="#707070" stroke-width="1"><rect width="296.526" height="23.935" rx="11.967" stroke="none"/><rect x="0.5" y="0.5" width="295.526" height="22.935" rx="11.467" fill="none"/></g><g transform="translate(0 115.685)" fill="#dcdcdc" stroke="#707070" stroke-width="1"><rect width="313.813" height="23.935" rx="11.967" stroke="none"/><rect x="0.5" y="0.5" width="312.813" height="22.935" rx="11.467" fill="none"/></g></g><g transform="translate(85.102 486.234)"><rect width="122.334" height="41.221" rx="20.611" fill="url(#j)"/><text transform="translate(10.638 25.308)" fill="#fefae0" font-size="15" font-family="Poppins-ExtraBold, Poppins" font-weight="800"><tspan x="0" y="0">Learn more!</tspan></text></g></g></g><g transform="translate(141.615 35.237) rotate(180)"><line x2="9.308" transform="translate(0 5.319)" fill="none" stroke="#707070" stroke-linecap="round" stroke-width="1"/><line y1="5.319" x2="3.989" fill="none" stroke="#707070" stroke-linecap="round" stroke-width="1"/><line x2="3.989" y2="5.319" transform="translate(0 5.319)" fill="none" stroke="#707070" stroke-linecap="round" stroke-width="1"/></g><g transform="translate(105.712 24.6)"><line x2="9.308" transform="translate(0 5.319)" fill="none" stroke="#707070" stroke-linecap="round" stroke-width="1"/><line y1="5.319" x2="3.989" fill="none" stroke="#707070" stroke-linecap="round" stroke-width="1"/><line x2="3.989" y2="5.319" transform="translate(0 5.319)" fill="none" stroke="#707070" stroke-linecap="round" stroke-width="1"/></g></g></g></svg>