<svg xmlns="http://www.w3.org/2000/svg" viewBox="0 0 201.6 115.52"><title>design</title><g id="49ae5bfd-cff0-41bb-b649-3e92e05eb2fc" data-name="Layer 2"><g id="62734c98-3741-4d9d-b227-9abdff25aff0" data-name="Layer 1"><g id="0aefd5da-8560-439e-b0d2-9f5e92101d1d" data-name="design"><path d="M62.21,48.51c20.24-3.09,20.17-22.39,44.58-36.3,23.41-13.34,61.78-17.43,80.67,2.67,12.11,12.87,18.15,37.74,8,54-17,27.2-61,1-132,30.66-16.85,7-40.54,19.45-45.33,13.34s13.25-24.65,6.66-34c-4.62-6.57-16.1-1.17-21.33-8-5.76-7.55-1-26.18,10-32C27.75,31.31,40.38,51.85,62.21,48.51Z" fill="none" stroke="#dda15e" stroke-miterlimit="10" stroke-width="2"/><text transform="matrix(0.98, -0.21, 0.21, 0.98, 68.92, 80.08)" font-size="35.73" fill="#dda15e" font-family="OCRAExtended, OCR A Extended">Draw</text></g></g></g></svg>