<svg xmlns="http://www.w3.org/2000/svg" xmlns:xlink="http://www.w3.org/1999/xlink" viewBox="0 0 139.79 192.87"><defs><linearGradient id="4feb977b-8284-480e-ac17-cae934f9370e" x1="49.23" y1="59.64" x2="25.06" y2="17.77" gradientTransform="matrix(1.35, 0.19, 0.19, 1.1, -23.56, -12.84)" gradientUnits="userSpaceOnUse"><stop offset="0" stop-color="#a123db"/><stop offset="0.31" stop-color="#9e22dc"/><stop offset="0.53" stop-color="#9520de"/><stop offset="0.71" stop-color="#861ce3"/><stop offset="0.79" stop-color="#7d1ae5"/></linearGradient><linearGradient id="51fd986d-85bc-46d3-be77-d42ec691d017" x1="101.72" y1="66.72" x2="139.79" y2="66.72" gradientUnits="userSpaceOnUse"><stop offset="0" stop-color="#ffe000"/><stop offset="0.12" stop-color="#ffc903"/><stop offset="0.38" stop-color="#ff8f09"/><stop offset="0.45" stop-color="#ff7f0b"/><stop offset="0.76" stop-color="#ff9e1d"/><stop offset="1" stop-color="#ffb127"/></linearGradient><linearGradient id="e236bec1-c93a-487d-bc73-b2bc9d2e99a3" x1="55.2" y1="101.57" x2="24.34" y2="186.34" gradientUnits="userSpaceOnUse"><stop offset="0.01" stop-color="#06dffc"/><stop offset="0.3" stop-color="#15a2ec"/><stop offset="0.74" stop-color="#2d40d3"/></linearGradient></defs><title>face</title><g id="b94bc4cf-5400-4b3e-8a14-a77938ceaa3c" data-name="Layer 2"><g id="4f1e89ac-b97b-47ca-9aac-049c55b5025a" data-name="Layer 1"><g id="aec72d99-78f6-4900-bcd8-5da1abf7709b" data-name="painted-1"><path d="M48.29,45.91c-.3-3.68.19-8.06,3.6-11s6.83-2.09,8.51-5.19c2.12-3.93-2.5-7-1.27-12.56,1.19-5.35,6.21-5.66,4.81-9-1.52-3.63-8.59-6-10.11-6.57C51.83.85,46.55-1,43.4.71,40.57,2.26,42,4.85,39.67,7S34.25,8,27.85,8.71C23.79,9.16,17.64,9.84,14.42,13c-1.23,1.2-2.06,2.78-1.43,14.65s1.6,13.39.83,19c-.56,4-1,7.14-3,10.71-2.34,4.16-4.57,4.95-4.49,8.34.1,3.87,3.18,9.19,6.85,10.45,2.64.9,6.18-1.82,13.17-7.29,4.78-3.75,7.17-5.63,8.44-7.07,2.69-3.07,3.53-5.17,7.2-6.52,2.2-.81,3.41-.62,4.75-1.67C49.1,51.76,48.87,48.46,48.29,45.91Z" fill="url(#4feb977b-8284-480e-ac17-cae934f9370e)"/><path d="M105,69.48c2.1,2.69,4.19,6.4,4,10.8s-2.37,5.78-1.58,9.22c1,4.34,5,3.94,7.33,9,2.24,4.88-.15,8.18,2.34,9.94,2.71,1.91,7.6-.51,8.64-1,1.39-.69,5.07-2.45,5.76-5.71.61-2.92-1.51-4-1.47-7.18s2.25-4,5.13-8.48c1.84-2.83,4.6-7.09,4.56-11.52,0-1.67-.43-3.41-7.06-12.28S124.8,52.81,122.21,48A36.43,36.43,0,0,1,118,37.82c-1-4.67-.31-6.64-2.15-9.23-2.11-2.95-6.51-5.23-9-4-1.82.9-2.18,5.18-2.83,13.68a97,97,0,0,0-.54,10.64c.26,4,1,6.17-.2,9.46-.69,2-1.41,2.55-1.54,4.18C101.51,65.42,103.38,67.85,105,69.48Z" fill="url(#51fd986d-85bc-46d3-be77-d42ec691d017)"/><path d="M50,128c-5.21-3.57-6.68-6.85-7-9.25-.29-2.16.36-3.51,0-8.25-.11-1.49-.11-.52-.75-5.5-.51-4-.7-6.13-2.32-8a6.65,6.65,0,0,0-.73-.75,2.88,2.88,0,0,0-.33-.21c-8.22-4.41-12.44-3.23-12.44-3.23-3.35.94-2.38,3.27-8.09,7-3.38,2.23-4.7,2.05-5.34,3.67-1.22,3.07,2.91,5.39,2.17,9.66-.49,2.82-2.44,2.61-3.87,6.15-1.31,3.21-1.56,8,.7,11.19s4.75,1.83,8.5,5.33c1.23,1.15,1.39,1.68,5,8.42,4.79,8.92,5.19,9.24,6,11.75,1.62,5,2.43,7.49,1.5,10.25-.5,1.49-1.58,3.34-1.25,6a21.52,21.52,0,0,0,.75,2.75,19.09,19.09,0,0,1,.25,6.5c-.07,4.06,3.45,8.49,6.75,10.25,5.82,3.09,13-1,17.24-3.46,3-1.71,10.43-6.14,14-15.54.24-.64,5.67-15.39-1.25-23-3.33-3.67-6.89-2.77-11.75-8.5a51.25,51.25,0,0,1-4.75-7A52.38,52.38,0,0,1,50,128Z" fill="url(#e236bec1-c93a-487d-bc73-b2bc9d2e99a3)"/><g id="6508cdc6-420a-4978-ab39-b63d4304872a" data-name="face"><path d="M7.26,90.64A27.27,27.27,0,0,1,3,84c-.72-1.58-3.37-7.38-1.12-12.13C3,69.65,4.37,69.2,4.82,66.64c.39-2.13-.44-2.72-.5-5-.08-3.68,2-5,3.44-9.25,1.36-4-.52-5.61,1-8.44a9.54,9.54,0,0,1,4.06-3.81l7.44.19c.23-1.91.62-4.66,1.31-7.94,1.21-5.68,2-9.52,4.5-13.87,1.57-2.75,4.19-7.2,8.88-8.69a16.61,16.61,0,0,1,2.62-.56c4.94-.76,6.49.62,9.13-.19S48.93,6.41,52,4.45A13.75,13.75,0,0,1,63,3C68.55,4.73,69,10,74.32,10.45a16.41,16.41,0,0,0,4.75-.56c3.78-.75,5-1.72,7.13-2.31,4.85-1.32,9.41.65,13.25,2.31a30.49,30.49,0,0,1,8.31,5.38c2.28,2.06,5.58,5,7.13,9.81.81,2.5.19,2.55,1,9.25.63,5.23,1,7.85,2,10a18.08,18.08,0,0,0,7.43,7.94c2.6,1.37,3.4.81,5.32,2.31,2.88,2.24,3.75,5.57,4.25,7.5.59,2.27,1.8,7-.57,10.37-1.13,1.64-2.38,2-2.56,3.5-.2,1.76,1.3,2.19,2.13,4.88.13.42,1.3,4.41-.63,6.94-.79,1-1.48,1-2.06,2.18a6.08,6.08,0,0,0-.19,3.88c.23,1.48.88,5.58-.37,8.12-1.48,3-4.5,1.58-7.57,5.25-2.07,2.49-1.11,3.65-3.62,6.19a21.38,21.38,0,0,1-4.88,3.5c-1.68.93-2.14.91-3.06,1.44-1.53.89-3.41,2.75-4.56,7.12l.87,39.94a56.38,56.38,0,0,1-7.75,8.13,62,62,0,0,1-15.68,9.56A70.69,70.69,0,0,1,67.7,187.7c-6.56,1-10.68.71-18.88.13-3.72-.27-6.84-.66-9.18-3.06A10.28,10.28,0,0,1,37,179.33Q36.8,162,36.57,144.7a56.35,56.35,0,0,0-1.25-8.62A62.73,62.73,0,0,0,32,125.64a72,72,0,0,0-6.19-12.06c-3.27-5.12-4.86-6.14-6.31-6.63-2.44-.81-3.35.28-5.5-.75a9.66,9.66,0,0,1-4.88-7.5c-.22-2.49.77-4.18-.5-6.43A7.56,7.56,0,0,0,7.26,90.64Z" fill="none" stroke="#000" stroke-miterlimit="10" stroke-width="2"/><path d="M39.89,50.14a6.38,6.38,0,0,1-3,3.5c-1,.51-2.54.59-5.5.75-1.94.11-2.17,0-2.75.25-1.76.66-2.43,2.4-3.25,4-1.05,2-3.33,6.5-6.21,7.71-1.44.6-3.77.72-7.67-1.67" fill="none" stroke="#000" stroke-linecap="round" stroke-linejoin="round" stroke-width="2"/><path d="M19.51,51.93c1.35-4.38,3.09-5.76,4.5-6.16a24,24,0,0,1,4.92.16c3.09.23,3.79.41,4.83-.08,1.55-.73,1.45-1.8,2.75-2.08s1.82.74,4,1.16a6.64,6.64,0,0,0,4.17-.33c2.41-1.2,2.92-4.24,3-4.75" fill="none" stroke="#000" stroke-miterlimit="10"/><path d="M29,34.27a4.59,4.59,0,0,1,2.84-.75c2.06.2,2.44,2,4.75,2.58a5.68,5.68,0,0,0,4.66-.83c.84-.66.81-1.19,2.34-2.75a8,8,0,0,1,1.75-1.59c1.62-.79,2.89.19,7,.25.35,0,.64,0,.83,0" fill="none" stroke="#000" stroke-miterlimit="10"/><path d="M49.6,34.93A19.07,19.07,0,0,0,58,35a4,4,0,0,0,2.34-1.34c.53-.72.38-1.25.91-3,.44-1.42.65-2.13,1.09-2.5,1.06-.91,2.4,0,4.91-.08a11.45,11.45,0,0,0,5.17-1.5A13.48,13.48,0,0,0,77.1,22a18.22,18.22,0,0,0,2.41-5.09" fill="none" stroke="#000" stroke-miterlimit="10" stroke-width="1.5"/><path d="M29.26,25.85a4.7,4.7,0,0,0,3.25,2.58,4.52,4.52,0,0,0,3.34-.91c1.08-.83.89-1.49,1.66-2.09,1.57-1.23,3.85.33,6.67.5,1.63.1,4.06-.22,7.17-2.41" fill="none" stroke="#000" stroke-miterlimit="10"/><path d="M35.26,21.52c4.56,1.25,7.32.51,9-.42,2.67-1.48,2.39-3.28,6-5.92A17.83,17.83,0,0,1,58,11.93a16.49,16.49,0,0,1,5.92.25" fill="none" stroke="#000" stroke-miterlimit="10"/><path d="M86.1,17.35a27.28,27.28,0,0,0,4.83,11.92,13.72,13.72,0,0,0,4.75,4.33,12.3,12.3,0,0,0,5.17,1.33" fill="none" stroke="#000" stroke-miterlimit="10"/><path d="M93.26,17.27a21.37,21.37,0,0,0,4.17,9.16c1.43,1.8,3.2,4,6.08,4.42a7.53,7.53,0,0,0,2.67-.08" fill="none" stroke="#000" stroke-miterlimit="10"/><path d="M100.93,37.6a11.56,11.56,0,0,1,5.75,2.75c1.71,1.57,2.08,3,4.33,6.17a43.42,43.42,0,0,0,3.25,4" fill="none" stroke="#000" stroke-miterlimit="10"/><path d="M102.85,42.85A11.59,11.59,0,0,1,107.6,47c1,1.59.83,2.35,2.08,4a9.48,9.48,0,0,0,4.08,3.25,7.58,7.58,0,0,0,4.84.41,6.87,6.87,0,0,0,2.33-1.16" fill="none" stroke="#000" stroke-miterlimit="10"/><path d="M111.85,58.6c5-1.58,7.24-.84,8.33.17.89.81,1,1.76,2.25,3.16a10.36,10.36,0,0,0,4.25,2.75" fill="none" stroke="#000" stroke-miterlimit="10"/><path d="M113.6,61.68a17.43,17.43,0,0,0,6.91,6.75c1.87,1,4.61,2.41,7.84,1.59a9.11,9.11,0,0,0,4.25-2.59" fill="none" stroke="#000" stroke-miterlimit="10"/><path d="M112.76,68.77a4.77,4.77,0,0,1,3.84.5c1.07.75.94,1.61,2.41,3.66a7.84,7.84,0,0,0,2.67,2.75,6.6,6.6,0,0,0,5.17.17A7.05,7.05,0,0,0,130,73.43" fill="none" stroke="#000" stroke-miterlimit="10"/><path d="M120.1,80a18.15,18.15,0,0,1,2.08,4.25c.59,1.77.64,2.84,1.58,3.66a4.39,4.39,0,0,0,3.17.84" fill="none" stroke="#000" stroke-miterlimit="10"/><path d="M118.68,87.35a6.73,6.73,0,0,0,2.17,6.5,6.25,6.25,0,0,0,3.75,1.33" fill="none" stroke="#000" stroke-miterlimit="10"/><path d="M117.43,94.68a5.55,5.55,0,0,0,1.75,4.42,5.64,5.64,0,0,0,4.92,1.17" fill="none" stroke="#000" stroke-miterlimit="10"/><path d="M116.35,101a2.77,2.77,0,0,0,1.25,3.16,2.72,2.72,0,0,0,2.33,0" fill="none" stroke="#000" stroke-miterlimit="10"/><path d="M37.89,67.27a22.73,22.73,0,0,1,12-7.13A19.29,19.29,0,0,1,62.64,61a18.53,18.53,0,0,1,8.5,8.12q-.63,13.76-1.25,27.5a5.33,5.33,0,0,0,10.5-.25l.37-21.75c.11-.91,1-7.51,6.38-10.37A11.07,11.07,0,0,1,92.26,63c5.77-.13,10,3.87,12.25,6a26.5,26.5,0,0,1,3.88,4.62" fill="none" stroke="#000" stroke-miterlimit="10"/><path d="M40.14,71.52A14,14,0,0,1,46,66c6.81-3.29,13.83.77,14.88,1.37a18.34,18.34,0,0,1,5.37,4.75" fill="none" stroke="#000" stroke-miterlimit="10"/><path d="M43.14,72.13c.21-1.9,5.38-2.88,7.75-3.13,5.92-.62,13,1.35,13.12,3.69.14,1.92-4.33,4-8.12,4.47C49.61,77.91,42.88,74.39,43.14,72.13Z" fill="none" stroke="#000" stroke-miterlimit="10" stroke-width="0.95"/><path d="M50.64,81.27a16.67,16.67,0,0,0,9-1.88,16.35,16.35,0,0,0,4.75-3.87" fill="none" stroke="#000" stroke-miterlimit="10" stroke-width="0.95"/><path d="M85.39,77.52a12.7,12.7,0,0,0,12,7.25" fill="none" stroke="#000" stroke-miterlimit="10" stroke-width="0.95"/><path d="M85.39,70.64c1.39-.81,5.23-2.79,9-1.37a10.71,10.71,0,0,1,3.12,2,27.79,27.79,0,0,1,5.88,6.5" fill="none" stroke="#000" stroke-miterlimit="10"/><path d="M85.89,75.52c.3-1.92,5.84-3.58,10-1.75,2.73,1.19,5.26,4,4.62,5.62-.71,1.74-5.21,1.56-8.12.75S85.61,77.24,85.89,75.52Z" fill="none" stroke="#000" stroke-miterlimit="10" stroke-width="0.95"/><path d="M64.64,94.27c-3.65.63-6.23,3.33-6.38,6.25a6.54,6.54,0,0,0,1.88,4.62" fill="none" stroke="#000" stroke-miterlimit="10" stroke-width="0.95"/><path d="M63.93,101.68a2.6,2.6,0,0,1,2-2.62,2.13,2.13,0,0,1,1.91.83,2.44,2.44,0,0,1-.16,3,2,2,0,0,1-3.59-.5A2.51,2.51,0,0,1,63.93,101.68Z" fill="none" stroke="#000" stroke-miterlimit="10" stroke-width="0.95"/><path d="M78.05,103.27a2.66,2.66,0,0,1,1.17-1.8,2.58,2.58,0,0,1,1.54-.54,1.92,1.92,0,0,1,1.46.59c.61.83-.06,2.45-1.12,3.2-.07,0-1.47,1-2.42.34A2,2,0,0,1,78.05,103.27Z" fill="none" stroke="#000" stroke-miterlimit="10" stroke-width="0.95"/><path d="M82.51,98.59A5.59,5.59,0,0,1,84.14,104a5.93,5.93,0,0,1-3.58,3.88" fill="none" stroke="#000" stroke-linecap="round" stroke-miterlimit="10" stroke-width="0.95"/><path d="M70.15,106.64a10,10,0,0,0,.13,4.34,2.55,2.55,0,0,0,.9,1.61,2.32,2.32,0,0,0,2.18.16c1.28-.63,1.63-3.31.75-6.63" fill="none" stroke="#000" stroke-linecap="round" stroke-miterlimit="10" stroke-width="0.95"/><path d="M54.51,116.14a6.71,6.71,0,0,0,3.88.25c2.52-.65,2.85-2.62,5.43-3.25a9.1,9.1,0,0,1,4.63.38c2.29.61,2.65,1.41,4.25,1.37,1.94,0,2.2-1.22,3.69-1.06s1.28,1.22,4.31,3.56A14.51,14.51,0,0,0,85.57,120c.42.12.76.2,1,.25" fill="none" stroke="#000" stroke-linecap="round" stroke-miterlimit="10" stroke-width="0.95"/><path d="M54.43,118.35a15.54,15.54,0,0,0,4.33.75,6.82,6.82,0,0,0,2.36-.25c1.18-.39,1.23-.88,2.18-1.19a5.06,5.06,0,0,1,3.73.54c1.54.85,1.33,1.76,2.63,2.15a4,4,0,0,0,3.21-.52c.62-.42.64-.76,1.31-1.09a3.73,3.73,0,0,1,2.23-.25c1.27.23,1.53.91,4.19,2.82A5.59,5.59,0,0,0,83,122.6a5,5,0,0,0,2.42-.27,5.84,5.84,0,0,0,2.06-1.23" fill="none" stroke="#000" stroke-linecap="round" stroke-miterlimit="10" stroke-width="0.95"/><path d="M83.07,122.66a7.4,7.4,0,0,1-.2,2.14,6.23,6.23,0,0,1-1.46,3,5.14,5.14,0,0,1-5.46.83,16.09,16.09,0,0,1-3.65-2.91,3.84,3.84,0,0,0-1.87-1.13,3.53,3.53,0,0,0-2,.22c-1.17.41-1.33,1-2.59,1.59a5,5,0,0,1-1.93.59c-2.38.12-4.17-2.52-4.44-2.93a8.38,8.38,0,0,1-1.38-4.43" fill="none" stroke="#000" stroke-linecap="round" stroke-miterlimit="10" stroke-width="0.97"/><path d="M26.14,97.14a138.79,138.79,0,0,0,5.12,18.13c2.94,8.21,4.48,12.4,7.88,16.5,5.34,6.43,11.78,9.15,16.75,11.25,6.87,2.89,12.73,5.36,19.87,4,6.68-1.28,10.86-5.23,17.63-11.63a58.9,58.9,0,0,0,12.12-15c3.74-6.79,4.92-12.7,7.13-24.25A200.59,200.59,0,0,0,115.51,75" fill="none" stroke="#000" stroke-linecap="round" stroke-miterlimit="10"/><path d="M13.64,101.77c-1-2.69-1.74-5.57-.75-6.25,1.24-.86,3.73,2.74,7.12,2.5,3.72-.28,6.88-5,8.13-9,2.21-7-1.59-11.62,1.62-16.13a9.54,9.54,0,0,1,4.38-3.25" fill="none" stroke="#000" stroke-linecap="round" stroke-miterlimit="10"/><path d="M4.89,76c.72-2.13,2.06-4.94,4.5-5.63s3.64,1.23,7.12,1.75C22.18,73,27,69.22,28,68.39a16.92,16.92,0,0,0,5.63-9.12" fill="none" stroke="#000" stroke-linecap="round" stroke-miterlimit="10"/></g></g></g></g></svg>