<svg xmlns="http://www.w3.org/2000/svg" viewBox="0 0 441.24 434.1"><title>fast (2)</title><g id="09157c60-cfaa-462a-9c8f-ede4a4477629" data-name="Layer 2"><g id="13798758-97e5-442e-a7a6-388b328da229" data-name="fast"><g id="d96a0523-8645-42aa-bf60-3f63f2ba0f57" data-name="fast"><rect x="22.38" width="97.84" height="101.99" fill="#e8c09e"/><rect x="15.76" width="97.84" height="101.99" fill="#ffdab6"/><rect x="28.91" y="13.71" width="71.53" height="74.57" fill="#fff"/><path d="M28.91,88.77a13.27,13.27,0,0,1-1.79,2C26,92,24.36,93.63,22.56,95.4s-3.45,3.36-4.66,4.48a13.57,13.57,0,0,1-2,1.75,12.91,12.91,0,0,1,1.78-2c1.14-1.2,2.76-2.83,4.56-4.61s3.46-3.36,4.67-4.49A13.63,13.63,0,0,1,28.91,88.77Z" fill="#ffdab6"/><path d="M100.44,88.59a13.27,13.27,0,0,1,2,1.79c1.2,1.15,2.83,2.76,4.6,4.55s3.36,3.46,4.48,4.67a13.57,13.57,0,0,1,1.75,2,12.91,12.91,0,0,1-2-1.78c-1.2-1.14-2.83-2.76-4.61-4.56s-3.36-3.46-4.49-4.67A13.63,13.63,0,0,1,100.44,88.59Z" fill="#ffdab6"/><path d="M100.25,13.91a13.27,13.27,0,0,1,1.79-2c1.14-1.2,2.75-2.82,4.55-4.6S110,3.93,111.26,2.8a13.57,13.57,0,0,1,2-1.75,13.62,13.62,0,0,1-1.78,2c-1.15,1.2-2.76,2.83-4.56,4.61s-3.46,3.36-4.68,4.49A12.62,12.62,0,0,1,100.25,13.91Z" fill="#ffdab6"/><path d="M28.71,14.09a14.17,14.17,0,0,1-2-1.79c-1.2-1.14-2.83-2.75-4.6-4.55S18.73,4.3,17.6,3.08a13.05,13.05,0,0,1-1.74-2,13.62,13.62,0,0,1,2,1.78c1.2,1.15,2.83,2.76,4.6,4.56s3.37,3.46,4.49,4.68A12.62,12.62,0,0,1,28.71,14.09Z" fill="#ffdab6"/><path d="M100.25,88.28s0-.13,0-.36,0-.59,0-1c0-.93,0-2.27,0-4,0-3.53,0-8.67-.06-15.19,0-13.06-.07-31.67-.12-54l.24.23L28.92,14h0l.27-.27c0,27.37,0,53,0,74.57l-.23-.23,51.67.11,14.5.06,3.83,0h1l.35,0H99l-3.79,0-14.46.06-51.81.12h-.23v-.23c0-21.59,0-47.2,0-74.57v-.27h.28l71.33,0h.23v.23c0,22.35-.09,41-.12,54.1,0,6.51,0,11.63-.06,15.14,0,1.73,0,3.06,0,4,0,.44,0,.77,0,1S100.25,88.28,100.25,88.28Z" fill="#ffdab6"/><path d="M47.79,44.86S46.26,63.32,66.25,63.32C66.25,53.47,58.12,45.69,47.79,44.86Z" fill="#ffdab6"/><path d="M84.37,44.88S65.91,43.34,65.91,63.34C75.76,63.34,83.54,55.21,84.37,44.88Z" fill="#ffdab6"/><path d="M65.36,34.77s-15.08,13.54.83,28.55C73.59,55.49,73,43.19,65.36,34.77Z" fill="#ffdab6"/><polygon points="403.71 1.29 403.71 100.19 261.66 100.19 256.54 1.98 403.71 1.29" fill="#ffdab6"/><rect x="278.56" y="-20.04" width="98" height="142.05" transform="translate(276.58 378.55) rotate(-90)" fill="#fff"/><path d="M399.26,100.66H255.87V1.31H399.26Zm-142-1.35H397.92V2.66H257.21Z" fill="#ffdab6"/><rect x="271.93" y="14.16" width="111.28" height="73.65" fill="#fff"/><path d="M383.21,14.16l-.55,0-1.59,0-6.11,0L352,14.32l-80.1.16.32-.32c0,22.5,0,47.43,0,73.64h0l-.35-.35,111.27.07-.27.28c.06-22.41.11-40.79.14-53.59,0-6.39.06-11.39.07-14.82,0-1.69,0-3,0-3.89s0-1.35,0-1.35,0,.43,0,1.29,0,2.17,0,3.84c0,3.41,0,8.39.07,14.76,0,12.84.08,31.27.14,53.76v.28h-.29l-111.27.07h-.36v-.35h0c0-26.21,0-51.14,0-73.64v-.32h.33l80.31.16,22.86.08,6,0,1.54,0Z" fill="#ffdab6"/><path d="M256.54,1.71A11.57,11.57,0,0,1,259,3.29c1.46,1,3.44,2.54,5.57,4.25s4,3.33,5.34,4.54a12,12,0,0,1,2,2.08c-.14.15-3.55-2.67-7.82-6.08S256.42,1.87,256.54,1.71Z" fill="#ffdab6"/><path d="M398.59,2c.12.16-3.23,3-7.47,6.37s-7.79,6-7.91,5.81,3.22-3,7.47-6.36S398.47,1.83,398.59,2Z" fill="#ffdab6"/><path d="M398.48,100,382.64,87.16" fill="#ffdab6"/><path d="M382.64,87.16c.12-.15,3.77,2.6,8.14,6.15s7.82,6.54,7.7,6.69-3.77-2.6-8.14-6.15S382.52,87.31,382.64,87.16Z" fill="#ffdab6"/><path d="M256.54,100c-.12-.15,3.19-3,7.4-6.29s7.71-5.9,7.83-5.75-3.19,3-7.4,6.3S256.66,100.14,256.54,100Z" fill="#ffdab6"/><rect x="317.2" y="14.43" width="24.66" height="70.02" transform="translate(280.09 378.97) rotate(-90)" fill="#ffdab6"/><path d="M19.44,382S1.62,289.63,1.58,270.64c-.06-26.29,20.06-36.75,20.06-36.75l-7.82-22.3h43L50,233.73s22.65,12,19.49,39.27c-5.91,51-15.32,109-15.32,109Z" fill="#e8bb8e"/><path d="M60.46,244.36a2.46,2.46,0,0,1-.48,0,12.21,12.21,0,0,0-1.4-.06,13.55,13.55,0,0,0-5.22,1.14,18.44,18.44,0,0,0-6.7,5.12,31.7,31.7,0,0,0-3.08,4.34,36.62,36.62,0,0,0-2.7,5.31,15.84,15.84,0,0,0-1.26,6.34,9.86,9.86,0,0,0,2.55,6.34,7,7,0,0,0,3,1.91,6.06,6.06,0,0,0,3.67-.1A8.6,8.6,0,0,0,54,269.09a8.31,8.31,0,0,0-1.8-7.71,12.6,12.6,0,0,0-7.37-4.28A16.83,16.83,0,0,0,36,258.17a27.52,27.52,0,0,0-8,4.88,28.06,28.06,0,0,0-9.4,15.58,19.33,19.33,0,0,0,.17,8.7,12.82,12.82,0,0,0,4.24,7A7.36,7.36,0,0,0,26.55,296a5.48,5.48,0,0,0,3.67-.73A7.54,7.54,0,0,0,33.5,289a7.8,7.8,0,0,0-.68-3.43,8.7,8.7,0,0,0-2.06-2.7,11.94,11.94,0,0,0-5.8-2.7A16.66,16.66,0,0,0,14.12,282a19.56,19.56,0,0,0-6.39,5.51,18.31,18.31,0,0,0-2.59,4.71c-.43,1.15-.57,1.79-.61,1.78a12.18,12.18,0,0,1,.5-1.83,17.12,17.12,0,0,1,2.51-4.8A19.35,19.35,0,0,1,14,281.72a16.89,16.89,0,0,1,11.08-2,12.39,12.39,0,0,1,6,2.78,9.08,9.08,0,0,1,2.19,2.84A8.38,8.38,0,0,1,34,289a8.07,8.07,0,0,1-3.52,6.75,6,6,0,0,1-4,.82,7.92,7.92,0,0,1-3.84-1.74,13.46,13.46,0,0,1-4.46-7.33,19.94,19.94,0,0,1-.19-9,28.66,28.66,0,0,1,9.59-15.93,28.24,28.24,0,0,1,8.17-5A17.39,17.39,0,0,1,45,256.51a13.15,13.15,0,0,1,7.72,4.5,10.26,10.26,0,0,1,2,3.93,7.92,7.92,0,0,1-.11,4.32,9.16,9.16,0,0,1-5.53,5.91,6.48,6.48,0,0,1-4,.09,7.38,7.38,0,0,1-3.26-2.06,10.34,10.34,0,0,1-2.65-6.68A16.14,16.14,0,0,1,40.47,260a38.43,38.43,0,0,1,2.77-5.36,32.08,32.08,0,0,1,3.16-4.35,18.36,18.36,0,0,1,6.86-5.12,13.31,13.31,0,0,1,5.32-1.05A8.11,8.11,0,0,1,60.46,244.36Z" fill="#e0e0e0"/><path d="M61.58,314.1a15.75,15.75,0,0,1-.4,4.7,20.57,20.57,0,0,1-6.39,11,18.8,18.8,0,0,1-7.87,4.13,19.2,19.2,0,0,1-10.19-.15,17.84,17.84,0,0,1-9.18-6.47A17.11,17.11,0,0,1,24,315.82a8.51,8.51,0,0,1,2.54-5.66A6.17,6.17,0,0,1,32.44,309,7.35,7.35,0,0,1,37,312.64a8.28,8.28,0,0,1,.59,5.56,10.27,10.27,0,0,1-2.46,4.71A11.83,11.83,0,0,1,31,325.75a17.37,17.37,0,0,1-8.82,1.12,20.93,20.93,0,0,1-7-2.16,20.28,20.28,0,0,1-4.55-3.16,15.24,15.24,0,0,1-3-3.59,1.28,1.28,0,0,1,.21.23l.56.7a22.22,22.22,0,0,0,2.43,2.48,20.71,20.71,0,0,0,4.55,3,20.5,20.5,0,0,0,6.91,2,16.87,16.87,0,0,0,8.56-1.14,11.59,11.59,0,0,0,3.93-2.74A9.78,9.78,0,0,0,37,318.08a7.82,7.82,0,0,0-.57-5.18,6.77,6.77,0,0,0-4.18-3.32,5.57,5.57,0,0,0-5.29,1,7.89,7.89,0,0,0-2.34,5.26A16.59,16.59,0,0,0,28,327a17.34,17.34,0,0,0,8.86,6.29,18.79,18.79,0,0,0,9.91.19,18.25,18.25,0,0,0,7.7-4A19.92,19.92,0,0,0,59,323.85a20.8,20.8,0,0,0,2-5.11,24.1,24.1,0,0,0,.54-3.42c0-.37,0-.67,0-.91S61.56,314.1,61.58,314.1Z" fill="#e0e0e0"/><path d="M53.56,357.62c-.05.12-1.92-.89-5.18-1.83a26,26,0,0,0-2.69-.65c-1-.22-2-.33-3.14-.47a37.43,37.43,0,0,0-7.25,0,37.93,37.93,0,0,0-7.09,1.57c-1,.38-2.05.72-2.95,1.15a26.12,26.12,0,0,0-2.48,1.22c-3,1.64-4.57,3-4.65,2.93a6.38,6.38,0,0,1,1.1-1,14.11,14.11,0,0,1,1.39-1.06,21.3,21.3,0,0,1,1.94-1.25,23,23,0,0,1,2.49-1.3c.9-.46,1.92-.82,3-1.23a35.57,35.57,0,0,1,7.2-1.64,36.42,36.42,0,0,1,7.39,0,30.71,30.71,0,0,1,3.17.54,23.12,23.12,0,0,1,2.72.73,20.33,20.33,0,0,1,2.17.79,12.26,12.26,0,0,1,1.59.73A6.35,6.35,0,0,1,53.56,357.62Z" fill="#e0e0e0"/><path d="M50.56,235.05a9.43,9.43,0,0,1-1.42,1c-.93.62-2.33,1.44-4.1,2.38a70.79,70.79,0,0,1-30,8c-2,.07-3.62.06-4.74,0a8.12,8.12,0,0,1-1.73-.15,10.14,10.14,0,0,1,1.74-.09c1.11,0,2.72-.06,4.7-.19a80.57,80.57,0,0,0,15.3-2.51A80.07,80.07,0,0,0,44.84,238c1.79-.88,3.21-1.64,4.18-2.19A9.33,9.33,0,0,1,50.56,235.05Z" fill="#e0e0e0"/><path d="M56,212.65c0,.06-1.06-.1-3-.1a25,25,0,0,0-15.47,5.33,13.27,13.27,0,0,0-2.31,2.25,6.72,6.72,0,0,0-1.42,3,3.44,3.44,0,0,0,1,3.06,7.48,7.48,0,0,0,3.18,1.6,8,8,0,0,0,3.65.42,2.76,2.76,0,0,0,2-2.6,6.51,6.51,0,0,0-.72-3.47,11,11,0,0,0-4.8-4.82,14,14,0,0,0-6-1.63,16.61,16.61,0,0,0-5.43.8,25,25,0,0,0-7.09,3.73c-.76.57-1.34,1-1.73,1.36a2.74,2.74,0,0,1-.61.46,5.33,5.33,0,0,1,.53-.56c.37-.35.92-.84,1.67-1.45a23.69,23.69,0,0,1,7.09-3.95,16.79,16.79,0,0,1,5.58-.9,14.4,14.4,0,0,1,6.28,1.64,11.48,11.48,0,0,1,5.07,5.06,7,7,0,0,1,.79,3.79,4.16,4.16,0,0,1-.68,1.94,3,3,0,0,1-1.74,1.2,8.4,8.4,0,0,1-4-.43,7.77,7.77,0,0,1-3.44-1.77A4,4,0,0,1,33.23,223a7.32,7.32,0,0,1,1.55-3.23,13,13,0,0,1,2.43-2.32,23.54,23.54,0,0,1,2.61-1.77A25,25,0,0,1,45,213.42,24.12,24.12,0,0,1,53,212.31a16,16,0,0,1,2.2.19A4,4,0,0,1,56,212.65Z" fill="#e0e0e0"/><path d="M441.24,380.57c0,.14-98.79.26-220.61.26S0,380.71,0,380.57s98.76-.26,220.63-.26S441.24,380.43,441.24,380.57Z" fill="#263238"/><path d="M377.19,294c-.09.11-.84-.34-1.68-1s-1.44-1.31-1.35-1.42.84.34,1.68,1S377.28,293.89,377.19,294Z" fill="#dda15e"/><path d="M400,259.93c.13-3.19.22-6.45-.78-9.48s-3.34-5.8-6.46-6.45c-3.56-.74-7.21,1.51-9.21,4.55s-2.68,6.74-3.27,10.32a365,365,0,0,0-4.47,74.93l14.58,2C396.78,309.69,398.82,286.83,400,259.93Z" fill="#dda15e"/><path d="M390.73,243.89a1.05,1.05,0,0,1-.07.23q-.09.27-.24.66l-1,2.52c-.2.55-.47,1.14-.69,1.82s-.46,1.42-.71,2.21-.53,1.64-.82,2.53-.48,1.88-.75,2.89a126,126,0,0,0-2.81,14.43c-.79,5.48-1.31,11.55-1.72,17.93-.74,12.77-.86,24.36-1.19,32.74-.15,4.19-.3,7.58-.46,9.93-.07,1.13-.13,2-.18,2.69,0,.28,0,.51-.06.7a.92.92,0,0,1,0,.24.87.87,0,0,1,0-.24c0-.19,0-.42,0-.71,0-.66.05-1.56.08-2.69.1-2.35.19-5.74.3-9.93.23-8.38.29-20,1-32.76.41-6.39.94-12.48,1.76-18a119.81,119.81,0,0,1,2.94-14.45c.27-1,.54-2,.79-2.89s.59-1.74.85-2.53.52-1.52.76-2.2.51-1.27.73-1.81l1.06-2.49.29-.64C390.68,244,390.72,243.88,390.73,243.89Z" fill="#e5ae77"/><path d="M392.08,243.9a10.39,10.39,0,0,1,1.78,3,22.32,22.32,0,0,1,1.33,9.43c-.39,8.05-1.11,19.15-2.07,31.4s-2,23.34-2.89,31.34c-.43,4-.8,7.25-1.08,9.48-.14,1.08-.25,1.94-.33,2.57l-.1.67a.65.65,0,0,1-.05.23.68.68,0,0,1,0-.23c0-.19,0-.41.05-.68,0-.63.13-1.49.23-2.58l.91-9.49c.77-8,1.78-19.1,2.74-31.35s1.74-23.34,2.22-31.37a22.68,22.68,0,0,0-1.15-9.34A20.46,20.46,0,0,0,392.08,243.9Z" fill="#e5ae77"/><path d="M402.18,281.62a16,16,0,0,1-5.35-1.92,15.24,15.24,0,0,1,5.35,1.92Z" fill="#e5ae77"/><path d="M403.94,266.76a8.65,8.65,0,0,1-2.63,1.47,8.93,8.93,0,0,1-2.84,1,9,9,0,0,1,2.63-1.46A8.82,8.82,0,0,1,403.94,266.76Z" fill="#e5ae77"/><path d="M403,254.64a4.79,4.79,0,0,1-2.17.11c-1.2-.08-2.15-.26-2.14-.41a4.79,4.79,0,0,1,2.17-.11A4.73,4.73,0,0,1,403,254.64Z" fill="#e5ae77"/><path d="M388,246.87c-.12.08-.76-.72-1.43-1.77a5.21,5.21,0,0,1-1-2.06c.12-.07.76.72,1.42,1.78A5.21,5.21,0,0,1,388,246.87Z" fill="#e5ae77"/><path d="M383,254.2c0,.15-.93.24-2.07.22a4.36,4.36,0,0,1-2.06-.3c0-.15.93-.25,2.07-.22A4.36,4.36,0,0,1,383,254.2Z" fill="#e5ae77"/><path d="M379.45,268.87a5,5,0,0,1-2.18-.6c-1.15-.46-2-.94-2-1.08a5.22,5.22,0,0,1,2.18.6C378.61,268.25,379.5,268.74,379.45,268.87Z" fill="#e5ae77"/><path d="M379.07,281.21c0,.14-.8.43-1.86.65s-1.93.29-2,.15.8-.44,1.86-.66S379,281.07,379.07,281.21Z" fill="#e5ae77"/><path d="M377.39,301.38c0,.15-.86.42-2,.62a4.3,4.3,0,0,1-2.06.11c0-.14.86-.42,2-.62A4.3,4.3,0,0,1,377.39,301.38Z" fill="#e5ae77"/><path d="M376.27,312.52c.07.13-.66.65-1.64,1.17s-1.82.83-1.88.7.66-.65,1.64-1.16S376.21,312.4,376.27,312.52Z" fill="#e5ae77"/><path d="M385.37,325.16c-.13.08-.77-.81-1.43-2a5.7,5.7,0,0,1-1-2.23c.12-.07.76.81,1.43,2A5.88,5.88,0,0,1,385.37,325.16Z" fill="#e5ae77"/><path d="M388,304.16c.1.1-.61,1-1.59,1.92s-1.86,1.66-2,1.56.61-1,1.59-1.93S387.89,304.05,388,304.16Z" fill="#e5ae77"/><path d="M387.41,293.13c-.1.1-.77-.44-1.48-1.21s-1.2-1.47-1.09-1.57.76.45,1.48,1.22S387.52,293,387.41,293.13Z" fill="#e5ae77"/><path d="M389.22,279.05c.1.09-.49.93-1.33,1.87s-1.61,1.62-1.72,1.53.49-.94,1.33-1.88S389.11,279,389.22,279.05Z" fill="#e5ae77"/><path d="M390.23,268.83c-.1.1-.93-.55-1.85-1.46s-1.59-1.73-1.49-1.83.93.55,1.85,1.46S390.33,268.72,390.23,268.83Z" fill="#e5ae77"/><path d="M392.23,255a5.31,5.31,0,0,1-.93,2.07c-.64,1.07-1.26,1.87-1.38,1.8a5.14,5.14,0,0,1,.93-2.07C391.49,255.74,392.1,254.94,392.23,255Z" fill="#e5ae77"/><path d="M396,242.2c.13.07-.24,1-.82,2.07s-1.16,1.9-1.28,1.83.24-1,.82-2.07S395.85,242.14,396,242.2Z" fill="#e5ae77"/><path d="M400.24,248c.06.13-.52.54-1.3.91s-1.47.57-1.53.44.52-.53,1.3-.91S400.18,247.89,400.24,248Z" fill="#e5ae77"/><path d="M400.34,294a8.88,8.88,0,0,1-5.32-2.27,13.82,13.82,0,0,1,2.68,1.1A13.42,13.42,0,0,1,400.34,294Z" fill="#e5ae77"/><path d="M398.6,303.75c0,.14-.85.43-2,.64a4.31,4.31,0,0,1-2.06.13c0-.14.85-.43,2-.64A4.17,4.17,0,0,1,398.6,303.75Z" fill="#e5ae77"/><path d="M396.46,320.45a5.7,5.7,0,0,1-2.22-1.95,5.77,5.77,0,0,1-1.39-2.61,16.84,16.84,0,0,1,1.8,2.29A16.18,16.18,0,0,1,396.46,320.45Z" fill="#e5ae77"/><path d="M373,328.08c-.09-.1.5-.76,1.33-1.47s1.56-1.19,1.66-1.08-.5.77-1.32,1.48S373.13,328.19,373,328.08Z" fill="#e5ae77"/><path d="M366.3,291.63c-.95-3-2.73-6.41-5.84-6.46a5.19,5.19,0,0,0-4.37,2.93,10.71,10.71,0,0,0-1.18,5.36,139.33,139.33,0,0,0,6.68,38.82H373A135.4,135.4,0,0,0,366.3,291.63Z" fill="#dda15e"/><path d="M345.72,273c-1.59-6.36-6.34-9.8-11.85-10.12-5,.88-7,5.83-7.58,10.91s1,10.12,2.54,15q7.49,23.43,15,46.85L358,334.07C353.48,313.14,350.91,293.75,345.72,273Z" fill="#dda15e"/><path d="M360.46,285.17a12.34,12.34,0,0,0-1,1.61,10.65,10.65,0,0,0-.54,5c.22,2.16.47,4.76.83,7.62s.89,6,1.53,9.26c1.29,6.54,2.74,12.4,3.66,16.68.46,2.13.81,3.87,1,5.07.09.56.17,1,.23,1.39a1.65,1.65,0,0,1,.05.49,1.55,1.55,0,0,1-.15-.47c-.09-.37-.2-.82-.33-1.37-.3-1.26-.71-3-1.2-5-1-4.25-2.52-10.1-3.81-16.66-.64-3.28-1.15-6.43-1.49-9.3-.18-1.44-.3-2.81-.42-4.09s-.24-2.47-.3-3.57a10.27,10.27,0,0,1,.71-5.14A4.66,4.66,0,0,1,360.46,285.17Z" fill="#f7cda4"/><path d="M334.08,262.47a18.16,18.16,0,0,0-1.71,2.3,16.1,16.1,0,0,0-2.16,7.4,34.49,34.49,0,0,0,1.75,11.4c1.25,4.22,2.61,8.84,4,13.69,2.83,9.71,5.38,18.49,7.25,24.91l2.14,7.56.55,2.07a3,3,0,0,1,.16.73,7.27,7.27,0,0,1-.26-.7c-.16-.52-.38-1.19-.65-2-.56-1.83-1.34-4.38-2.29-7.52-1.91-6.41-4.52-15.17-7.4-24.86l-4-13.71a34.12,34.12,0,0,1-1.66-11.55,15.94,15.94,0,0,1,2.35-7.49A8.77,8.77,0,0,1,334.08,262.47Z" fill="#f7cda4"/><path d="M354.88,332.55a3.11,3.11,0,0,1-.32-.67c-.19-.46-.49-1.12-.81-2-.68-1.74-1.54-4.3-2.44-7.51s-1.78-7.1-2.63-11.42S347,301.86,346,296.87s-2.08-9.7-3.35-13.91a78.21,78.21,0,0,0-4.13-10.91,57.22,57.22,0,0,0-3.82-6.88c-.48-.79-.93-1.36-1.19-1.78a4.79,4.79,0,0,1-.4-.64,3.69,3.69,0,0,1,.48.58c.3.39.77.95,1.28,1.73a51.18,51.18,0,0,1,4,6.83,73.32,73.32,0,0,1,4.26,10.93,141.82,141.82,0,0,1,3.4,13.94c.93,5,1.82,9.76,2.63,14.1s1.67,8.19,2.52,11.41,1.65,5.79,2.27,7.54c.29.89.56,1.56.71,2A4.76,4.76,0,0,1,354.88,332.55Z" fill="#f7cda4"/><path d="M329.08,286.42c0,.14-.74.45-1.72.69s-1.81.32-1.84.18.73-.45,1.72-.69S329.05,286.28,329.08,286.42Z" fill="#f7cda4"/><path d="M327.58,276.76a6.81,6.81,0,0,1-2.39.26,7.15,7.15,0,0,1-2.4-.07,8.26,8.26,0,0,1,4.79-.19Z" fill="#f7cda4"/><path d="M329.17,267.94c-.09.11-.86-.39-1.71-1.12s-1.48-1.4-1.38-1.51.86.39,1.71,1.11S329.27,267.83,329.17,267.94Z" fill="#f7cda4"/><path d="M333.49,259.77c.15,0,.11.72.09,1.55s0,1.52-.18,1.54-.37-.67-.35-1.56S333.36,259.73,333.49,259.77Z" fill="#f7cda4"/><path d="M342.32,263.62c.12.08-.23.78-.77,1.55s-1.09,1.34-1.2,1.26.22-.78.77-1.56S342.2,263.53,342.32,263.62Z" fill="#f7cda4"/><path d="M348.05,273.56c.05.14-.68.56-1.64.95s-1.78.6-1.84.47.68-.56,1.64-1S348,273.43,348.05,273.56Z" fill="#f7cda4"/><path d="M351.52,283.8a4.23,4.23,0,0,1-2.24,1,4.35,4.35,0,0,1-2.45.09,9.22,9.22,0,0,1,2.33-.6A9.4,9.4,0,0,1,351.52,283.8Z" fill="#f7cda4"/><path d="M335.57,280.89c-.14,0,0-.75.22-1.58s.58-1.46.72-1.42,0,.75-.22,1.58S335.7,280.94,335.57,280.89Z" fill="#f7cda4"/><path d="M337.79,293.75a5,5,0,0,1,.64-2.13c.49-1.12,1-2,1.12-1.92a4.84,4.84,0,0,1-.64,2.12C338.43,292.94,337.93,293.8,337.79,293.75Z" fill="#f7cda4"/><path d="M332.3,297.26c-.06.14-1-.11-2-.44s-2-.66-1.93-.8,1,0,2.08.3S332.35,297.13,332.3,297.26Z" fill="#f7cda4"/><path d="M335.47,307.74c.08.12-.53.7-1.36,1.29s-1.57,1-1.66.86.53-.69,1.36-1.29S335.38,307.63,335.47,307.74Z" fill="#f7cda4"/><path d="M338,318.19c0,.14-.72.44-1.68.68s-1.76.3-1.8.16.72-.44,1.68-.67S338,318.05,338,318.19Z" fill="#f7cda4"/><path d="M351.8,292.53c.07.12-.57.63-1.5,1s-1.76.39-1.78.26.71-.41,1.59-.75S351.73,292.4,351.8,292.53Z" fill="#f7cda4"/><path d="M353.77,308.78c-.06.13-.83-.1-1.71-.51s-1.54-.86-1.48-1,.82.1,1.71.52S353.83,308.65,353.77,308.78Z" fill="#f7cda4"/><path d="M357.25,320.41a5.19,5.19,0,0,1-2.25-.6,5.49,5.49,0,0,1-2.07-1.09,5.61,5.61,0,0,1,2.26.6A5.5,5.5,0,0,1,357.25,320.41Z" fill="#f7cda4"/><path d="M338.56,329.52c-.07-.13.86-.75,1.93-1.6s1.91-1.59,2-1.49-.58,1-1.69,1.9A4.57,4.57,0,0,1,338.56,329.52Z" fill="#f7cda4"/><path d="M347.76,323.61c-.15,0-.35-.76-.7-1.67s-.73-1.63-.61-1.71.72.54,1.09,1.52S347.9,323.6,347.76,323.61Z" fill="#f7cda4"/><path d="M345.32,309.62c-.08.12-.68-.16-1.32-.63s-1.11-.94-1-1.05.68.16,1.33.63S345.41,309.51,345.32,309.62Z" fill="#f7cda4"/><path d="M366.76,287.7c.08.12-.49.69-1.29,1.28s-1.52,1-1.6.86.49-.69,1.29-1.28S366.67,287.59,366.76,287.7Z" fill="#f7cda4"/><path d="M370,296.53c0,.14-.89.33-2,.21s-2-.5-1.93-.63.92,0,2,.11A6,6,0,0,1,370,296.53Z" fill="#f7cda4"/><path d="M356.1,298.51c0,.14-.8.44-1.89.51s-1.95-.11-1.94-.25.87-.2,1.91-.27S356.07,298.37,356.1,298.51Z" fill="#f7cda4"/><path d="M357.3,290.16c0,.14-.86.16-1.79-.26s-1.46-1.09-1.37-1.18.74.32,1.59.7S357.31,290,357.3,290.16Z" fill="#f7cda4"/><path d="M371.18,306c-.07.12-.94-.29-1.94-.92s-1.73-1.23-1.66-1.35.95.29,1.94.91S371.26,305.89,371.18,306Z" fill="#f7cda4"/><rect x="330.98" y="330.8" width="74.09" height="13.13" fill="#ce8032"/><polygon points="336.51 341.33 345.52 380.57 389.68 380.57 399.53 341.33 336.51 341.33" fill="#ce8032"/><path d="M405,344c0,.14-16.72.26-37.33.26s-37.32-.12-37.32-.26,16.71-.26,37.32-.26S405,343.81,405,344Z" fill="#263238"/><path d="M363.82,298.8c-.12.08-.63-.51-1.13-1.32s-.81-1.51-.69-1.59.63.51,1.13,1.32S363.94,298.73,363.82,298.8Z" fill="#f7cda4"/><path d="M363.85,309.37c-.14-.05,0-.94.39-2s.74-1.87.88-1.83,0,.94-.39,2S364,309.41,363.85,309.37Z" fill="#f7cda4"/><path d="M367.47,320.46c-.13.06-.69-.83-1.24-2a5.52,5.52,0,0,1-.77-2.21c.13-.06.69.83,1.24,2A5.52,5.52,0,0,1,367.47,320.46Z" fill="#f7cda4"/><path d="M359.64,329.38c-.11-.09.33-.78,1-1.53s1.27-1.29,1.38-1.2-.33.79-1,1.54S359.75,329.48,359.64,329.38Z" fill="#f7cda4"/><path d="M358,313.18c0,.14-.74.13-1.59,0s-1.53-.38-1.51-.53.74-.13,1.6,0S358,313,358,313.18Z" fill="#f7cda4"/><path d="M259,367.38l24.68,22.54s31.4-17.54,36.18-13.81l-42,47.45L239.58,390Z" fill="#b5713e"/><path d="M269.23,401.74a2.58,2.58,0,0,0,1,3.29,2.48,2.48,0,0,0,3.28-1,2.72,2.72,0,0,0-1.11-3.48c-1.18-.48-3,.17-3.29,1.41" fill="#e0e0e0"/><path d="M277.89,423.57,274.16,420l41.63-44.18s2.78-1.3,4.06.26Z" fill="#263238"/><path d="M284.7,388.73c.23.22-.69,1.47-.95,3.27s.17,3.26-.11,3.4-1.31-1.4-1-3.57S284.53,388.5,284.7,388.73Z" fill="#263238"/><path d="M291.16,384.74c.27.15-.22,1.5.06,3.15s1.12,2.8.91,3-1.65-.79-2-2.85S290.94,384.55,291.16,384.74Z" fill="#263238"/><path d="M299.62,387.18c-.14.26-1.58-.45-2.32-2.16s-.29-3.25,0-3.18.36,1.35,1,2.75S299.8,386.93,299.62,387.18Z" fill="#263238"/><path d="M228.8,391.54c-1.81-1.5-4.26-1.94-6.58-2.33,1.76-12.61-7.05-24.14-16.19-33-11.49-11.15-24.74-21.05-40.12-25.48-13.89-4-28.65-3.31-43.09-2.58l-59.22,3c-20.2,7.07-37.23,28-40.77,49.13a6.93,6.93,0,0,0-10,1.1,7.4,7.4,0,0,0,2.17,10,7.93,7.93,0,0,0,10.23-2.11,128.31,128.31,0,0,0,90.16,13.93c9.52-2.08,18.78-5.24,28.35-7.07a209.89,209.89,0,0,1,21.52-2.59l40.68-3.46,15.9,7.58c2.65,1.26,6.25,2.35,8.14.11C231.46,396,230.61,393.05,228.8,391.54Z" fill="#dda15e"/><path d="M182.14,384.39a2,2,0,0,1-.39.06l-1.14.14-4.4.46c-1.91.25-4.24.58-6.94,1s-5.76.94-9.12,1.63c-6.75,1.29-14.73,3.12-23.59,5.13s-18.65,4.12-29.07,5.49a125.47,125.47,0,0,1-29.56.49,133.77,133.77,0,0,1-23.6-5.16c-6.57-2-11.78-4-15.36-5.42-1.79-.7-3.18-1.26-4.11-1.65l-1.06-.45a1.33,1.33,0,0,1-.35-.17,1.8,1.8,0,0,1,.37.12l1.08.4L39,388c3.6,1.34,8.83,3.26,15.4,5.26a136.65,136.65,0,0,0,23.54,5,125.65,125.65,0,0,0,29.44-.53c10.39-1.36,20.16-3.48,29-5.44s16.86-3.78,23.63-5c3.37-.67,6.45-1.11,9.15-1.55s5-.67,7-.88l4.42-.37,1.15-.08A1.64,1.64,0,0,1,182.14,384.39Z" fill="#263238"/><path d="M80.78,405.5c-.06,0-.35-.32-.57-1a4.68,4.68,0,0,1,1.56-5.05c.57-.44,1-.56,1-.51s-.32.31-.78.78a5.47,5.47,0,0,0-1.31,2.17,5.3,5.3,0,0,0-.14,2.52C80.69,405.07,80.85,405.46,80.78,405.5Z" fill="#263238"/><path d="M75.72,402.79a2.86,2.86,0,0,1,.08-2.63c.61-1.43,1.83-2,1.87-1.85s-.86.8-1.39,2.06A13.88,13.88,0,0,0,75.72,402.79Z" fill="#263238"/><path d="M58.72,361.19c.1.05-.86,1.79-1.85,4.8-.24.76-.5,1.58-.7,2.5s-.41,1.88-.6,2.91A36.43,36.43,0,0,0,56,384.94c.25,1,.46,2,.76,2.87s.57,1.71.85,2.45c1.16,2.95,2.21,4.63,2.12,4.69a7.3,7.3,0,0,1-.76-1.16,13.48,13.48,0,0,1-.79-1.43c-.28-.58-.63-1.21-.91-2s-.64-1.56-.92-2.46-.55-1.87-.82-2.9a34.71,34.71,0,0,1-.39-13.72c.2-1,.38-2,.65-2.94s.51-1.75.77-2.51.56-1.42.8-2a14.89,14.89,0,0,1,.7-1.47A6.21,6.21,0,0,1,58.72,361.19Z" fill="#263238"/><path d="M81.45,358.3a17.31,17.31,0,0,0-4.53,2.13,17.65,17.65,0,0,0-3.39,3.69,3.07,3.07,0,0,1,.59-1.4A9.51,9.51,0,0,1,76.61,360a9.38,9.38,0,0,1,3.33-1.57A3.15,3.15,0,0,1,81.45,358.3Z" fill="#263238"/><path d="M84.39,383A3.91,3.91,0,0,1,84,382a7.83,7.83,0,0,1-.4-1.12,10.91,10.91,0,0,1-.42-1.52,20,20,0,0,1-.5-4.06,23.47,23.47,0,0,1,.46-5,23.83,23.83,0,0,1,1.59-4.77,20.69,20.69,0,0,1,2.1-3.52,12.37,12.37,0,0,1,1-1.22,7.74,7.74,0,0,1,.82-.86,3.79,3.79,0,0,1,.77-.66c.07.08-1,1.06-2.28,2.95a23.63,23.63,0,0,0-2,3.51,23.43,23.43,0,0,0-2,9.57,23.76,23.76,0,0,0,.39,4C83.92,381.59,84.49,382.91,84.39,383Z" fill="#263238"/><path d="M25.31,379c.15-.05.69,1.26,1.76,2.6s2.21,2.19,2.13,2.32a5.34,5.34,0,0,1-2.54-2A5.27,5.27,0,0,1,25.31,379Z" fill="#263238"/><path d="M162.89,393.62c0-.08.42-.24,1-.72a3.69,3.69,0,0,0,.65-5c-.42-.6-.81-.88-.76-.95s.51.12,1.05.72a3.73,3.73,0,0,1-.72,5.56C163.42,393.64,162.9,393.68,162.89,393.62Z" fill="#263238"/><path d="M172.07,391.89a15.1,15.1,0,0,0-.42-2.82,14.92,14.92,0,0,0-1.39-2.49,4.33,4.33,0,0,1,1.81,5.31Z" fill="#263238"/><path d="M153.66,347.24a11.45,11.45,0,0,1,1.08,1.34,12.38,12.38,0,0,1,1.14,1.66,24.09,24.09,0,0,1,1.35,2.31l.71,1.38c.24.49.44,1,.67,1.55.49,1.07.85,2.26,1.27,3.5a41.07,41.07,0,0,1,1.52,8.39,40.57,40.57,0,0,1-.38,8.52,34.62,34.62,0,0,1-.78,3.64c-.16.56-.28,1.11-.45,1.62s-.36,1-.52,1.47a24.47,24.47,0,0,1-1,2.47,15.66,15.66,0,0,1-.91,1.8,10.63,10.63,0,0,1-.89,1.47c-.11-.06,1.19-2.15,2.47-5.86q.22-.71.48-1.47c.16-.51.27-1,.42-1.61.32-1.11.5-2.33.73-3.61a43.22,43.22,0,0,0,.34-8.41,44,44,0,0,0-1.47-8.28c-.4-1.23-.75-2.42-1.21-3.47-.22-.54-.4-1.06-.63-1.55l-.68-1.38C155.13,349.21,153.56,347.31,153.66,347.24Z" fill="#263238"/><path d="M38.2,387.6c0,.08-.33.31-.79.79a5.41,5.41,0,0,0-1.26,2.22,5.34,5.34,0,0,0-.09,2.55c.13.65.32,1,.25,1.08s-.36-.3-.61-1a4.81,4.81,0,0,1,1.46-5.14C37.73,387.67,38.18,387.55,38.2,387.6Z" fill="#fff"/><path d="M53.67,336a2.31,2.31,0,0,1-.38.43l-1.14,1.13c-.51.48-1.12,1.08-1.78,1.82s-1.47,1.54-2.24,2.52l-1.24,1.52c-.43.52-.83,1.11-1.27,1.7-.9,1.16-1.72,2.5-2.62,3.88a66.45,66.45,0,0,0-4.79,9.59,65.08,65.08,0,0,0-3,10.28c-.29,1.63-.6,3.17-.73,4.63-.08.73-.19,1.43-.24,2.11s-.08,1.33-.11,2c-.11,1.24-.07,2.37-.08,3.37a24.62,24.62,0,0,0,.06,2.54c0,.65,0,1.19.06,1.61a2.28,2.28,0,0,1,0,.57,2.11,2.11,0,0,1-.09-.56c0-.42-.1-1-.17-1.61s-.14-1.55-.15-2.55-.08-2.13,0-3.39c0-.63,0-1.29.08-2s.14-1.39.21-2.13c.12-1.47.41-3,.69-4.67a58.18,58.18,0,0,1,7.87-20c.92-1.39,1.76-2.72,2.68-3.88.45-.59.86-1.18,1.3-1.7s.87-1,1.28-1.51c.79-1,1.62-1.76,2.31-2.48A23.75,23.75,0,0,1,52,337.41l1.21-1.06A2.64,2.64,0,0,1,53.67,336Z" fill="#fff"/><path d="M89.4,330.1a5.36,5.36,0,0,1-.66.4c-.43.26-1.11.57-1.91,1.09a39.52,39.52,0,0,0-6.46,4.85,45.13,45.13,0,0,0-7.62,9.21A52.44,52.44,0,0,0,66.81,359a73,73,0,0,0-2,26.49c.33,3.41.74,6.15,1.06,8,.16.91.28,1.63.37,2.18a4.35,4.35,0,0,1,.1.76,3.41,3.41,0,0,1-.2-.74c-.11-.5-.29-1.22-.47-2.16-.38-1.88-.85-4.63-1.23-8a80.65,80.65,0,0,1-.43-12.06,63.67,63.67,0,0,1,2.25-14.61,51.88,51.88,0,0,1,6-13.48,44.25,44.25,0,0,1,7.77-9.23,36.62,36.62,0,0,1,6.61-4.75c.82-.5,1.52-.78,2-1A3.81,3.81,0,0,1,89.4,330.1Z" fill="#fff"/><path d="M55.16,393.88c.06.07-.28.41-.66,1.06a6.24,6.24,0,0,0-.29,5.64c.31.69.62,1.06.55,1.12s-.45-.26-.88-.95a5.55,5.55,0,0,1-.72-3.05,5.46,5.46,0,0,1,1-3C54.68,394.09,55.13,393.84,55.16,393.88Z" fill="#fff"/><path d="M95.87,405.85c0,.06-.5.08-1.21-.24a4,4,0,0,1-2-2.22,4,4,0,0,1,.12-3c.33-.71.72-1,.76-1s-.21.43-.42,1.11a4.19,4.19,0,0,0,0,2.69,4.24,4.24,0,0,0,1.71,2.06C95.44,405.66,95.89,405.77,95.87,405.85Z" fill="#fff"/><path d="M114.37,327.84c.14,0-.66,15.56-1.78,34.74s-2.15,34.72-2.3,34.71.65-15.56,1.78-34.74S114.22,327.83,114.37,327.84Z" fill="#fff"/><path d="M134.6,398.49c-.15,0-.22-1.31-.78-2.79s-1.34-2.52-1.22-2.62a4.44,4.44,0,0,1,1.71,2.44A4.51,4.51,0,0,1,134.6,398.49Z" fill="#fff"/><path d="M138.36,329.7a2.87,2.87,0,0,1,.53.39c.33.27.85.65,1.45,1.21a44.63,44.63,0,0,1,4.83,5,48.75,48.75,0,0,1,9.93,43.12A45.25,45.25,0,0,1,153,386c-.3.77-.6,1.33-.77,1.72a5.16,5.16,0,0,1-.31.59,2.39,2.39,0,0,1,.21-.63c.15-.4.41-1,.68-1.75a53.5,53.5,0,0,0,2-6.61,49.62,49.62,0,0,0-9.87-42.81,51.44,51.44,0,0,0-4.68-5.07c-.58-.58-1.07-1-1.38-1.28A4.24,4.24,0,0,1,138.36,329.7Z" fill="#fff"/><path d="M183.25,391.93a36.52,36.52,0,0,0-1.47-4,36.58,36.58,0,0,0-2.38-3.51,9.11,9.11,0,0,1,3.85,7.48Z" fill="#fff"/><path d="M203.29,379.64a3,3,0,0,1,1.25,1,7.13,7.13,0,0,1,1.62,3.45,7,7,0,0,1-.38,3.79c-.39.91-.82,1.36-.86,1.32s.24-.55.51-1.44a8,8,0,0,0,.22-3.58,7.78,7.78,0,0,0-1.4-3.3C203.7,380.09,203.24,379.71,203.29,379.64Z" fill="#fff"/><path d="M190.68,344.11a7.65,7.65,0,0,1,.52,1.32c.31.86.7,2.13,1.13,3.7a69.77,69.77,0,0,1,2,25.35c-.18,1.63-.37,2.94-.55,3.84a8.46,8.46,0,0,1-.31,1.38,7.38,7.38,0,0,1,.11-1.41c.11-.91.25-2.22.38-3.84a79.16,79.16,0,0,0-2-25.23c-.39-1.58-.72-2.85-1-3.73A6.48,6.48,0,0,1,190.68,344.11Z" fill="#fff"/><g opacity="0.3"><path d="M193.42,339.76C155.36,313.54,95.87,314.59,55.25,335c-.93,12.18,7.49,24.44,19.19,27.95,9,2.69,19.36.78,27.25,5.81,4.91,3.13,8.29,8.67,13.82,10.46s11.29-.64,15.86-4,8.42-7.65,13.26-10.58c11.72-7.1,26.52-4.87,40.19-4,6.71.43,15.36-.91,16.88-7.46C203,347.76,198,343,193.42,339.76Z"/></g><path d="M190.4,239.41l6,25L208.24,276l-19.37,4s-13.68-1.63-16.16-5-6-30.27-6-30.27Z" fill="#dda15e"/><path d="M145.68,167.69l20.07,7.11.78,95s-28.63,25-30.36,24.78-71.14,21.78-73,25.86c0,0-8.58-1.32-8.58-6.4,0-8.37,8-13.11,8-13.11,1.27-9.38,9.24-20.33,9.24-20.88,0-3.9-3.67-28.37-3.67-28.37s-.38-61.4,11.88-74.33C95.31,161.24,145.68,167.69,145.68,167.69Z" fill="#e8b8b5"/><path d="M196.37,237.69S179,175,164.15,174.51l1.62,74.88S192.28,244.83,196.37,237.69Z" fill="#e8b8b5"/><path d="M230.29,243.15l3.84-5.58a1.65,1.65,0,0,1,.43-.48,1.49,1.49,0,0,1,.8-.17,11.09,11.09,0,0,1,4.92,1.66l4.07,2.15a1.4,1.4,0,0,1,.32.22.81.81,0,0,1-.19,1.11,2.42,2.42,0,0,1-1.18.38q-6.13.76-12.31,1c-.27,0-.61,0-.7-.28" fill="#dda15e"/><path d="M254.82,243.44l-27.23,27.41-58.81,13.39L185,252.62a8,8,0,0,1,6.08-4.33c11.95-1.61,46.36-6.3,61.65-8.84A2.39,2.39,0,0,1,254.82,243.44Z" fill="#e0e0e0"/><path d="M254.82,243.44s.12-.14.29-.45a2.21,2.21,0,0,0,.28-1.51,2.36,2.36,0,0,0-1.53-1.85,2.67,2.67,0,0,0-1.59,0l-1.86.31c-5.25.88-12.87,2-22.29,3.42S207.47,246.29,195,248c-1.54.23-3.17.39-4.7.69a7.83,7.83,0,0,0-4,2.4,8.72,8.72,0,0,0-1.31,2l-1.14,2.23-2.32,4.54c-3.11,6.1-6.34,12.41-9.65,18.88-1,1.89-1.92,3.76-2.86,5.6l-.29-.37,58.83-13.33-.1,0,19.94-19.95,5.48-5.44,1.44-1.41.51-.47s-.15.18-.47.51L253,245.4l-5.41,5.52L227.74,271l0,.05h-.06l-58.8,13.45-.55.12.26-.5c.94-1.83,1.89-3.71,2.86-5.6l9.66-18.88,2.32-4.53,1.14-2.23a9.52,9.52,0,0,1,1.39-2.13,8.3,8.3,0,0,1,4.25-2.55c1.64-.31,3.19-.45,4.76-.68L228.07,243c9.42-1.32,17.05-2.43,22.31-3.25l1.86-.29a3,3,0,0,1,1.67,0,2.46,2.46,0,0,1,1.58,2,2.29,2.29,0,0,1-.67,2Z" fill="#263238"/><path d="M210.58,262.32c.16,1.24,2,2,4,1.76s3.61-1.5,3.44-2.74-2-2-4-1.76S210.42,261.08,210.58,262.32Z" fill="#fff"/><path d="M213.81,264.16c-1.72,0-3.11-.75-3.25-1.84h0a2,2,0,0,1,.89-1.76,5.35,5.35,0,0,1,2.57-1,5.21,5.21,0,0,1,2.74.32,1.74,1.74,0,0,1,.42,3.22,5.22,5.22,0,0,1-2.56,1A5.73,5.73,0,0,1,213.81,264.16Zm1-4.61a7.65,7.65,0,0,0-.81.05,5.27,5.27,0,0,0-2.54,1,1.94,1.94,0,0,0-.87,1.72h0c.16,1.22,2,2,4,1.74a5.24,5.24,0,0,0,2.54-1,1.91,1.91,0,0,0,.88-1.71,2,2,0,0,0-1.29-1.43A4.82,4.82,0,0,0,214.83,259.55Z" fill="#fff"/><path d="M186.36,257.54a2.91,2.91,0,0,1,.22-.71,19.51,19.51,0,0,1,.86-2,10.53,10.53,0,0,1,1.89-2.83,7.87,7.87,0,0,1,4.22-1.57c6.54-1.12,15.57-2.69,25.58-4.19l7.31-1.13c2.37-.3,4.66-.53,6.84-.78l11.59-1.27c3.27-.37,5.9-1,7.73-1.27.92-.14,1.64-.24,2.12-.29a4.23,4.23,0,0,1,.75,0,5,5,0,0,1-.73.15c-.48.08-1.19.2-2.1.38-1.82.34-4.42,1-7.74,1.44l-11.56,1.37c-2.18.27-4.47.51-6.83.82l-7.3,1.13c-10,1.51-19.05,3-25.6,4a7.63,7.63,0,0,0-4.08,1.42,10.79,10.79,0,0,0-1.91,2.72c-.44.81-.74,1.46-.94,1.91A6.19,6.19,0,0,1,186.36,257.54Z" fill="#263238"/><path d="M156.34,261.34s10.85-6.71,14.35-8.11,9.95-.7,11.49-2.1,5-4.63,5-4.63,2.8,2.95,1,5.61-8.69,6.16-8.69,6.16l24.1-1.6s1.83,1.32.84,2.87c0,0,1.71,1.82.29,3.64S186.2,279.54,180.83,280s-21-2.43-21-2.43Z" fill="#dda15e"/><path d="M102.24,251.17l2.07,21.37s44.52-8.21,52-11.2l3.54,16.21s-59.33,27.88-72.73,27.05-17.66-51.94-17.66-51.94Z" fill="#dda15e"/><path d="M179,263.57a36.2,36.2,0,0,1,3.88.36,27.79,27.79,0,0,0,9.27-.32,41.49,41.49,0,0,0,4.85-1.72l3.94-1.53c1.13-.43,2-.76,2.68-1a3.63,3.63,0,0,1,1-.29,4.5,4.5,0,0,1-.94.48c-.61.28-1.5.67-2.61,1.14l-3.9,1.64a38,38,0,0,1-4.9,1.77,25.48,25.48,0,0,1-9.44.19c-1.19-.17-2.16-.34-2.82-.47A5.08,5.08,0,0,1,179,263.57Z" fill="#8b5d54"/><path d="M181.64,271.47c0-.1,1.52.08,3.93,0a13.57,13.57,0,0,0,4.12-.74,26.52,26.52,0,0,0,4.65-2.28c1.59-.94,3.09-1.89,4.54-2.62s2.76-1.33,3.79-1.94a15.37,15.37,0,0,0,3.06-2.4,3.15,3.15,0,0,1-.61.87,11.16,11.16,0,0,1-2.26,1.84c-1,.67-2.34,1.31-3.76,2.06s-2.9,1.69-4.5,2.64a24.14,24.14,0,0,1-4.75,2.28,12.67,12.67,0,0,1-4.28.65,24.83,24.83,0,0,1-2.88-.21A5,5,0,0,1,181.64,271.47Z" fill="#8b5d54"/><path d="M171,263.05c-.05,0-.27-.28-.36-.87A4,4,0,0,1,171,260a6.5,6.5,0,0,1,1.27-1.84c.4-.41.68-.62.74-.57s-.84,1.14-1.53,2.62a5.11,5.11,0,0,0-.46,2C171,262.69,171.1,263,171,263.05Z" fill="#8b5d54"/><path d="M172.71,269.77c0,.06-.25,0-.53-.21a2.3,2.3,0,0,1-.66-2.49c.13-.33.3-.48.36-.45s-.15.8.09,1.66S172.79,269.65,172.71,269.77Z" fill="#8b5d54"/><path d="M159.88,277.55l.27,0,.79.12,3,.47c2.65.39,6.51,1,11.36,1.46,1.21.09,2.48.2,3.81.21.33,0,.67,0,1,0a4.23,4.23,0,0,0,1-.11,8.87,8.87,0,0,0,2-.64,50.8,50.8,0,0,0,7.87-4.83c2.66-1.92,5.39-4.05,8.18-6.36,1.38-1.16,2.79-2.36,4.16-3.63.65-.66,1.45-1.25,1.65-2.1a2.8,2.8,0,0,0-.71-2.44l-.13-.15.1-.16a1.49,1.49,0,0,0,.15-1.32,2.92,2.92,0,0,0-.93-1.2l.17.05-9.1.61-15,1-1.19.08,1.05-.56a40.66,40.66,0,0,0,7.3-4.67,7.91,7.91,0,0,0,1.36-1.49,3.1,3.1,0,0,0,.52-1.81,5.63,5.63,0,0,0-1.52-3.41h.32l-2.84,2.6-1.38,1.25a5.75,5.75,0,0,1-1.49,1.15,12.93,12.93,0,0,1-3.49.63c-1.14.09-2.23.16-3.29.26a21.93,21.93,0,0,0-3,.49,13.31,13.31,0,0,0-2.64,1c-1.65.83-3.14,1.66-4.48,2.41-2.68,1.51-4.76,2.74-6.19,3.58l-1.62.95-.43.24-.15.07.13-.1.41-.27,1.59-1c1.4-.88,3.46-2.15,6.13-3.69,1.33-.77,2.81-1.62,4.46-2.47a13.12,13.12,0,0,1,2.71-1.09,20,20,0,0,1,3.08-.52c1.07-.12,2.17-.19,3.29-.29a12.85,12.85,0,0,0,3.37-.62,5.46,5.46,0,0,0,1.36-1.08l1.37-1.26,2.83-2.61.17-.15.15.16a6.18,6.18,0,0,1,1.67,3.72,3.69,3.69,0,0,1-.59,2.08,8.44,8.44,0,0,1-1.45,1.59,41.24,41.24,0,0,1-7.39,4.77l-.13-.48,15-1,9.1-.6h.1l.06,0a3.4,3.4,0,0,1,1.11,1.44,2,2,0,0,1-.2,1.77l0-.31a3.32,3.32,0,0,1,.83,2.92,2.87,2.87,0,0,1-.77,1.32c-.33.38-.68.68-1,1-1.39,1.29-2.81,2.48-4.2,3.64-2.8,2.31-5.55,4.44-8.23,6.35a51.3,51.3,0,0,1-8,4.84,9.74,9.74,0,0,1-2.07.65,4.78,4.78,0,0,1-1.05.1,8.68,8.68,0,0,1-1,0c-1.35,0-2.63-.13-3.84-.24-4.86-.5-8.71-1.16-11.36-1.61l-3-.56-.78-.16Z" fill="#8b5d54"/><path d="M247.77,250.54c-6,2.32-13.48,4.64-19.52,6.52a4.87,4.87,0,0,0-2.2,1.13,1.67,1.67,0,0,0-.13,2.24,2.46,2.46,0,0,0,1.89.4l4.45-.32a32.35,32.35,0,0,0-9.51,4.56c-.77.54-1.6,1.26-1.57,2.2a2.05,2.05,0,0,0,1.68,1.78,5.94,5.94,0,0,0,2.61-.18q8.26-1.83,16.43-4.07a6.5,6.5,0,0,0,1.82-.71,6.43,6.43,0,0,0,1.76-2.08q1.28-2,2.54-4.05a6.93,6.93,0,0,0,1.21-2.79,5.67,5.67,0,0,0-1.46-4.63" fill="#dda15e"/><path d="M104,217.93l-18-43.42-.41-1.32C84,174.14,69,183.43,66,199.18s-2,53.29-2,53.29l40.31-1.3Z" fill="#e8b8b5"/><path d="M65.12,205.11a2.18,2.18,0,0,1,0,.24c0,.18,0,.4-.08.68-.06.6-.21,1.49-.33,2.64-.23,2.31-.54,5.67-.71,9.9-.35,8.44-.35,20.31.28,33.88l-.25-.24c4.39,0,9,0,13.78-.09,9.84-.22,19.13-.75,27.2-1.4l-.21.22c.47-10.08-.52-18.55-.84-24.51-.19-3-.29-5.33-.33-6.94,0-.78,0-1.39,0-1.84a3.07,3.07,0,0,1,0-.63,4.53,4.53,0,0,1,0,.63c0,.45.06,1.06.1,1.84.08,1.6.22,3.95.45,6.92.41,6,1.46,14.42,1,24.55v.21l-.21,0c-8.08.68-17.38,1.23-27.23,1.45-4.76.11-9.4.13-13.8.08h-.24v-.24c-.6-13.6-.54-25.47-.09-33.93.21-4.23.57-7.59.86-9.9.15-1.15.32-2,.41-2.63.06-.28.1-.5.13-.68A.79.79,0,0,1,65.12,205.11Z" fill="#263238"/><path d="M88,174.34a3.9,3.9,0,0,1,1,.32,10.36,10.36,0,0,1,1.11.49,14.39,14.39,0,0,1,1.43.75A23.94,23.94,0,0,1,95,178.32a24.61,24.61,0,0,1,6.26,8.11,22.89,22.89,0,0,1,1.48,3.94c.18.57.27,1.11.37,1.57a10,10,0,0,1,.19,1.2,3.9,3.9,0,0,1,.06,1c-.1,0-.27-1.45-1-3.71a26.6,26.6,0,0,0-1.56-3.82,28.37,28.37,0,0,0-2.69-4.28,28,28,0,0,0-3.46-3.68,25.21,25.21,0,0,0-3.31-2.47C89.34,175,88,174.43,88,174.34Z" fill="#263238"/><path d="M162.8,196.25a2.31,2.31,0,0,1,.31.48c.18.32.47.8.79,1.43a56.11,56.11,0,0,1,2.43,5.5A69.82,69.82,0,0,1,170.67,223a48.58,48.58,0,0,1-.43,10.92,78.84,78.84,0,0,1-2.07,8.68c-.68,2.44-1.18,4.43-1.5,5.81-.14.64-.27,1.17-.36,1.59a2.54,2.54,0,0,1-.16.55,2.21,2.21,0,0,1,0-.57c.06-.37.14-.92.27-1.61.26-1.4.71-3.41,1.34-5.86a84,84,0,0,0,1.95-8.66,50.22,50.22,0,0,0,.39-10.82A74.75,74.75,0,0,0,166,203.79c-.86-2.38-1.68-4.25-2.27-5.54-.29-.6-.52-1.08-.7-1.47A2.12,2.12,0,0,1,162.8,196.25Z" fill="#263238"/><path d="M149.07,222.64a7.31,7.31,0,0,1,.17,1.32,14.11,14.11,0,0,1,.07,1.57c0,.61,0,1.31,0,2.08a31.93,31.93,0,0,1-.73,5.36,34,34,0,0,1-5.25,12.11,32.72,32.72,0,0,1-3.42,4.19c-.52.58-1,1-1.49,1.45a14,14,0,0,1-1.2,1,7.35,7.35,0,0,1-1.08.79c-.07-.09,1.44-1.25,3.5-3.5a35.42,35.42,0,0,0,3.29-4.21,39.1,39.1,0,0,0,3.14-5.74,40.17,40.17,0,0,0,2.05-6.21,36.68,36.68,0,0,0,.82-5.28C149.15,224.54,149,222.64,149.07,222.64Z" fill="#263238"/><path d="M104.11,251.06a3.16,3.16,0,0,1-.46-.34l-1.25-1.06c-1.08-.92-2.62-2.27-4.51-4-3.78-3.39-8.92-8.14-14.46-13.55S73,221.72,69.53,218c-1.74-1.84-3.13-3.35-4.08-4.41l-1.08-1.22A2.1,2.1,0,0,1,64,212a2.78,2.78,0,0,1,.43.38c.3.3.68.69,1.15,1.15l4.19,4.3c3.54,3.62,8.47,8.6,14,14S94.43,242,98.14,245.43c1.82,1.68,3.3,3.07,4.4,4.08l1.18,1.13Q104.13,251,104.11,251.06Z" fill="#fff"/><path d="M168.79,178c.1.11-14.25,13.51-32,29.93s-32.3,29.66-32.39,29.56,14.24-13.51,32-29.94S168.69,177.86,168.79,178Z" fill="#fff"/><path d="M195.59,233.6a5.09,5.09,0,0,1-1.08-.42c-.67-.29-1.64-.75-2.84-1.33-2.38-1.15-5.64-2.82-9.17-4.78s-6.68-3.84-8.93-5.25c-1.12-.7-2-1.29-2.63-1.7a4.85,4.85,0,0,1-.92-.7,5.7,5.7,0,0,1,1,.52l2.71,1.56c2.29,1.33,5.46,3.16,9,5.11s6.75,3.68,9.09,4.91L194.6,233A5.29,5.29,0,0,1,195.59,233.6Z" fill="#fff"/><path d="M116.76,77.22c-3.88-2.46-4.82-8.19-2.72-12.28s6.58-6.58,11.13-7.32a21.19,21.19,0,0,1,18.25,6.05c2.51,2.59,4.54,6,7.94,7.14,3,1,6.3.1,9.44.51,4.21.54,7.82,3.54,10,7.19s3,7.92,3.54,12.13c.46,3.87.76,8.11,3.44,10.93s6.76,3.34,10,5.3c6.12,3.68,8.11,12.81,4.07,18.7-1.29,1.88-3.14,3.6-3.29,5.88-.14,2.07,1.2,3.92,1.83,5.91,1.62,5.1-2.56,11.17-7.9,11.47-2.7.16-5.6-.89-8,.31s-3.29,4.1-4.83,6.3a11.55,11.55,0,0,1-14.09,3.64c-2-1-3.86-2.58-6.07-2.43s-3.93,2-6.1,2.45c-2.84.54-5.53-1.54-7.22-3.89s-2.86-5.11-5-7c-2.82-2.51-6.79-3.13-10.37-4.36a29.26,29.26,0,0,1-16.52-41" fill="#263238"/><path d="M157.89,128.05a8,8,0,0,1,3.16-2.08h-.25a4,4,0,0,1,.68-.11,3.12,3.12,0,0,1,2.47.3h0a5.85,5.85,0,0,1,3.19,2.78,6.87,6.87,0,0,1-.81,7.11,5.28,5.28,0,0,1-9.69-1.81A6.58,6.58,0,0,1,157.89,128.05Z" fill="#455a64"/><path d="M161.5,100c-1-11-8.66-24.21-19.56-22.74L108,86.88a6.43,6.43,0,0,0-5.57,6.69l3.67,73.8,37.42,26.81c-.11-6.65,2.4-36.91,2.41-36.85s13.95-2.72,16.34-21.1C163.49,127.1,162.61,112.19,161.5,100Z" fill="#dda15e"/><path d="M159.74,115.58a2.35,2.35,0,0,1-2.19,2.43,2.25,2.25,0,0,1-2.48-2.05,2.34,2.34,0,0,1,2.19-2.43A2.24,2.24,0,0,1,159.74,115.58Z" fill="#263238"/><path d="M158.48,107.87c-.28.32-2.09-1-4.62-.87s-4.34,1.39-4.62,1.09c-.14-.13.14-.69.93-1.3a6.38,6.38,0,0,1,3.69-1.25,6.18,6.18,0,0,1,3.69,1.07C158.34,107.19,158.62,107.73,158.48,107.87Z" fill="#263238"/><path d="M135.45,115.58a2.36,2.36,0,0,1-2.2,2.43,2.25,2.25,0,0,1-2.48-2.05,2.34,2.34,0,0,1,2.2-2.43A2.24,2.24,0,0,1,135.45,115.58Z" fill="#263238"/><path d="M133.68,109.05c-.28.31-2.1-1-4.62-.87s-4.34,1.39-4.62,1.09c-.14-.13.14-.69.93-1.3a6.45,6.45,0,0,1,3.69-1.26,6.25,6.25,0,0,1,3.69,1.08C133.54,108.36,133.82,108.91,133.68,109.05Z" fill="#263238"/><path d="M143.38,127.51c0-.14,1.54-.46,4.07-.86.65-.08,1.25-.23,1.35-.67a3.29,3.29,0,0,0-.48-1.9c-.65-1.54-1.34-3.16-2-4.85-2.85-6.92-4.93-12.61-4.65-12.72s2.82,5.4,5.66,12.31c.69,1.71,1.34,3.34,2,4.89a3.78,3.78,0,0,1,.41,2.52,1.61,1.61,0,0,1-1,1,4.39,4.39,0,0,1-1.09.19C145,127.6,143.39,127.65,143.38,127.51Z" fill="#263238"/><path d="M146,157.34a46.6,46.6,0,0,1-24.69-5.84s6.3,12.39,24.56,10.16Z" fill="#af7a46"/><path d="M143.17,133.52A6.2,6.2,0,0,0,138,131a4,4,0,0,0-3.27,1.9,3.71,3.71,0,0,0,4.32,5.43,9.19,9.19,0,0,0,3.65-2.4,2.93,2.93,0,0,0,.77-1,1.31,1.31,0,0,0-.14-1.28" fill="#af7a46"/><path d="M136,129.47c.41,0,.49,2.7,2.89,4.58s5.31,1.49,5.34,1.88c0,.17-.63.55-1.87.62a6.91,6.91,0,0,1-4.45-1.41,5.92,5.92,0,0,1-2.25-3.85C135.52,130.15,135.81,129.46,136,129.47Z" fill="#263238"/><path d="M134.5,98.62c-.23.7-2.76.44-5.71.89s-5.32,1.31-5.73.71c-.19-.29.21-1,1.16-1.64A9.53,9.53,0,0,1,128.44,97a9.66,9.66,0,0,1,4.5.39C134,97.77,134.6,98.3,134.5,98.62Z" fill="#263238"/><path d="M157.35,99.21c-.43.59-2.19,0-4.28.07s-3.85.5-4.27-.09c-.19-.29.07-.87.83-1.43a5.82,5.82,0,0,1,3.45-1,5.9,5.9,0,0,1,3.44,1C157.28,98.34,157.54,98.92,157.35,99.21Z" fill="#263238"/><path d="M173.83,96.18A12.54,12.54,0,0,0,169,89.26c-1.32-.86-2.85-1.39-4.08-2.37-2.64-2.14-3.25-5.85-4.88-8.83a13.81,13.81,0,0,0-10.53-7c-3.63-.38-7.36.71-10.89-.18-2.62-.66-4.9-2.35-7.54-2.85-5.16-1-10,2.71-13.68,6.4,0,3.68,2.92,6.15,5.75,8.52a12.76,12.76,0,0,0,10.36,2.73c2.81-.51,5.9-1.94,8.34-.44s2.67,5.45,4.94,7.42c3.25,2.82,8.41.17,12.54,1.4,3.18.94,5.17,4,7.29,6.54s5.28,5,8.46,4A37.3,37.3,0,0,0,173.83,96.18Z" fill="#263238"/><path d="M135.14,80.59c-2.31-.66-7-2.16-8.28-4.16-2.69-4.36-7.43-7.33-12.28-7.06a11.64,11.64,0,0,0-10.49,9.21,16.77,16.77,0,0,0-14.41,9.27A18.47,18.47,0,0,0,88.77,90a12.74,12.74,0,0,0-.85,10.71c.8,2.08,2.16,4.4,1.08,6.36s-3.85,2.06-6,2.8a8.47,8.47,0,0,0-5.33,9.46c.3,1.38,1,2.77.67,4.16s-1.54,2.47-2.49,3.6A10.54,10.54,0,0,0,82,144.24c1.64.3,3.42.23,4.85,1.1,1.63,1,2.34,3,3.49,4.5a9.07,9.07,0,0,0,9.85,3.08,8.15,8.15,0,0,0,2-1c1.1,1.52,2.83,2.56,5.78,2.56l-.68-38.57a3.23,3.23,0,0,0,2.34,1.83c6.19,1.4,7.1-11.36,5.71-14.82a36,36,0,0,0,6.22-6.53c1.71-2.52,3.21-9.41,2.85-12.51C126.65,84,136.15,80.88,135.14,80.59Z" fill="#263238"/><path d="M109,119.05c-.2-3.92-5-4.76-8.39-2.79-1.87,1.08-3.3,3.25-3.13,7.41C98,134.77,109,132,109,131.7S109.24,123.64,109,119.05Z" fill="#dda15e"/><path d="M105.44,127.63s-.18.15-.5.31a2,2,0,0,1-1.45.09c-1.19-.38-2.25-2.2-2.39-4.2a6.31,6.31,0,0,1,.43-2.79,2.22,2.22,0,0,1,1.39-1.55,1,1,0,0,1,1.16.49c.17.3.1.53.16.54s.23-.19.13-.65a1.3,1.3,0,0,0-.47-.68,1.44,1.44,0,0,0-1.08-.23,2.72,2.72,0,0,0-1.95,1.8,6.61,6.61,0,0,0-.54,3.12c.16,2.24,1.39,4.28,3,4.68a2.05,2.05,0,0,0,1.75-.37C105.43,127.9,105.48,127.65,105.44,127.63Z" fill="#8b5d54"/><path d="M119.86,77.59a6.72,6.72,0,0,0-2.22,1.85c-1.1,1.52-1.51,4.42-.82,7.68l.06.28-.27.07a10.74,10.74,0,0,0-7.15,6.3,8.05,8.05,0,0,0-.57,2.71,16.08,16.08,0,0,0,.34,2.93,22.29,22.29,0,0,1,.43,3.16,5.28,5.28,0,0,1-.88,3.27c-1.38,2.1-3.6,3.14-5.51,4.14a18.55,18.55,0,0,0-5.15,3.38,13.85,13.85,0,0,0-4.15,9.3,14.56,14.56,0,0,0,1.46,6.86c.74,1.51,1.36,2.23,1.3,2.28s-.19-.16-.48-.5a12.05,12.05,0,0,1-1.09-1.64,14.1,14.1,0,0,1,2.45-16.82,19.1,19.1,0,0,1,5.31-3.54c1.91-1,4-2,5.2-3.88,1.23-1.69.68-3.89.36-5.88a16.61,16.61,0,0,1-.35-3.08,9,9,0,0,1,.65-3,11.23,11.23,0,0,1,7.69-6.59l-.21.34c-.66-3.42-.14-6.42,1.12-8a4.61,4.61,0,0,1,1.74-1.42A2.66,2.66,0,0,1,119.86,77.59Z" fill="#455a64"/><path d="M101.3,131.79a7.94,7.94,0,0,1,3.15-2.08h-.24a5.09,5.09,0,0,1,.68-.12,3.13,3.13,0,0,1,2.46.31h0a5.78,5.78,0,0,1,3.19,2.78,6.92,6.92,0,0,1-.81,7.11A5.28,5.28,0,0,1,100,138,6.56,6.56,0,0,1,101.3,131.79Z" fill="#455a64"/><path d="M158.59,123.1c2.09-.23,4.67-.66,5.45-1.39,1.15-1.09,2.34-5.12,3.35-8.92.13-.49.22-.82.25-.91l-.79-.31a9.76,9.76,0,0,0-.29,1c-.55,2-2,7.47-3.13,8.54-1.33,1.26-12.5,1.91-13.53,1.19-.65-.52-2.16-5.37-3-8.65l-.08-.3-4.44-.12-.11.28c-.88,2.22-3.57,8.21-5.52,9.33-2.45,1.39-12,.72-12.69-.23s-2.28-6.48-3.24-10.08l-.09-.31-13.54.54,0,.82,12.86-.52c.48,1.79,2.45,8.91,3.29,10,1.14,1.53,11.35,1.86,13.82.45s5.18-8,5.78-9.47l3.18.09c.5,1.85,2.19,7.95,3.22,8.77s6.56.38,7.19.33S157.79,123.19,158.59,123.1Z" fill="#455a64"/><path d="M142.09,114.68l.88-1.42c-5.87-3.22-16.3-4.56-22.94-1.1l.82,1.44C126.76,110.52,136.61,111.67,142.09,114.68Z" fill="#455a64"/><path d="M167.1,112.73l.66-1.53c-7.12-2.7-16.28-1.82-21.8,2.1l1,1.31C152,111.07,160.61,110.26,167.1,112.73Z" fill="#455a64"/><path d="M220.9,372.55l-12.11,30s26.4,25.7,24.34,31.53l-59.45-25.3,20.09-47.88Z" fill="#b5713e"/><path d="M192,393.39a2.63,2.63,0,0,0-2.86,2.05,2.53,2.53,0,0,0,2,2.85,2.79,2.79,0,0,0,3-2.19c.08-1.29-1.13-2.85-2.42-2.73" fill="#e0e0e0"/><path d="M173.68,408.8l2.21-4.74,56.17,26s2.16,2.28,1.07,4Z" fill="#263238"/><path d="M210.39,403.89c-.14.29-1.65-.2-3.47.13s-3.11,1.22-3.32,1,.92-1.72,3.14-2.08S210.56,403.65,210.39,403.89Z" fill="#263238"/><path d="M215.52,409.12c-.05.31-1.52.27-3,1.08s-2.34,2-2.63,1.85.23-1.86,2.13-2.83S215.63,408.84,215.52,409.12Z" fill="#263238"/><path d="M215.89,418.09c-.29,0-.08-1.67,1.34-2.94s3.05-1.33,3.07-1-1.18.79-2.33,1.85S216.19,418.19,215.89,418.09Z" fill="#263238"/><path d="M172.57,284.06s65.07-16.6,72.16-16.16,29.88,4.65,21,31.21-48.7,94.08-48.7,94.08l-33.51-14.08,20-48.57s-41.9,12.6-59.13,13.61S113,320.8,113,320.8Z" fill="#d38042"/><path d="M228.12,292.65a11.8,11.8,0,0,1,2.17-2.06,30.26,30.26,0,0,1,6.12-3.81,31.59,31.59,0,0,1,6.83-2.3c1.78-.41,2.81-.88,2.85-.81a7.92,7.92,0,0,1-2.76,1.16,41.58,41.58,0,0,0-6.7,2.42,37.63,37.63,0,0,0-6.12,3.64A25.8,25.8,0,0,1,228.12,292.65Z" fill="#d38042"/><path d="M215.61,314a3.36,3.36,0,0,1,.35-1c.25-.6.65-1.47,1.15-2.54a90.1,90.1,0,0,1,4.34-8.11,91.2,91.2,0,0,1,5.25-7.56c.72-.93,1.31-1.67,1.74-2.18a3.93,3.93,0,0,1,.7-.75,5,5,0,0,1-.54.88l-1.6,2.27c-1.36,1.92-3.23,4.57-5.1,7.61s-3.37,5.93-4.46,8l-1.3,2.46A4.24,4.24,0,0,1,215.61,314Z" fill="#d38042"/><path d="M152.5,279c2.64-1.07,10.82-3.81,13.66-3.95,4.44-.22,10.84,0,15,2.8C188,282.44,276,375.31,276,375.31l-24.69,30.35S206,372.82,193.91,359.72,168,326,168,326s-16.43,17.36-31.71,24.94c-9.5,4.72-32.78,10-52.81,8.24a30.6,30.6,0,0,1-27.78-33.83c0-.11,0-.22,0-.33a82.78,82.78,0,0,1,1.87-8.86h0Z" fill="#d38042"/><path d="M134.6,351.73l.61-.4,1.82-1.14c1.59-1,4-2.48,7-4.49s6.7-4.53,10.83-7.72a91.57,91.57,0,0,0,13.06-12.09l.16-.19.11.23a66.47,66.47,0,0,0,5.5,9.65c2.2,3.22,4.73,6.44,7.47,9.7s5.79,6.49,9,9.78,6.65,6.57,10.26,9.88c7.22,6.62,15.14,13.35,23.66,20.09s17.58,13.58,27.19,20.27l-.34,0,23.75-28.48,1.31-1.57v.35l-52.2-54.39c-8.05-8.32-15.7-16.21-22.85-23.61-3.6-3.67-7.07-7.23-10.46-10.59-1.69-1.67-3.39-3.29-5.05-4.85a37.51,37.51,0,0,0-5.13-4.26,24.49,24.49,0,0,0-8.84-3,16.25,16.25,0,0,0-3,.07,62.14,62.14,0,0,0-10.82,2.34c-6.65,2-12.24,4.1-16.79,5.87s-8.05,3.25-10.41,4.25l-2.69,1.15-.92.39s.3-.16.9-.44l2.67-1.19c2.35-1,5.83-2.54,10.37-4.35s10.13-3.94,16.79-6a62.77,62.77,0,0,1,10.87-2.39,17.85,17.85,0,0,1,3-.08,18.69,18.69,0,0,1,3.05.6,19.23,19.23,0,0,1,5.95,2.4,38.07,38.07,0,0,1,5.2,4.29c1.67,1.56,3.37,3.17,5.07,4.85,3.4,3.35,6.88,6.9,10.48,10.57l22.89,23.58c16.05,16.69,33.69,35.06,52.24,54.36l.16.17-.15.18-1.31,1.56-23.76,28.48-.15.18-.19-.13c-9.63-6.7-18.69-13.54-27.2-20.31s-16.44-13.5-23.66-20.14q-5.42-5-10.26-9.92t-9-9.82a122.74,122.74,0,0,1-7.48-9.75,66.54,66.54,0,0,1-5.5-9.72l.27,0A90,90,0,0,1,155,338.18c-4.15,3.18-7.85,5.68-10.89,7.66s-5.43,3.44-7,4.43l-1.85,1.1C134.82,351.62,134.6,351.73,134.6,351.73Z" fill="#d38042"/><path d="M424.39,87.76H209.19a3.7,3.7,0,0,0-3.65,3.75V201.6a3.7,3.7,0,0,0,3.65,3.76h7.25v20.31l19.77-20.31H424.39a3.71,3.71,0,0,0,3.66-3.76V91.51A3.71,3.71,0,0,0,424.39,87.76Z" fill="#fff"/><g opacity="0.5"><path d="M209.9,87.76H423.68A4.37,4.37,0,0,1,428,92.12v16.11a0,0,0,0,1,0,0H205.54a0,0,0,0,1,0,0V92.12A4.37,4.37,0,0,1,209.9,87.76Z" fill="#e0b285"/></g><path d="M219.24,98.33a2.8,2.8,0,1,1-2.8-2.88A2.84,2.84,0,0,1,219.24,98.33Z" fill="#fff"/><path d="M228.27,98.33a2.8,2.8,0,1,1-2.8-2.88A2.84,2.84,0,0,1,228.27,98.33Z" fill="#fff"/><path d="M237.62,98.33a2.81,2.81,0,1,1-2.81-2.88A2.85,2.85,0,0,1,237.62,98.33Z" fill="#fff"/><path d="M304.82,97.51c0,1.29-.95,2.1-2.46,2.1h-1.14v1.6h-1.31V95.4h2.45C303.87,95.4,304.82,96.2,304.82,97.51Zm-1.33,0c0-.64-.4-1-1.21-1h-1.06v2h1.06C303.09,98.51,303.49,98.14,303.49,97.51Z" fill="#dda15e"/><path d="M308.35,96.68v1.19l-.28,0c-.7,0-1.16.39-1.16,1.25v2.11h-1.26V96.74h1.21v.59A1.72,1.72,0,0,1,308.35,96.68Z" fill="#dda15e"/><path d="M308.74,99a2.39,2.39,0,1,1,2.39,2.3A2.26,2.26,0,0,1,308.74,99Zm3.5,0a1.12,1.12,0,1,0-1.11,1.24A1.11,1.11,0,0,0,312.24,99Z" fill="#dda15e"/><path d="M314,99a2.27,2.27,0,0,1,2.43-2.29,2,2,0,0,1,1.94,1.13l-1,.54a1.1,1.1,0,0,0-1-.61,1.24,1.24,0,0,0,0,2.47,1.08,1.08,0,0,0,1-.61l1,.54a2,2,0,0,1-1.94,1.13A2.27,2.27,0,0,1,314,99Z" fill="#dda15e"/><path d="M323.31,99.34H320a1.16,1.16,0,0,0,1.24.9,1.48,1.48,0,0,0,1.1-.44l.67.75A2.52,2.52,0,0,1,318.75,99a2.24,2.24,0,0,1,2.32-2.29A2.17,2.17,0,0,1,323.33,99C323.33,99.09,323.32,99.23,323.31,99.34ZM320,98.58h2.15a1.05,1.05,0,0,0-1.07-.93A1,1,0,0,0,320,98.58Z" fill="#dda15e"/><path d="M323.75,100.79l.42-.93a2.9,2.9,0,0,0,1.51.43c.58,0,.8-.15.8-.4,0-.73-2.63,0-2.63-1.77,0-.85.75-1.44,2-1.44a3.46,3.46,0,0,1,1.67.39l-.42.92a2.46,2.46,0,0,0-1.25-.34c-.57,0-.81.19-.81.42,0,.76,2.63,0,2.63,1.78,0,.83-.75,1.42-2.06,1.42A3.59,3.59,0,0,1,323.75,100.79Z" fill="#dda15e"/><path d="M328,100.79l.42-.93a2.9,2.9,0,0,0,1.51.43c.58,0,.8-.15.8-.4,0-.73-2.63,0-2.63-1.77,0-.85.75-1.44,2-1.44a3.46,3.46,0,0,1,1.67.39l-.42.92a2.46,2.46,0,0,0-1.25-.34c-.57,0-.81.19-.81.42,0,.76,2.63,0,2.63,1.78,0,.83-.75,1.42-2.06,1.42A3.59,3.59,0,0,1,328,100.79Z" fill="#dda15e"/><path d="M332.44,100.46a.79.79,0,1,1,1.57,0,.79.79,0,1,1-1.57,0Z" fill="#dda15e"/><path d="M334.56,100.46a.79.79,0,1,1,1.57,0,.79.79,0,1,1-1.57,0Z" fill="#dda15e"/><path d="M336.68,100.46a.76.76,0,0,1,.78-.8.77.77,0,0,1,.79.8.78.78,0,0,1-.79.81A.78.78,0,0,1,336.68,100.46Z" fill="#dda15e"/><rect x="366.99" y="174.84" width="47.64" height="16.23" rx="7.49" ry="7.49" fill="#dda15e"/><path d="M380.36,182.57a2.39,2.39,0,0,1,2.46-2.46,2.25,2.25,0,0,1,1.72.71l-.32.32a1.83,1.83,0,0,0-1.39-.57,2,2,0,0,0,0,4,1.8,1.8,0,0,0,1.39-.58l.32.32a2.25,2.25,0,0,1-1.73.71A2.38,2.38,0,0,1,380.36,182.57Z" fill="#fff"/><path d="M388.11,182.73V185h-.46v-.56a1.31,1.31,0,0,1-1.21.6c-.8,0-1.29-.43-1.29-1.06s.35-1,1.36-1h1.12v-.22a.87.87,0,0,0-1-1,1.74,1.74,0,0,0-1.17.42l-.22-.36a2.22,2.22,0,0,1,1.44-.49A1.27,1.27,0,0,1,388.11,182.73Zm-.48,1.16v-.59h-1.11c-.68,0-.9.28-.9.65s.33.68.89.68A1.12,1.12,0,0,0,387.63,183.89Z" fill="#fff"/><path d="M392.65,182.88V185h-.48v-2c0-.77-.39-1.16-1.06-1.16a1.17,1.17,0,0,0-1.23,1.31V185h-.48v-3.62h.46V182a1.46,1.46,0,0,1,1.34-.69A1.37,1.37,0,0,1,392.65,182.88Z" fill="#fff"/><path d="M393.6,183.17a1.76,1.76,0,0,1,1.82-1.84,1.54,1.54,0,0,1,1.39.72l-.36.24a1.2,1.2,0,0,0-1-.53,1.41,1.41,0,0,0,0,2.82,1.18,1.18,0,0,0,1-.53l.36.25a1.56,1.56,0,0,1-1.39.72A1.77,1.77,0,0,1,393.6,183.17Z" fill="#fff"/><path d="M400.75,183.32H397.8a1.31,1.31,0,0,0,1.39,1.26,1.41,1.41,0,0,0,1.08-.47l.26.31a1.69,1.69,0,0,1-1.36.6,1.77,1.77,0,0,1-1.85-1.85,1.72,1.72,0,1,1,3.44,0S400.75,183.27,400.75,183.32ZM397.8,183h2.5a1.25,1.25,0,0,0-2.5,0Z" fill="#fff"/><path d="M401.73,179.87h.47V185h-.47Z" fill="#fff"/><path d="M424.39,205.36a4,4,0,0,0,1.73-.47,3.76,3.76,0,0,0,1.49-1.6,3.6,3.6,0,0,0,.38-1.36c0-.51,0-1.06,0-1.65,0-4.68,0-11.59-.05-20.47,0-17.79-.05-43.52-.08-75.3q0-6,0-12.21a7.59,7.59,0,0,0-.08-1.52,3.66,3.66,0,0,0-.59-1.36A3.43,3.43,0,0,0,424.68,88c-2.09,0-4.27,0-6.43,0H391.2l-59.68,0H210.6a11,11,0,0,0-2.18.09,3.49,3.49,0,0,0-2.6,3c0,3,0,6,0,9,0,20.12,0,39.85,0,59V187.4q0,6.94,0,13.77a3.77,3.77,0,0,0,1,2.94,3.52,3.52,0,0,0,1.32.83,4.4,4.4,0,0,0,1.59.17h7v.25q0,10.37,0,20.31l-.41-.17L236,205.2l.07-.07h.1l136.2.09,38.37.07,10.13,0,2.6,0,.88,0-.88,0-2.6,0-10.13,0-38.37.07-136.2.09.16-.07-19.76,20.32-.41.42v-20.9l.24.25h-6.72a5.07,5.07,0,0,1-1.75-.2,4.16,4.16,0,0,1-1.52-.95,4.26,4.26,0,0,1-1.16-3.29q0-6.82,0-13.77V159.12c0-19.15,0-38.88,0-59,0-3.05,0-6,0-9.1a4,4,0,0,1,3-3.41,11.41,11.41,0,0,1,2.31-.11h55l65.95,0,59.68,0,27.05,0c2.18,0,4.3,0,6.46,0a3.81,3.81,0,0,1,2.8,1.62,4,4,0,0,1,.65,1.51,7.82,7.82,0,0,1,.08,1.59q0,6.24,0,12.21c0,31.78-.06,57.51-.08,75.3,0,8.88,0,15.79,0,20.47,0,.59,0,1.14,0,1.66a3.83,3.83,0,0,1-1.93,3,3.65,3.65,0,0,1-1.3.41A3.17,3.17,0,0,1,424.39,205.36Z" fill="#dda15e"/><rect x="220.36" y="139.07" width="195.4" height="19.2" rx="8.86" ry="8.86" fill="#fff"/><path d="M406.89,158.27a1.87,1.87,0,0,1,.27,0c.17,0,.44,0,.79-.07a8.84,8.84,0,0,0,3-.94,7.88,7.88,0,0,0,1.87-1.31,8.59,8.59,0,0,0,1.73-2.15,8.83,8.83,0,0,0,1-3,6.1,6.1,0,0,0,.09-.87c0-.29,0-.6,0-.91,0-.62,0-1.25-.05-1.89a8.83,8.83,0,0,0-4.62-6.86,9.51,9.51,0,0,0-2.26-.82,12,12,0,0,0-2.5-.19h-5.38l-25.28,0-146.34.08a8.48,8.48,0,0,0-4.88,1.51,8.67,8.67,0,0,0-3.15,4,12.11,12.11,0,0,0-.56,5.09,8.61,8.61,0,0,0,5.76,7.62,14.48,14.48,0,0,0,5,.48h10.2l38.86,0,65.79.05,44.35.08,12.06.05,3.14,0,1.07,0-1.07,0-3.14,0-12.06.05-44.35.08-65.79.06H231.42c-.86,0-1.7,0-2.58,0a8.86,8.86,0,0,1-2.6-.49,9.07,9.07,0,0,1-4.27-3.1,9,9,0,0,1-1.85-5,26.23,26.23,0,0,1,0-2.66,8.57,8.57,0,0,1,.59-2.64,9.24,9.24,0,0,1,3.33-4.23,10.2,10.2,0,0,1,2.46-1.2,10.06,10.06,0,0,1,2.72-.4l146.34.07,25.28,0h5.38a11.45,11.45,0,0,1,2.56.21,10,10,0,0,1,2.32.85,9.06,9.06,0,0,1,4.7,7.06c0,.66.05,1.3,0,1.91,0,.31,0,.62,0,.92a6.54,6.54,0,0,1-.09.89,8.86,8.86,0,0,1-1.09,3.08,8.83,8.83,0,0,1-6.68,4.37C407.25,158.28,406.89,158.27,406.89,158.27Z" fill="#dda15e"/><path d="M396.35,150a1.9,1.9,0,0,1-2.07,1.89c-1.54,0-2.45-1-2.45-2.89s1.13-3.09,2.77-3.09a2.77,2.77,0,0,1,1.49.37l-.39.82a1.85,1.85,0,0,0-1.07-.28c-1.07,0-1.74.68-1.74,2h0a1.92,1.92,0,0,1,1.51-.6A1.79,1.79,0,0,1,396.35,150Zm-1,0a1,1,0,0,0-1.13-1,1,1,0,0,0-1.15,1c0,.55.42,1,1.17,1A1,1,0,0,0,395.33,150.07Z" fill="#dda15e"/><path d="M396.9,148.92c0-1.91,1-3,2.36-3s2.37,1.08,2.37,3-1,3-2.37,3S396.9,150.83,396.9,148.92Zm3.67,0c0-1.4-.54-2-1.31-2s-1.31.65-1.31,2,.54,2.05,1.31,2.05S400.57,150.32,400.57,148.92Z" fill="#dda15e"/><path d="M402.24,147.55a1.37,1.37,0,1,1,1.35,1.59A1.4,1.4,0,0,1,402.24,147.55Zm2.05,0c0-.65-.26-1-.7-1s-.69.37-.69,1,.27,1,.69,1S404.29,148.2,404.29,147.55ZM407,146h.79l-3.86,5.81h-.79Zm-1,4.28c0-1,.54-1.6,1.35-1.6a1.62,1.62,0,0,1,0,3.19A1.4,1.4,0,0,1,406,150.29Zm2,0c0-.64-.27-1-.69-1s-.7.36-.7,1,.27,1,.7,1S408,150.93,408,150.29Z" fill="#dda15e"/><rect x="222.83" y="141.37" width="101.49" height="14.64" rx="6.76" ry="6.76" fill="#dda15e"/><g opacity="0.2"><polygon points="228.73 156.01 237.45 141.37 242.1 141.37 233.51 156.01 228.73 156.01" fill="#fff"/></g><g opacity="0.2"><polygon points="240.25 156.01 248.97 141.37 253.63 141.37 245.04 156.01 240.25 156.01" fill="#fff"/></g><g opacity="0.2"><polygon points="251.78 156.01 260.5 141.37 265.15 141.37 256.56 156.01 251.78 156.01" fill="#fff"/></g><g opacity="0.2"><polygon points="263.31 156.01 272.02 141.37 276.68 141.37 268.09 156.01 263.31 156.01" fill="#fff"/></g><g opacity="0.2"><polygon points="274.83 156.01 283.55 141.37 288.2 141.37 279.61 156.01 274.83 156.01" fill="#fff"/></g><g opacity="0.2"><polygon points="286.36 156.01 295.07 141.37 299.73 141.37 291.14 156.01 286.36 156.01" fill="#fff"/></g><g opacity="0.2"><polygon points="297.88 156.01 306.6 141.37 311.26 141.37 302.66 156.01 297.88 156.01" fill="#fff"/></g><g opacity="0.2"><path d="M309.41,156l8.66-14.58a6.79,6.79,0,0,1,3.71,1.66L314.19,156Z" fill="#fff"/></g><path d="M379.89,166.19c0,.15-27.12.26-60.56.26s-60.56-.11-60.56-.26,27.11-.26,60.56-.26S379.89,166.05,379.89,166.19Z" fill="#dda15e"/></g></g></g></svg>