<svg xmlns="http://www.w3.org/2000/svg" viewBox="0 0 520.22 208.13"><title>party</title><g id="fc6e699d-2ed6-49f5-9cd3-f1a450261515" data-name="Layer 2"><g id="dbe458a5-729a-483a-b983-63adb89c47b3" data-name="Layer 1"><g id="5fcfb30b-81eb-4d7e-922b-9fa2d74b9fd5" data-name="party"><path d="M60,172.76a6,6,0,0,0-5.1,0,37.12,37.12,0,0,1-1.93,8.55,5.43,5.43,0,0,1,2.76.54A33.29,33.29,0,0,1,60,172.76Z" fill="#ef9f50"/><path d="M373.41,75.86a2.58,2.58,0,0,1-.82-2.47,8.29,8.29,0,0,0-3.11,2.15,2.35,2.35,0,0,0,.9,2.13A6.06,6.06,0,0,1,373.41,75.86Z" fill="#ef9f50"/><path d="M316.62,197.78a15.18,15.18,0,0,0-4.34-3.05,6.09,6.09,0,0,0-.53,3.18,5,5,0,0,1,2.68,1.82A3.46,3.46,0,0,1,316.62,197.78Z" fill="#ef9f50"/><path d="M123.25,169.43a7.7,7.7,0,0,1-1.27-3,24.27,24.27,0,0,1-5.44,3.59,4.31,4.31,0,0,0,.9,3A28.5,28.5,0,0,0,123.25,169.43Z" fill="#ef9f50"/><path d="M86.1,124.44a4.45,4.45,0,0,1-1.3,4.35c2.19.59,3.76.46,6.6,0,1-1.23,1.16-2.15.85-4C89.81,125.22,88,125.28,86.1,124.44Z" fill="#ef9f50"/><path d="M403.07,82a1.41,1.41,0,0,0-1.36-.4,2.18,2.18,0,0,0-.4,1.35,3.26,3.26,0,0,1,1.29,1.25A5.79,5.79,0,0,1,403.07,82Z" fill="#ef9f50"/><path d="M423.62,142.51c.17.44.51.67,1.12.9a5.81,5.81,0,0,1,1.6-2,2.14,2.14,0,0,1-1-1.07A6.79,6.79,0,0,0,423.62,142.51Z" fill="#ef9f50"/><path d="M130.85,117.66a8.5,8.5,0,0,1,5,.35,2.36,2.36,0,0,1,.78-1.71,10.17,10.17,0,0,0-5.54-.88A4.32,4.32,0,0,0,130.85,117.66Z" fill="#ef9f50"/><path d="M210.55,132.69a22.68,22.68,0,0,0-3.25-7.28,9.17,9.17,0,0,0-3.13,3.7c1.23,1.16,1.62,2.42,2.06,4.42A5.12,5.12,0,0,1,210.55,132.69Z" fill="#ef9f50"/><path d="M295.23,137.49c.27.69.77,1,1.58,1.49a19.36,19.36,0,0,1,4.62-5.2,3.21,3.21,0,0,1-1.27-1.62A17.27,17.27,0,0,0,295.23,137.49Z" fill="#ef9f50"/><path d="M140.29,147.17a6.07,6.07,0,0,1-2.91,3.21,21,21,0,0,0,6.29,3,9.6,9.6,0,0,0,1.52-3.87C143.7,149.33,142.41,148.55,140.29,147.17Z" fill="#ef9f50"/><path d="M347.6,182.6c.42-.8,1.17-1.42,3.25-2.12a4.65,4.65,0,0,0-2.1-2,8.18,8.18,0,0,0-3.28,2.54A4.17,4.17,0,0,1,347.6,182.6Z" fill="#ef9f50"/><path d="M414.86,61a4,4,0,0,1,3.53-1.89,12.78,12.78,0,0,0-4.07-4.16,3.58,3.58,0,0,0-3,1.92A9.43,9.43,0,0,1,414.86,61Z" fill="#ef9f50"/><path d="M256.38,61a3,3,0,0,1-.34,2.33,2.81,2.81,0,0,0,1.76-.15A5,5,0,0,0,258,60.7,2.59,2.59,0,0,1,256.38,61Z" fill="#ef9f50"/><path d="M204.32,176.62a7.77,7.77,0,0,1,3.15-1.19,24.55,24.55,0,0,1-3.48-5.72,4.45,4.45,0,0,0-3.14.81A29.43,29.43,0,0,0,204.32,176.62Z" fill="#ef9f50"/><path d="M376.31,119.94a1.29,1.29,0,0,0-.7,1.1,2.06,2.06,0,0,0,1.09.7,3.06,3.06,0,0,1,1.44-.82A5.24,5.24,0,0,1,376.31,119.94Z" fill="#ef9f50"/><path d="M235,148.3a2.85,2.85,0,0,1-1.41-1.92,22.77,22.77,0,0,0-5.12,4.18,5.38,5.38,0,0,0,1.69,2.39A12.93,12.93,0,0,1,235,148.3Z" fill="#ef9f50"/><path d="M144.16,131.81a4.6,4.6,0,0,0-2.44,1.63,4.89,4.89,0,0,1,1.95,2.37,7.06,7.06,0,0,0,2.57-1.16A9.05,9.05,0,0,1,144.16,131.81Z" fill="#ef9f50"/><path d="M489.29,83.1a2,2,0,0,1,1.53,1.41,6.67,6.67,0,0,0,1.35-2.72,1.85,1.85,0,0,0-1.46-1.14A4.88,4.88,0,0,1,489.29,83.1Z" fill="#ef9f50"/><path d="M413.12,43.84a7.48,7.48,0,0,1-1.8-2.33,2.42,2.42,0,0,0-1.14,1,10.13,10.13,0,0,0,1.69,2.5C412.19,44.28,412.47,43.94,413.12,43.84Z" fill="#ef9f50"/><path d="M86.46,54.08a1.51,1.51,0,0,1-.81-.95,12,12,0,0,0-2.52,2.41,3,3,0,0,0,1,1.18A7,7,0,0,1,86.46,54.08Z" fill="#ef9f50"/><path d="M193.12,133.46a2.85,2.85,0,0,0,1.41,1.1,4,4,0,0,1,1.23-.38c-.33-.27-.38-.56-.31-1.16A7.21,7.21,0,0,1,193.12,133.46Z" fill="#ef9f50"/><path d="M224,173.54a10.24,10.24,0,0,1-.19,4.33,31.44,31.44,0,0,1,8.55-1.19,5.78,5.78,0,0,0,.64-4.14A37.58,37.58,0,0,0,224,173.54Z" fill="#ef9f50"/><path d="M476,83.19a1.93,1.93,0,0,0,.47,1.88,2.89,2.89,0,0,0,1.86-.47,4.38,4.38,0,0,1,.58-2.37A7.58,7.58,0,0,1,476,83.19Z" fill="#ef9f50"/><path d="M258.51,67.11A3.64,3.64,0,0,1,260.66,65a29.33,29.33,0,0,0-6.25-5.67,6.93,6.93,0,0,0-2.69,2.59A16.64,16.64,0,0,1,258.51,67.11Z" fill="#ef9f50"/><path d="M158,197.44a6.25,6.25,0,0,0-4,.56,6.64,6.64,0,0,1,1,4.08,9.38,9.38,0,0,0,3.85.09A12.69,12.69,0,0,1,158,197.44Z" fill="#ef9f50"/><path d="M248,94.34c.71-.14,1.48,0,3,.93a3.77,3.77,0,0,0,.17-2.31,6.64,6.64,0,0,0-3.24-.74A3.35,3.35,0,0,1,248,94.34Z" fill="#ef9f50"/><path d="M219.1,127.2a2.21,2.21,0,0,1,1.58.06,7.86,7.86,0,0,0-.63-2.47,3.55,3.55,0,0,0-1.44.48A4.59,4.59,0,0,1,219.1,127.2Z" fill="#ef9f50"/><path d="M233.44,104.81c1.9-.09,3.84.59,7.33,3.61a9.71,9.71,0,0,0,1.37-6A17.33,17.33,0,0,0,234,99.24C234.47,101.24,234.22,102.49,233.44,104.81Z" fill="#ef9f50"/><path d="M169.7,59a2.6,2.6,0,0,1-1.4,1.19,9.22,9.22,0,0,0,2.49,1.62,4.27,4.27,0,0,0,.85-1.55A5.4,5.4,0,0,1,169.7,59Z" fill="#ef9f50"/><path d="M57.48,89.93c.42-.64,1.11-1.11,2.92-1.52a3.89,3.89,0,0,0-1.61-1.87,7.14,7.14,0,0,0-3,1.87A3.62,3.62,0,0,1,57.48,89.93Z" fill="#ef9f50"/><path d="M198,116a10.91,10.91,0,0,1-3.06-2.92,3.49,3.49,0,0,0-1.39,1.71,14.27,14.27,0,0,0,2.94,3.2C196.81,116.8,197.14,116.26,198,116Z" fill="#ef9f50"/><path d="M468.93,141.46a3,3,0,0,1-2.26-1.08,24,24,0,0,0-2.67,6.45,5.76,5.76,0,0,0,2.76,1.37A13.75,13.75,0,0,1,468.93,141.46Z" fill="#ef9f50"/><path d="M126,79a3.59,3.59,0,0,1,3.31,1.57,11.85,11.85,0,0,0,.85-5.26,3.31,3.31,0,0,0-3-1.16A8.58,8.58,0,0,1,126,79Z" fill="#ef9f50"/><path d="M203.55,129.13a3.1,3.1,0,0,1-1.73,1.93,25,25,0,0,0,5.62,4.51,6,6,0,0,0,2.16-2.34A14.1,14.1,0,0,1,203.55,129.13Z" fill="#ef9f50"/><path d="M286.87,177.68a2.35,2.35,0,0,0-.23,2.33,3.6,3.6,0,0,0,2.31.22,5.23,5.23,0,0,1,1.62-2.45A9.24,9.24,0,0,1,286.87,177.68Z" fill="#ef9f50"/><path d="M58.41,122.14a15.86,15.86,0,0,1,1.79,5.91,5,5,0,0,0,3-1.17,20.91,20.91,0,0,0-1.44-6.19C60.57,122,59.75,122.43,58.41,122.14Z" fill="#ef9f50"/><path d="M173.16,183a5.19,5.19,0,0,1,3-.58,1.36,1.36,0,0,1,.18-1.11,6.19,6.19,0,0,0-3.35.35A2.63,2.63,0,0,0,173.16,183Z" fill="#ef9f50"/><path d="M86.88,40.62a3.12,3.12,0,0,1,1.89-1.8,25.18,25.18,0,0,0-5.29-5A6.07,6.07,0,0,0,81.12,36,14.44,14.44,0,0,1,86.88,40.62Z" fill="#ef9f50"/><path d="M270.26,101c.33,1.34,1.23,2.12,2.93,3a16.51,16.51,0,0,1,5.33-5.38c-1.21-.7-1.79-1.56-2.63-3.46A19.79,19.79,0,0,0,270.26,101Z" fill="#ef9f50"/><path d="M501,50.1a2.52,2.52,0,0,0,.39-1.73,15.69,15.69,0,0,1-5.58-1.07,2.49,2.49,0,0,1-.6,1.57A14,14,0,0,0,501,50.1Z" fill="#ef9f50"/><path d="M405.25,107.31a2.86,2.86,0,0,1,.91,2.22,22.79,22.79,0,0,0,6.06-2.85,5.54,5.54,0,0,0-1.07-2.76A13.33,13.33,0,0,1,405.25,107.31Z" fill="#ef9f50"/><path d="M336.16,86.9a16.31,16.31,0,0,1-4.84-4,5.1,5.1,0,0,0-1.87,2.68A21.43,21.43,0,0,0,334.14,90C334.43,88.26,334.86,87.41,336.16,86.9Z" fill="#ef9f50"/><path d="M195,146.22a9,9,0,0,0-4.42,3.51,13.55,13.55,0,0,1,.25,4.08c1.06-.83,2-.78,3.77-.1C194.2,151.43,194.52,149.22,195,146.22Z" fill="#ef9f50"/><path d="M204.62,49.18a4.8,4.8,0,0,1,.67,3.35,16.81,16.81,0,0,0,4.87-2.59,7.67,7.67,0,0,0-1.76-2.78C207.58,48,206.49,48.47,204.62,49.18Z" fill="#ef9f50"/><path d="M86.79,109.74a3.77,3.77,0,0,1-1.37-.74,11.39,11.39,0,0,1-1,2.94,2.11,2.11,0,0,0,1.23.85A13.41,13.41,0,0,0,86.79,109.74Z" fill="#ef9f50"/><path d="M109.89,120.75a9.83,9.83,0,0,0-2.94-1.68,3.8,3.8,0,0,0-.15,2.06,3.24,3.24,0,0,1,1.82,1A2.19,2.19,0,0,1,109.89,120.75Z" fill="#ef9f50"/><path d="M452.21,47.2a2.54,2.54,0,0,0-.24,1.63,2.74,2.74,0,0,1,1.73.09,4.07,4.07,0,0,0,.49-1.51A5.3,5.3,0,0,1,452.21,47.2Z" fill="#ef9f50"/><path d="M226.86,101.83c1.73.2,3.38,1.12,6.09,4.39A8.87,8.87,0,0,0,235.1,101a15.93,15.93,0,0,0-6.87-4.16C228.34,98.75,227.92,99.85,226.86,101.83Z" fill="#ef9f50"/><path d="M286.34,108.44A4.47,4.47,0,0,1,288,108a1.42,1.42,0,0,0-.29-.84,5.71,5.71,0,0,0-1.73.32C286.32,107.84,286.43,108.07,286.34,108.44Z" fill="#ef9f50"/><path d="M222.52,58.08a6.83,6.83,0,0,0-1.89-4,7.31,7.31,0,0,1-4,2.4,10.34,10.34,0,0,0,1.18,4.08A13.89,13.89,0,0,1,222.52,58.08Z" fill="#ef9f50"/><path d="M454.11,109.05a4.77,4.77,0,0,1-1.06,1.74,14.87,14.87,0,0,1,3.79,1.44,2.73,2.73,0,0,0,1.2-1.56A17.78,17.78,0,0,0,454.11,109.05Z" fill="#ef9f50"/><path d="M369.09,101a3.66,3.66,0,0,1,2.42-1.88,29.29,29.29,0,0,0-5.58-6.46,7,7,0,0,0-3,2.26A17,17,0,0,1,369.09,101Z" fill="#ef9f50"/><path d="M487.24,195.1a2.37,2.37,0,0,0-1.46,1.38,14.27,14.27,0,0,1,1.77,2.94,2.3,2.3,0,0,1,.93-.6A13.14,13.14,0,0,1,487.24,195.1Z" fill="#ef9f50"/><path d="M447.3,175.38a1.48,1.48,0,0,1-1.26-.84,4.91,4.91,0,0,0-.67,2.09,1.35,1.35,0,0,0,1.18.67A3.5,3.5,0,0,1,447.3,175.38Z" fill="#ef9f50"/><path d="M463.12,100.45a3.19,3.19,0,0,1-2.37,1.2,25.46,25.46,0,0,0,3.67,6.39,6.08,6.08,0,0,0,2.93-1.42A14.47,14.47,0,0,1,463.12,100.45Z" fill="#ef9f50"/><path d="M468,109.63a1.26,1.26,0,0,0,.16-.89,8.17,8.17,0,0,1-2.87-.43,1.29,1.29,0,0,1-.28.81A7.33,7.33,0,0,0,468,109.63Z" fill="#ef9f50"/><path d="M308.92,113.82a8.67,8.67,0,0,1,3.31.44,2.68,2.68,0,0,0,.09-1.74,11.22,11.22,0,0,0-3.37-.67C309.32,112.72,309.36,113.23,308.92,113.82Z" fill="#ef9f50"/><path d="M429.19,81.13c-.06.81-.45,1.59-1.91,2.91a4.11,4.11,0,0,0,2.44.89,7.45,7.45,0,0,0,1.79-3.26A3.71,3.71,0,0,1,429.19,81.13Z" fill="#ef9f50"/><path d="M64.8,104a4.19,4.19,0,0,0-2,1.73,6.27,6.27,0,0,1,.2,1.89c.48-.4.91-.4,1.76-.12A10.84,10.84,0,0,1,64.8,104Z" fill="#ef9f50"/><path d="M299.25,141.7c-.38-1-1.06-1.4-2.2-2.09a27.11,27.11,0,0,1-6.48,7.25,4.43,4.43,0,0,1,1.77,2.27A24.12,24.12,0,0,0,299.25,141.7Z" fill="#ef9f50"/><path d="M300.79,113.4a2.08,2.08,0,0,0,1.25,1.67,3.08,3.08,0,0,0,1.65-1.23,4.73,4.73,0,0,1-.39-2.59A8.41,8.41,0,0,1,300.79,113.4Z" fill="#ef9f50"/><path d="M426.16,80.71a3.19,3.19,0,0,0-1.36-1.51,4.78,4.78,0,0,1-1.47.18c.33.37.33.7.12,1.36A8.66,8.66,0,0,1,426.16,80.71Z" fill="#ef9f50"/><path d="M228.8,113.68c.31,1,.2,2.22-1,4.59a5.59,5.59,0,0,0,3.52,0,10,10,0,0,0,.7-5A5.14,5.14,0,0,1,228.8,113.68Z" fill="#ef9f50"/><path d="M61.19,137.25a8.66,8.66,0,0,0,5.08,2,13,13,0,0,1,3.29-2.17c-1.2-.49-1.6-1.29-1.9-3.12A22.44,22.44,0,0,1,61.19,137.25Z" fill="#ef9f50"/><path d="M325.05,134.43a4.11,4.11,0,0,0,2.59-.27,6.07,6.07,0,0,1,.91-1.65c-.61.06-1-.19-1.49-.9A10.52,10.52,0,0,1,325.05,134.43Z" fill="#ef9f50"/><path d="M399.17,85.11c1,1.4,1.43,3.22.85,7.37a8.89,8.89,0,0,0,5.22-1.89,15.72,15.72,0,0,0-1.54-7.79A8,8,0,0,1,399.17,85.11Z" fill="#ef9f50"/><path d="M315.61,10.5A4.56,4.56,0,0,0,315.4,8a2.24,2.24,0,0,0-1.5.16,4.13,4.13,0,0,1,.19,2.43A1.6,1.6,0,0,1,315.61,10.5Z" fill="#ef9f50"/><path d="M132.31,0a8.39,8.39,0,0,0-3.66,4,9,9,0,0,1,4.54,3.4,12.81,12.81,0,0,0,4.09-3.21A16.79,16.79,0,0,1,132.31,0Z" fill="#ef9f50"/><path d="M383.63,146.84a4.74,4.74,0,0,0,1.16-2.82,5.08,5.08,0,0,1-3.06-.91,7.23,7.23,0,0,0-1.54,2.49A9.37,9.37,0,0,1,383.63,146.84Z" fill="#ef9f50"/><path d="M234.5,171.51c-.66.18-1.41.09-2.89-.72a3.58,3.58,0,0,0,0,2.23,6.39,6.39,0,0,0,3.15.53A3.26,3.26,0,0,1,234.5,171.51Z" fill="#ef9f50"/><path d="M473,116.84a4.49,4.49,0,0,1,1.13-1.53,14.34,14.34,0,0,1-3.42-1.66,2.52,2.52,0,0,0-1.25,1.36A16.73,16.73,0,0,0,473,116.84Z" fill="#ef9f50"/><path d="M462.79,125.56a1.72,1.72,0,0,0-1.2-.15,10.65,10.65,0,0,1-.36,3.85,1.78,1.78,0,0,1,1.11.31A9.49,9.49,0,0,0,462.79,125.56Z" fill="#ef9f50"/><path d="M254.88,117.75a5.89,5.89,0,0,1-.62,4.13,20.25,20.25,0,0,0,6.66-.95,9.28,9.28,0,0,0-.86-3.91C258.76,117.66,257.31,117.72,254.88,117.75Z" fill="#ef9f50"/><path d="M286.65,154.23a1.32,1.32,0,0,0,.92.94,2,2,0,0,0,.93-.91,3,3,0,0,1-.46-1.59A5.18,5.18,0,0,1,286.65,154.23Z" fill="#ef9f50"/><path d="M152.47,69.68a2.69,2.69,0,0,1-2.32,1.49,8.72,8.72,0,0,0,3,2.63,2.45,2.45,0,0,0,2-1.48A6.41,6.41,0,0,1,152.47,69.68Z" fill="#ef9f50"/><path d="M288.06,80.16a9.47,9.47,0,0,1,3.59-.54,2.94,2.94,0,0,0-.43-1.84,12.16,12.16,0,0,0-3.72.31C288.14,78.89,288.34,79.41,288.06,80.16Z" fill="#ef9f50"/><path d="M271.51,139.11a2.88,2.88,0,0,0,.75-1.88,18,18,0,0,1-6.11-2.25,3,3,0,0,1-1,1.66A16,16,0,0,0,271.51,139.11Z" fill="#ef9f50"/><path d="M219.62,77.79a2.75,2.75,0,0,1,.64-2.2,22.6,22.6,0,0,0-6.2-1.45,5.26,5.26,0,0,0-.83,2.69A12.7,12.7,0,0,1,219.62,77.79Z" fill="#ef9f50"/><path d="M100.93,186.31a10.37,10.37,0,0,0-3,1.83,4,4,0,0,0,1.8,1.17,3.34,3.34,0,0,1,1.82-1.15A2.26,2.26,0,0,1,100.93,186.31Z" fill="#ef9f50"/><path d="M361.22,66.82A16.68,16.68,0,0,1,357.16,72a5.39,5.39,0,0,0,2.84,1.9,22.48,22.48,0,0,0,4.51-5C362.67,68.59,361.78,68.16,361.22,66.82Z" fill="#ef9f50"/><path d="M218.27,97.91a2.45,2.45,0,0,0-1.8,1,15.56,15.56,0,0,1,1.06,3.4,2.27,2.27,0,0,1,1.08-.37A13.47,13.47,0,0,1,218.27,97.91Z" fill="#ef9f50"/><path d="M435.59,142.41a7.47,7.47,0,0,1,5.21-1c-1.24-3.28-2.87-6.43-4-7.57a11.85,11.85,0,0,0-4.32,2.73C433.79,137.81,434.5,139.51,435.59,142.41Z" fill="#ef9f50"/><path d="M98.29,64.71a3.52,3.52,0,0,1,1.13-1,11.08,11.08,0,0,1-2.32-1.86,2,2,0,0,0-1.18.82A12.45,12.45,0,0,0,98.29,64.71Z" fill="#ef9f50"/><path d="M512.46,150.14a2.6,2.6,0,0,1-1.8-1.22,20.78,20.78,0,0,0-3.15,5.16,4.94,4.94,0,0,0,2.18,1.54A12,12,0,0,1,512.46,150.14Z" fill="#ef9f50"/><path d="M424.89,135.46a9.27,9.27,0,0,0,3.08-.91,3.63,3.63,0,0,0-1.31-1.45,3.08,3.08,0,0,1-1.88.59A2.08,2.08,0,0,1,424.89,135.46Z" fill="#ef9f50"/><path d="M133.3,126.82a7.18,7.18,0,0,0-2.15-4,10.45,10.45,0,0,1-3.23-.36c.5,1,.33,1.67-.44,3A18.32,18.32,0,0,1,133.3,126.82Z" fill="#ef9f50"/><path d="M443,133.2a5.43,5.43,0,0,1,.53-2.21,16.81,16.81,0,0,1-4.51-.23,3,3,0,0,0-.74,2.06A20,20,0,0,0,443,133.2Z" fill="#ef9f50"/><path d="M72.22,35.94a1.48,1.48,0,0,0,.11-1A9.35,9.35,0,0,1,69,34.67a1.58,1.58,0,0,1-.25,1A8.46,8.46,0,0,0,72.22,35.94Z" fill="#ef9f50"/><path d="M405.06,109.64a1.67,1.67,0,0,1,.8-1.15,13.19,13.19,0,0,0-3.31-2,3.12,3.12,0,0,0-1,1.39A7.68,7.68,0,0,1,405.06,109.64Z" fill="#ef9f50"/><path d="M141.28,76.91a1.51,1.51,0,0,0,1.14-.74,5.26,5.26,0,0,1-1.37-2,2.06,2.06,0,0,1-1.27.62A6.48,6.48,0,0,0,141.28,76.91Z" fill="#ef9f50"/><path d="M178.37,111.07a3.45,3.45,0,0,0-3.07-.31,12.2,12.2,0,0,1-.48,5.56,4.62,4.62,0,0,1,3.11.72A14.38,14.38,0,0,0,178.37,111.07Z" fill="#ef9f50"/><path d="M108.4,100.79a3.59,3.59,0,0,1-2.87-.78,28.57,28.57,0,0,0-1.76,8.07,6.78,6.78,0,0,0,3.51,1A16.3,16.3,0,0,1,108.4,100.79Z" fill="#ef9f50"/><path d="M116.22,139.23c.37.58.5,1.32.15,3a3.6,3.6,0,0,0,2.14-.62,6.36,6.36,0,0,0-.41-3.16A3.32,3.32,0,0,1,116.22,139.23Z" fill="#ef9f50"/><path d="M341.46,110.44a8.19,8.19,0,0,0,3.35-4.09,8.75,8.75,0,0,1-4.62-3.07,12.54,12.54,0,0,0-3.82,3.37A16.56,16.56,0,0,1,341.46,110.44Z" fill="#ef9f50"/><path d="M96,96.84a1.38,1.38,0,0,0-1,1,2.14,2.14,0,0,0,.94,1,3.23,3.23,0,0,1,1.69-.46A5.6,5.6,0,0,1,96,96.84Z" fill="#ef9f50"/><path d="M274.93,117.85c.42,1.05,1.18,1.52,2.45,2.24a29.71,29.71,0,0,1,7-8.08,4.94,4.94,0,0,1-2-2.45A26.13,26.13,0,0,0,274.93,117.85Z" fill="#ef9f50"/><path d="M497.66,76.71a3.66,3.66,0,0,0,.71,1.8,1.73,1.73,0,0,0,1.09-.45,3.32,3.32,0,0,1-.69-1.78A1.23,1.23,0,0,1,497.66,76.71Z" fill="#ef9f50"/><path d="M308,177.77a8.48,8.48,0,0,0-2.07,4,4.14,4.14,0,0,0,2.47,1.21,7.72,7.72,0,0,1,2.07-3.95A2.88,2.88,0,0,1,308,177.77Z" fill="#ef9f50"/><path d="M158.39,78.9a2.91,2.91,0,0,0,1.41-2.16,10.18,10.18,0,0,1-3.94-2.48,3.84,3.84,0,0,1-1.72,2A12.3,12.3,0,0,0,158.39,78.9Z" fill="#ef9f50"/><path d="M146.57,103a2.23,2.23,0,0,0-1.71-.82,14.06,14.06,0,0,1-2,2.58,2.13,2.13,0,0,1,.85.62A12.08,12.08,0,0,1,146.57,103Z" fill="#ef9f50"/><path d="M113.93,120a10.74,10.74,0,0,0-4.93,4.68,16,16,0,0,1,.74,4.85c1.18-1.1,2.29-1.13,4.51-.51C113.54,126.3,113.69,123.61,113.93,120Z" fill="#ef9f50"/><path d="M101.2,57.65a3.45,3.45,0,0,1,1.87-.69.89.89,0,0,1,0-.74,4,4,0,0,0-2.14.59A1.85,1.85,0,0,0,101.2,57.65Z" fill="#ef9f50"/><path d="M177.33,48.1a2.7,2.7,0,0,0,2.23.46,16.42,16.42,0,0,1,1.6-3.57,2.46,2.46,0,0,1-1.17-.48A14.8,14.8,0,0,1,177.33,48.1Z" fill="#ef9f50"/><path d="M135.59,41.42a2.34,2.34,0,0,0-1.34.53,2.52,2.52,0,0,1,.7,1.35A3.32,3.32,0,0,0,136.3,43,4.73,4.73,0,0,1,135.59,41.42Z" fill="#ef9f50"/><path d="M363.29,138a13.46,13.46,0,0,0,1.17-4.59,5.38,5.38,0,0,0-2.82.56,4.49,4.49,0,0,1-.68,2.82A3.08,3.08,0,0,1,363.29,138Z" fill="#ef9f50"/><path d="M145.26,114.55a1.29,1.29,0,0,0,.18.92,8.17,8.17,0,0,1,2.92-.65,1.35,1.35,0,0,1,0-.89A7.49,7.49,0,0,0,145.26,114.55Z" fill="#ef9f50"/><path d="M431.65,108.66a2.49,2.49,0,0,0-2-.63,16,16,0,0,1-1.8,3.18,2.3,2.3,0,0,1,1,.55A14,14,0,0,1,431.65,108.66Z" fill="#ef9f50"/><path d="M410.49,96.83a7.55,7.55,0,0,1-4.41.53,2,2,0,0,1-.39,1.61,9,9,0,0,0,4.95-.16A3.79,3.79,0,0,0,410.49,96.83Z" fill="#ef9f50"/><path d="M188.23,153.62c.57-.06,1.15.12,2.23,1a2.87,2.87,0,0,0,.33-1.79,5.19,5.19,0,0,0-2.46-.85A2.7,2.7,0,0,1,188.23,153.62Z" fill="#ef9f50"/><path d="M384.49,59c.69,0,1.39.25,2.63,1.37a3.5,3.5,0,0,0,.54-2.15A6.14,6.14,0,0,0,384.74,57,3.22,3.22,0,0,1,384.49,59Z" fill="#ef9f50"/><path d="M490.77,119.38a4.78,4.78,0,0,1,2.85,1.83,16.62,16.62,0,0,0,1.5-5.25,7.62,7.62,0,0,0-3.19-.65A9.49,9.49,0,0,1,490.77,119.38Z" fill="#ef9f50"/><path d="M93.06,113.54a3.16,3.16,0,0,0-1.92-.67,3.45,3.45,0,0,1-.5,2.08,4.94,4.94,0,0,0,1.72.94A6.45,6.45,0,0,1,93.06,113.54Z" fill="#ef9f50"/><path d="M497.18,96.24a12.71,12.71,0,0,0-4.05-5.49,6.21,6.21,0,0,0-3.28,2.51,11.62,11.62,0,0,1,3.94,5.44C494.78,97.17,495.6,96.42,497.18,96.24Z" fill="#ef9f50"/><path d="M121.58,51.87a4.09,4.09,0,0,1,1.19-4,13.32,13.32,0,0,0-6,0,3.71,3.71,0,0,0-.77,3.6C118.21,51.16,119.82,51.1,121.58,51.87Z" fill="#ef9f50"/><path d="M147,174.85a7.74,7.74,0,0,0,4.15-2.67,8.18,8.18,0,0,1-3.23-4.05,11.71,11.71,0,0,0-4.35,1.9A15.41,15.41,0,0,1,147,174.85Z" fill="#ef9f50"/><path d="M366.21,43.63A3.19,3.19,0,0,0,364,43a20.08,20.08,0,0,1-1.9,7.06,3.28,3.28,0,0,1,1.95.92A18,18,0,0,0,366.21,43.63Z" fill="#ef9f50"/><path d="M340.16,66.51a5.4,5.4,0,0,0,3.4-.3,5.69,5.69,0,0,1-.67-3.52,8.09,8.09,0,0,0-3.27-.24A10.61,10.61,0,0,1,340.16,66.51Z" fill="#ef9f50"/><path d="M413.06,30.05a2.7,2.7,0,0,0,2.42-.16,9.61,9.61,0,0,1-.35-4.37,3.6,3.6,0,0,1-2.51-.15A11.52,11.52,0,0,0,413.06,30.05Z" fill="#ef9f50"/><path d="M512.9,103.51a1,1,0,0,1-.87-.26,9,9,0,0,0-.62,2.45,2.15,2.15,0,0,0,1.07.35A4.92,4.92,0,0,1,512.9,103.51Z" fill="#ef9f50"/><path d="M175.87,206.46a2.2,2.2,0,0,1-1-1.19,7.55,7.55,0,0,0-1.36,2.15,3.48,3.48,0,0,0,1.34.71A4.42,4.42,0,0,1,175.87,206.46Z" fill="#ef9f50"/><path d="M512.81,142a23,23,0,0,0,6.51,4.67,9.22,9.22,0,0,0,.85-4.8c-1.66-.38-2.64-1.28-4-2.79A5.16,5.16,0,0,1,512.81,142Z" fill="#ef9f50"/><path d="M340,106.92a4.62,4.62,0,0,1,1.77-.31,1.48,1.48,0,0,0-.23-.91,6.37,6.37,0,0,0-1.84.2C340.05,106.29,340.15,106.54,340,106.92Z" fill="#ef9f50"/><path d="M124.79,124.56a2.46,2.46,0,0,1-1.7-.42,8.28,8.28,0,0,0,.14,2.81,3.82,3.82,0,0,0,1.66-.21A4.91,4.91,0,0,1,124.79,124.56Z" fill="#ef9f50"/><path d="M248.42,45.14a3.69,3.69,0,0,1,.93,2,1,1,0,0,1,.81-.07,4.47,4.47,0,0,0-.84-2.28A1.87,1.87,0,0,0,248.42,45.14Z" fill="#ef9f50"/><path d="M167,143.63a2.09,2.09,0,0,1-2-.81,6.84,6.84,0,0,0-.33,3.09,1.92,1.92,0,0,0,1.82.58A4.91,4.91,0,0,1,167,143.63Z" fill="#ef9f50"/><path d="M439.87,135.76a5.64,5.64,0,0,0-3,3.73,34.89,34.89,0,0,1,5.19,6.36,5.21,5.21,0,0,1,2-1.72A31,31,0,0,1,439.87,135.76Z" fill="#ef9f50"/><path d="M348.63,75.34c-1.41-.59-2.59-1.76-4.1-5.17a7.89,7.89,0,0,0-3.06,3.88,14,14,0,0,0,4.82,5.16A7.2,7.2,0,0,1,348.63,75.34Z" fill="#ef9f50"/><path d="M475.07,95.23a6.71,6.71,0,0,0-1.95-3,3.28,3.28,0,0,0-1.82,1.21,6.2,6.2,0,0,1,1.89,3A2.31,2.31,0,0,1,475.07,95.23Z" fill="#ef9f50"/><path d="M398,106.51a3.67,3.67,0,0,1,1.06,1.88,1,1,0,0,1,.79-.12,4.39,4.39,0,0,0-1-2.19A1.79,1.79,0,0,0,398,106.51Z" fill="#ef9f50"/><path d="M316.56,147.11a2.29,2.29,0,0,1-.15,1.91,18.4,18.4,0,0,0,5.33.16,4.25,4.25,0,0,0,.23-2.35A10.57,10.57,0,0,1,316.56,147.11Z" fill="#ef9f50"/><path d="M152.58,49.24c-.62.82-1.58,1.39-4.05,1.79a5.24,5.24,0,0,0,2,2.65,9.33,9.33,0,0,0,4.17-2.26A4.82,4.82,0,0,1,152.58,49.24Z" fill="#ef9f50"/><path d="M514.25,144.49a6.18,6.18,0,0,0,1.94-3.34,9,9,0,0,1-1.18-2.53c-.47.79-1.07,1-2.38,1A16,16,0,0,1,514.25,144.49Z" fill="#ef9f50"/><path d="M413.72,64.43a11.89,11.89,0,0,1-.55-4.67,3.79,3.79,0,0,0-2.41.48,15.83,15.83,0,0,0,.25,4.83C412.08,64.27,412.75,64,413.72,64.43Z" fill="#ef9f50"/><path d="M397.16,126.78c0-1.45-.75-2.47-2.28-3.78a17.47,17.47,0,0,1-6.77,4.24c1.07,1,1.46,2,1.86,4.18A20.84,20.84,0,0,0,397.16,126.78Z" fill="#ef9f50"/><path d="M92.5,61.54a2.18,2.18,0,0,0-1.25.89,13.65,13.65,0,0,1,3,3.93,2.23,2.23,0,0,1,1.3-.66A12.15,12.15,0,0,0,92.5,61.54Z" fill="#ef9f50"/><path d="M236.56,166.85a1.56,1.56,0,0,0,1.06-.39,9.84,9.84,0,0,1-1.34-3.34,1.75,1.75,0,0,1-1.05.21A9.06,9.06,0,0,0,236.56,166.85Z" fill="#ef9f50"/><path d="M249.34,164.46c.2.59.15,1.26-.5,2.62a3.16,3.16,0,0,0,2-.09,5.63,5.63,0,0,0,.3-2.83A2.84,2.84,0,0,1,249.34,164.46Z" fill="#ef9f50"/><path d="M336.13,165.36a6.06,6.06,0,0,0,2.29-4.6,37.33,37.33,0,0,1-6.89-5.5,5.65,5.65,0,0,1-1.71,2.27A33.09,33.09,0,0,1,336.13,165.36Z" fill="#ef9f50"/><path d="M198.52,153.54a11.31,11.31,0,0,1,4.44.39,3.58,3.58,0,0,0,0-2.33,14.82,14.82,0,0,0-4.53-.7C199,152,199.07,152.72,198.52,153.54Z" fill="#ef9f50"/><path d="M339.55,38.21a10.42,10.42,0,0,0-4.76,2.85,5,5,0,0,0,1.78,2.85,9.54,9.54,0,0,1,4.71-2.77A3.53,3.53,0,0,1,339.55,38.21Z" fill="#ef9f50"/><path d="M160.55,127.8C108.17,140.34,54.15,141,0,129.79l.18-.85c109,22.57,216.91-3.25,303.88-72.7l.54.68C261.39,91.42,212.92,115.27,160.55,127.8Z" fill="#dda15e"/><path d="M18.89,162.25q-4.73-16.38-8.32-33.06c8.65,1.72,17.46,3.09,26.22,4.08Q28.36,148.07,18.89,162.25Z" fill="#ef8f30" fill-rule="evenodd"/><path d="M243.29,129.41q-13-10.9-25.31-22.69c8-3.42,16-7.21,23.64-11.27Q243,112.4,243.29,129.41Z" fill="#ef8f30" fill-rule="evenodd"/><path d="M272.43,114q-13.95-9.73-27.22-20.42c7.72-4.11,15.35-8.59,22.71-13.32Q270.74,97,272.43,114Z" fill="#ef8f30"/><path d="M300.3,95.94Q285.52,87.48,271.35,78c7.39-4.8,14.66-10,21.63-15.35Q297.21,79.16,300.3,95.94Z" fill="#ef8f30" fill-rule="evenodd"/><path d="M51.89,165.93q-6.06-15.92-11-32.21c8.7,1,17.53,1.56,26.28,1.79Q60,151,51.89,165.93Z" fill="#ef8f30" fill-rule="evenodd"/><path d="M84.88,166.75q-7.36-15.33-13.68-31.14c8.7.2,17.5,0,26.19-.47Q91.69,151.15,84.88,166.75Z" fill="#ef8f30"/><path d="M117.67,164.75q-8.62-14.66-16.24-29.86c8.66-.54,17.38-1.45,26-2.7Q123.1,148.63,117.67,164.75Z" fill="#ef8f30" fill-rule="evenodd"/><path d="M150.08,160q-9.83-13.86-18.69-28.37c8.56-1.28,17.16-2.92,25.59-4.89Q154.1,143.45,150.08,160Z" fill="#ef8f30" fill-rule="evenodd"/><path d="M181.94,152.46q-11-13-21-26.68c8.42-2,16.85-4.37,25.08-7Q184.54,135.67,181.94,152.46Z" fill="#ef8f30"/><path d="M213.07,142.26q-12-12-23.24-24.78c8.23-2.72,16.44-5.8,24.43-9.18Q214.25,125.29,213.07,142.26Z" fill="#ef8f30" fill-rule="evenodd"/><path d="M373,114.8c-45.26-11.64-87-33-123.94-63.62l.48-.58c74.43,61.53,167.68,85.52,262.56,67.54l.14.74C465.09,127.81,418.24,126.44,373,114.8Z" fill="#dda15e"/><path d="M250.37,83.74q3-14.47,7-28.73c5.94,4.83,12.14,9.45,18.46,13.77Q263.38,76.7,250.37,83.74Z" fill="#db7e21" fill-rule="evenodd"/><path d="M435.79,149.61q-5.57-13.67-10.2-27.68c7.53.63,15.15.95,22.7.95Q442.5,136.46,435.79,149.61Z" fill="#db7e21" fill-rule="evenodd"/><path d="M464.41,149.58q-6.75-13.12-12.59-26.7c7.59,0,15.26-.36,22.82-1Q470,135.89,464.41,149.58Z" fill="#db7e21"/><path d="M493.1,147.07q-7.91-12.49-14.93-25.51c7.62-.68,15.29-1.68,22.82-3Q497.53,132.94,493.1,147.07Z" fill="#db7e21" fill-rule="evenodd"/><path d="M274.18,100Q276,85.3,278.79,70.78c6.29,4.26,12.82,8.3,19.43,12Q286.51,91.79,274.18,100Z" fill="#db7e21" fill-rule="evenodd"/><path d="M299.15,114q.59-14.74,2.15-29.43c6.59,3.69,13.4,7.14,20.27,10.27Q310.7,104.76,299.15,114Z" fill="#db7e21"/><path d="M325.11,125.73q-.66-14.73-.34-29.48c6.86,3.09,13.92,5.94,21,8.46Q335.81,115.57,325.11,125.73Z" fill="#db7e21" fill-rule="evenodd"/><path d="M351.91,135.22q-1.91-14.61-2.83-29.34c7.09,2.5,14.35,4.72,21.62,6.63Q361.69,124.18,351.91,135.22Z" fill="#db7e21" fill-rule="evenodd"/><path d="M379.39,142.39q-3.15-14.4-5.31-29c7.28,1.88,14.7,3.48,22.1,4.77Q388.2,130.56,379.39,142.39Z" fill="#db7e21"/><path d="M407.4,147.2q-4.36-14.08-7.77-28.44c7.42,1.26,15,2.22,22.47,2.87Q415.19,134.67,407.4,147.2Z" fill="#db7e21" fill-rule="evenodd"/></g></g></g></svg>