<svg xmlns="http://www.w3.org/2000/svg" xmlns:xlink="http://www.w3.org/1999/xlink" viewBox="0 0 99.65 156.5"><defs><linearGradient id="6e47f7fc-9f9c-49d7-8bd4-731ed27ed584" x1="31.62" y1="40.23" x2="88.52" y2="40.23" gradientTransform="matrix(0.57, 0.2, -0.16, 0.77, 18.71, -8.42)" gradientUnits="userSpaceOnUse"><stop offset="0" stop-color="#ffe000"/><stop offset="0.12" stop-color="#ffc903"/><stop offset="0.38" stop-color="#ff8f09"/><stop offset="0.45" stop-color="#ff7f0b"/><stop offset="0.76" stop-color="#ff9e1d"/><stop offset="1" stop-color="#ffb127"/></linearGradient><linearGradient id="eeb4805b-5aea-4cbe-b1a9-3a256058e077" x1="42.63" y1="65.85" x2="80.33" y2="65.85" gradientTransform="matrix(0.24, -0.56, 0.97, 0.16, -25.29, 95.25)" xlink:href="#6e47f7fc-9f9c-49d7-8bd4-731ed27ed584"/><linearGradient id="f6897c57-a387-4e9e-a792-f0e14df025bb" x1="-43.02" y1="63.49" x2="-67.2" y2="21.61" gradientTransform="matrix(0.33, 0.39, -0.56, 0.25, 92.52, 143.25)" gradientUnits="userSpaceOnUse"><stop offset="0" stop-color="#a123db"/><stop offset="0.31" stop-color="#9e22dc"/><stop offset="0.53" stop-color="#9520de"/><stop offset="0.71" stop-color="#861ce3"/><stop offset="0.79" stop-color="#7d1ae5"/></linearGradient><linearGradient id="bc86f02b-76bc-4c8a-a412-d97820e33162" x1="-56.39" y1="47.85" x2="-80.08" y2="6.83" gradientTransform="matrix(1.86, 0.15, 0.76, 0.95, 148.85, 84.7)" gradientUnits="userSpaceOnUse"><stop offset="0" stop-color="#06dffc"/><stop offset="0.19" stop-color="#08dcfc" stop-opacity="0.99"/><stop offset="0.32" stop-color="#0dd4fb" stop-opacity="0.97"/><stop offset="0.44" stop-color="#15c5f9" stop-opacity="0.93"/><stop offset="0.54" stop-color="#22b1f7" stop-opacity="0.88"/><stop offset="0.64" stop-color="#3297f4" stop-opacity="0.81"/><stop offset="0.73" stop-color="#4576f0" stop-opacity="0.72"/><stop offset="0.82" stop-color="#5c50eb" stop-opacity="0.62"/><stop offset="0.9" stop-color="#7725e6" stop-opacity="0.5"/><stop offset="0.92" stop-color="#7d1ae5" stop-opacity="0.47"/></linearGradient><linearGradient id="ae8c6fc6-df1a-412d-9c08-8e6faca34b81" x1="52.69" y1="34.77" x2="45.85" y2="22.93" gradientTransform="translate(4.54 -6.65) rotate(8.08)" xlink:href="#bc86f02b-76bc-4c8a-a412-d97820e33162"/></defs><title>Asset 2</title><g id="9ffee96a-ca38-410f-a2cd-a52ad6f0c9d7" data-name="Layer 2"><g id="8c4dd7b1-c36e-49be-9963-14aab680206a" data-name="Layer 1"><g id="a6922384-a688-4d9a-bf54-317ccfe35fa4" data-name="poot color"><path d="M39.81,32.69c1,5-3.42,6.63-2.53,11.31.12.6.51,2.2.82,4.68a18.7,18.7,0,0,0,.21,1.87c.46,1.67,1.65,3,2.15,4.67A13.57,13.57,0,0,1,40.53,62c-.29,1.48-.59,3.18.92,4.12,1.25.76,2.92.47,4.23.09a6.12,6.12,0,0,0,3.78-2.53c1.25-2.1.18-4.38.65-6.62.57-2.67,3-4.19,4.73-6.11,1.28-1.45,2-3.78,3.71-4.74,1-.56,3.35-.25,3.11-1.93-.2-1.44-1.42-2.87-2.13-4.09a21.34,21.34,0,0,1-2.92-7.61,23.5,23.5,0,0,1,0-3.56q0-3.55,0-7.11c0-1-.1-2.06,0-3.06.31-3.16,2.73-5.51,4.81-7.65.71-.72,1.71-1.68,1.51-2.8C62.7,7,61.09,6.27,60,5.84A28.4,28.4,0,0,0,48.47,4.3C41.88,4.74,33.79,8,34,11.09c.07,1,1.05,1.58,1.85,2a19.26,19.26,0,0,1,3.32,2c2.56,2.2,2.36,5.72,1.35,8.65-.5,1.47-1.5,2.74-1.7,4.31S39.48,31.09,39.81,32.69Z" fill="url(#6e47f7fc-9f9c-49d7-8bd4-731ed27ed584)"/><path d="M49,79.77c6.23-1,8.32,3.47,14.16,2.62.76-.12,2.76-.49,5.85-.79a14,14,0,0,0,4.7-1A17.88,17.88,0,0,1,79.19,79a23.49,23.49,0,0,1,6.48.32c1.34.23,2.82.54,4.1-.08,2.5-1.22,1.34-4.37,1.09-5A6.71,6.71,0,0,0,89,71.25c-.91-.81-1.34-.47-2.3-1.26a8.16,8.16,0,0,1-1.52-2.11,10.76,10.76,0,0,0-2-2.89c-1.4-1-2.81-.13-5.59-.33a37.88,37.88,0,0,1-4.08-1,38.51,38.51,0,0,0-7.39-1.73,53.69,53.69,0,0,0-9.87.76c-1.76.22-3.53.5-5.3.63a59.18,59.18,0,0,1-9-.27c-2.25-.17-4.49-.19-6.74-.19-1.23,0-2.5.1-3.72,0l-.22,0c-2.45-.37-4.91-.79-7.38-1a7.56,7.56,0,0,0-4.4.66A12.38,12.38,0,0,0,15,67.07a13.55,13.55,0,0,0-2.29,5.11C12.45,73.9,13.29,75,15,75a25.38,25.38,0,0,1,6.9.47A39.18,39.18,0,0,1,27.51,78a12.35,12.35,0,0,0,6.29.68c2.71-.26,4.89.66,7.38,1.58a8.3,8.3,0,0,0,4,.48C46.48,80.53,47.72,80,49,79.77Z" fill="url(#eeb4805b-5aea-4cbe-b1a9-3a256058e077)"/><path d="M50.08,137.62a14.16,14.16,0,0,1,9.91-.35,7.58,7.58,0,0,0,3.75.65,7.68,7.68,0,0,0,2.92-1.26,9.67,9.67,0,0,1,3.93-1.37,25.74,25.74,0,0,1,4.21.15c2.6.12,3-2.19,2.18-4.23a4.62,4.62,0,0,0-2.36-2.73c-1.66-.72-3.28.08-5,0a6.18,6.18,0,0,1-3.55-1.77A23.9,23.9,0,0,0,61.72,124a9.47,9.47,0,0,0-6-1.07,66.16,66.16,0,0,0-9.23,3c-2.16.79-4.3,1.72-6.52,2.34a35.66,35.66,0,0,1-10.66,1.48,11.27,11.27,0,0,0-4.17.34c-1.22.43-3.68,1.66-3.61,3.27,0,.79.93,1,1.56,1.23a32.59,32.59,0,0,0,4.39.92,87.7,87.7,0,0,0,10.94,1.5,13.33,13.33,0,0,1,5.42,1.16C45.89,139.06,48.1,138.58,50.08,137.62Z" fill="url(#f6897c57-a387-4e9e-a792-f0e14df025bb)"/><path d="M63.17,108.37c-1-3.07-1.7-7.56,1.67-9.46,2.81-1.57,6.7-.23,9.09-2.71,1.2-1.26.91-3.67.82-5.22-.13-2.53-.49-5.06-.83-7.57a45.52,45.52,0,0,0-1-5.92,5.92,5.92,0,0,0-1.48-2.95c-1.19-1.07-3-1-4.48-.73-3.72.75-7.71,3.19-11.39,1-1.77-1.07-2.49-3.18-4.24-4.23-2.5-1.5-5.47-.56-7.94.45a12.94,12.94,0,0,0-6.51,5.69,16,16,0,0,1-1.28,2.83,4.94,4.94,0,0,1-2.29,1.54c-2.39.84-5.15.59-7.63.35-3.81-.38-7.6-1-11.38-1.68A39.16,39.16,0,0,0,7.89,79c-1.53,0-3.3.17-4.41,1.35a2,2,0,0,0-.45.61,3.7,3.7,0,0,0,.24,2.61A39.18,39.18,0,0,0,6.5,89.88c2.92,5,6.29,9.66,9.36,14.55a21.7,21.7,0,0,1,2.34,4.91c1.12,3.48,2,6.17,1,9.27a15.52,15.52,0,0,1-1.87,3.53,3.25,3.25,0,0,0-.57,2.88c.79,2.36,3.3,4.27,5.24,5.65a24.9,24.9,0,0,0,8.14,4,8.94,8.94,0,0,0,6-.6c3.15-1.42,6-3.64,8.73-5.64,4.56-3.28,6.84-4.93,7.84-6.18a34.87,34.87,0,0,1,2.87-3.84A10.54,10.54,0,0,1,61,116.07c1.57-.3,4-.41,4.58-2.24S64.34,109.69,63.17,108.37Z" fill="url(#bc86f02b-76bc-4c8a-a412-d97820e33162)"/><path d="M35.17,27.14l.41.13a46.23,46.23,0,0,0,12.2,1.81,57.79,57.79,0,0,0,12.7-1.51c.47-.09,1.47-.42,1.76.16.44.9-1.27,2.43-1.78,2.9a15,15,0,0,1-12.61,3.82,18.87,18.87,0,0,1-6.64-2.52,9.25,9.25,0,0,1-3.32-2.72A4.19,4.19,0,0,0,37,28.14,4.78,4.78,0,0,0,35.17,27.14Z" opacity="0.95" fill="url(#ae8c6fc6-df1a-412d-9c08-8e6faca34b81)"/><g id="31a84d67-592b-431e-a472-04b61a7fbf78" data-name="poot"><path d="M34.14,14c2,12.49,3.28,18.75,2.6,22.43a38.26,38.26,0,0,1-3.69,10.66,42.23,42.23,0,0,1-8.43,10.08c-3.31,2.91-6.71,5.75-10,8.74a18.53,18.53,0,0,0-5.73,8.5,19.52,19.52,0,0,0-.59,4.82c-.07,2.45-.09,4.89-.13,7.34-.11,6.2-.52,12.62.35,18.79,1,7.4,4.34,14.58,8.31,20.84a75.75,75.75,0,0,0,17.18,19.3,6.3,6.3,0,0,0-.32,4.32c.91,2.67,4,3.82,6.47,4.46a59.21,59.21,0,0,0,10.27,1.36c4.51.34,9.61.85,14-.62a4.21,4.21,0,0,0,2.47-1.67,2,2,0,0,0,.11-1.62,7.43,7.43,0,0,1-.46-2.73c.28-3.37,2.9-5.7,3.75-6.5A38.92,38.92,0,0,0,74.74,137c3.32-4.43,6.57-8.91,9.83-13.39,5.48-7.53,6.87-17.24,7.62-26.29a18.73,18.73,0,0,1,1.12-6,10.55,10.55,0,0,1,2.55-3.54,25.12,25.12,0,0,0,2.29-2.08,5.12,5.12,0,0,0-.55-6.72c-1.7-1.38-2.94,1.3-3.78,2.39-1.07,1.39-2.32,1.6-3.21,0-1.1-2-1.54-4.47-2.21-6.65a29.35,29.35,0,0,0-3.1-7.45,26.11,26.11,0,0,0-3.24-3.81c-3.94-4.06-8.06-8-12.23-11.82a39.65,39.65,0,0,1-4.09-3.67,6.76,6.76,0,0,1-.44-.61c-3.71-5.67-2.56-13.7-.25-29.75a16.34,16.34,0,0,1,2.14-6.79A7.78,7.78,0,0,1,70.35,8c.49-.23,2.38-.54,2.45-1.21s-.92-1.11-1.34-1.35a20.92,20.92,0,0,0-3.68-1.55,62.78,62.78,0,0,0-12-2.67,66.44,66.44,0,0,0-24.66,1,17.33,17.33,0,0,0-3.7,1.31C26.91,3.8,26,4.28,26,5s.88,1.69,1.75,2.17c1.23.69,2.21.31,3.17.58C33.21,8.42,33.93,12.68,34.14,14Z" fill="none" stroke="#000" stroke-linecap="round" stroke-miterlimit="10"/><path d="M30.89,7.74a15.9,15.9,0,0,1,8.83-3.39C42.86,4.16,46,4.13,49.16,4a31.75,31.75,0,0,1,8.15.25A32.56,32.56,0,0,1,65.8,7.16,27.41,27.41,0,0,1,68.73,9" fill="none" stroke="#000" stroke-linecap="round" stroke-miterlimit="10"/><path d="M36.64,27.16a60.22,60.22,0,0,0,27,.25" fill="none" stroke="#000" stroke-linecap="round" stroke-miterlimit="10"/><path d="M37.22,30.49a28.48,28.48,0,0,0,25.67.17" fill="none" stroke="#000" stroke-linecap="round" stroke-miterlimit="10"/><path d="M37.22,35.41A36.57,36.57,0,0,0,63,34.18" fill="none" stroke="#000" stroke-linecap="round" stroke-miterlimit="10"/><path d="M32.37,48.18a54.38,54.38,0,0,0,32.93-.94" fill="none" stroke="#000" stroke-linecap="round" stroke-miterlimit="10"/><path d="M20.22,65.49q23.12.33,46.23-.78,6.39-.3,12.77-.72" fill="none" stroke="#000" stroke-linecap="round" stroke-miterlimit="10"/><path d="M14.72,75.33a490.54,490.54,0,0,0,56.61,1.41q7.61-.26,15.22-.75" fill="none" stroke="#000" stroke-linecap="round" stroke-miterlimit="10"/><path d="M17.22,80.49q-.49,12.42-1,24.84" fill="none" stroke="#000" stroke-linecap="round" stroke-miterlimit="10"/><path d="M.89,80.49C.8,77.75.18,76.65.72,76.16c1.07-1,3.67.87,4.51,1.44a17,17,0,0,1,4.33,4.22,20,20,0,0,1,3.79,9.75c.15,2.13-.4,4.34-3,3.76-2.88-.65-5.57-3-7.43-5.15A9.64,9.64,0,0,1,.63,85.86C.31,84.13.94,82.25.89,80.49Z" fill="none" stroke="#000" stroke-linecap="round" stroke-miterlimit="10"/><path d="M.89,80.49a11.21,11.21,0,0,1,7.25,11" fill="none" stroke="#000" stroke-linecap="round" stroke-miterlimit="10"/><path d="M91.55,92.83c-.39,3.49-.74,4.33-1,4.33-.63,0-1.92-5-.33-9.83a14.14,14.14,0,0,1,1.83-3.67" fill="none" stroke="#000" stroke-linecap="round" stroke-miterlimit="10"/><path d="M23.89,82.16a8,8,0,0,1,9.63,1,8.39,8.39,0,0,1,2.37,7.36,8.93,8.93,0,0,1-3.11,5.69c-3.31,2.52-7.93.92-10.23-2.19C20.05,90.61,20,84.75,23.89,82.16Z" fill="none" stroke="#000" stroke-linecap="round" stroke-miterlimit="10"/><path d="M22.72,89.16H33.55" fill="none" stroke="#000" stroke-linecap="round" stroke-miterlimit="10"/><path d="M28.72,82.49l.33,12.84" fill="none" stroke="#000" stroke-linecap="round" stroke-miterlimit="10"/><path d="M47.22,81c5.94-.57,7.37-.17,7.5.34.24.94-2.67,2.12-3.24,2.43-.8.42-1.61.84-2.39,1.31-.38.24-1.23.66-1.34,1.15-.43,1.9,7,0,7.3,1.27.2,1-8,3-7.83,4.5.22,1.7,6.71.73,6.3,2.53-.21,1-2.67,1.56-3.41,1.85-.54.21-3.17.93-3.06,1.79.14,1.11,6.49.78,6.67,2s-6,2.79-5.83,3.67c.07.4,1.46.64,6.16.33" fill="none" stroke="#000" stroke-linecap="round" stroke-miterlimit="10"/><path d="M60.22,82c-.64,3.64-3.34,19.8,1.17,21.67a2.45,2.45,0,0,0,1.83,0c3.65-1.69,1.17-14.66-.67-22.5" fill="none" stroke="#000" stroke-linecap="round" stroke-miterlimit="10"/><path d="M38.39,102.49q1.06-22,2.33-22T43.55,104" fill="none" stroke="#000" stroke-linecap="round" stroke-miterlimit="10"/><path d="M68.72,84c2.33-1.88,5.8-1.5,8.15.14a7.75,7.75,0,0,1,3,7.31,5.73,5.73,0,0,1-5.28,5.22,7.67,7.67,0,0,1-7.17-4.09C66.08,89.85,66.19,86,68.72,84Z" fill="none" stroke="#000" stroke-linecap="round" stroke-miterlimit="10"/><path d="M73.39,84.66,73.72,95" fill="none" stroke="#000" stroke-linecap="round" stroke-miterlimit="10"/><path d="M67.55,90.66l10.17-2.5" fill="none" stroke="#000" stroke-linecap="round" stroke-miterlimit="10"/><path d="M83.55,81.49l-.16,20.17" fill="none" stroke="#000" stroke-linecap="round" stroke-miterlimit="10"/><path d="M10.89,105.83a246.66,246.66,0,0,0,58,2.46q7.59-.58,15.13-1.63" fill="none" stroke="#000" stroke-linecap="round" stroke-miterlimit="10"/><path d="M17.05,112.16a130,130,0,0,0,50.43,1.74,128.93,128.93,0,0,0,12.74-2.74" fill="none" stroke="#000" stroke-linecap="round" stroke-miterlimit="10"/><path d="M24.89,125.49a226.24,226.24,0,0,0,40.32.09q5.61-.48,11.18-1.25" fill="none" stroke="#000" stroke-linecap="round" stroke-miterlimit="10"/><path d="M36.05,138a92.52,92.52,0,0,0,29.34,2.17" fill="none" stroke="#000" stroke-linecap="round" stroke-miterlimit="10"/><path d="M34.74,150.57a74,74,0,0,1,32.31.42" fill="none" stroke="#000" stroke-linecap="round" stroke-miterlimit="10"/></g></g></g></g></svg>