<svg xmlns="http://www.w3.org/2000/svg" viewBox="0 0 1990.49 1918.87"><title>responcive</title><g style="isolation:isolate"><g id="a965dd86-a414-419a-a4c2-3c9909ba64de" data-name="Layer 2"><g id="290d904e-9474-4238-97c0-cf451a094c4f" data-name="Illustration"><g id="67a52e14-891f-44cc-92b4-34ac3ce4ae71" data-name="responcive"><g id="8665924d-4dcf-41a0-8733-70b7cd5ac7c5" data-name="small"><path d="M1918.4,300.05l-929.13-9.79c-43.94-.47-79.7,36.77-79.7,83.16V1840.17c0,46.4,35.76,81.54,79.7,78.52l929.13-64c39.88-2.74,72.09-40.6,72.09-84.55V380.4C1990.49,336.45,1958.28,300.47,1918.4,300.05Z" fill="#c18c65"/><path d="M935.08,1817.88V394.22c0-42.94,33.06-77.44,73.69-77.06l891.82,8.23c37,.35,66.94,33.68,66.94,74.46V1752c0,40.79-29.91,75.87-66.94,78.37l-891.82,60.27C968.14,1893.39,935.08,1860.82,935.08,1817.88Z" fill="#fff" opacity="0.74" style="mix-blend-mode:soft-light"/><path d="M1918.4,300.05l-929.13-9.79c-43.94-.47-79.7,36.77-79.7,83.16v60.26l1080.92,3.82V380.4C1990.49,336.45,1958.28,300.47,1918.4,300.05Z" fill="#e59255"/><path d="M1051.31,366.25c0,15.08-11.57,27.24-25.86,27.16S999.52,381,999.52,365.9s11.62-27.28,25.93-27.16S1051.31,351.17,1051.31,366.25Z" fill="#fff"/><path d="M1141.61,366.87c0,15-11.47,27.12-25.63,27s-25.7-12.34-25.7-27.39,11.52-27.16,25.7-27S1141.61,351.86,1141.61,366.87Z" fill="#fff"/><path d="M1231.12,367.49c0,14.94-11.37,27-25.41,26.92s-25.47-12.29-25.47-27.27,11.41-27,25.47-26.93S1231.12,352.54,1231.12,367.49Z" fill="#fff"/><polygon points="1906.35 1497.51 1002.47 1543.25 1002.47 686.67 1906.35 678.72 1906.35 1497.51" fill="#c18c65"/><polygon points="1906.35 1593.54 1002.47 1643.71 1002.47 1600.99 1906.35 1552.7 1906.35 1593.54" fill="#eda472"/><polygon points="1906.35 1693.72 1002.47 1748.52 1002.47 1705.79 1906.35 1652.88 1906.35 1693.72" fill="#eda472"/><polygon points="1696.69 583.5 1002.47 586.21 1002.47 628.93 1696.69 624.78 1696.69 583.5" fill="#f2c8ad"/><polygon points="1829.34 582.99 1829.34 623.98 1906.35 623.52 1906.35 582.68 1829.34 582.99" fill="#f2c8ad"/><g opacity="0.15"><path d="M1674.26,1176.72C1524.86,980,1337.43,974.4,1233.05,763.93c-75.56-152.36-64.84-325.84-31.3-471.43l-212.48-2.24c-43.94-.47-79.7,36.77-79.7,83.16V1840.17c0,46.4,35.76,81.54,79.7,78.52l835.38-57.55C1850.36,1489.69,1761,1290.9,1674.26,1176.72Z" fill="#fff"/></g></g><g id="691db8dd-14ce-4d95-b386-c5315e41d614" data-name="big"><path d="M1535.07,49.31,87.84.05C39.42-1.6,0,36.55,0,85.26V1141.48a85.68,85.68,0,0,0,87.84,86.18l1447.23-33.28c42-1,75.83-38.29,75.83-83.37V133.52C1610.9,88.44,1577,50.74,1535.07,49.31Z" fill="#c18c65"/><path d="M28.13,1119.28V107.77c0-45.08,36.43-80.43,81.21-79l1407,46.06c39,1.28,70.42,36.22,70.42,78v938.46c0,41.83-31.47,76.42-70.42,77.26l-1407,30.53A79.37,79.37,0,0,1,28.13,1119.28Z" fill="#fff" opacity="0.74" style="mix-blend-mode:soft-light"/><path d="M1535.07,49.31,87.84.05C39.42-1.6,0,36.55,0,85.26v63.27l1610.9,43.55V133.52C1610.9,88.44,1577,50.74,1535.07,49.31Z" fill="#bc6c25"/><path d="M156.2,81.46a27.58,27.58,0,0,1-28.49,27.83A29.68,29.68,0,0,1,99.15,79.73,27.59,27.59,0,0,1,127.71,51.9,29.68,29.68,0,0,1,156.2,81.46Z" fill="#fff"/><path d="M255.66,84.48a27.39,27.39,0,0,1-28.22,27.7,29.47,29.47,0,0,1-28.3-29.42,27.39,27.39,0,0,1,28.3-27.7A29.47,29.47,0,0,1,255.66,84.48Z" fill="#fff"/><path d="M354.21,87.47a27.21,27.21,0,0,1-28,27.58c-15.47-.45-28-13.56-28-29.28a27.21,27.21,0,0,1,28-27.58C341.7,58.68,354.21,71.79,354.21,87.47Z" fill="#fff"/><polygon points="1522.39 827.47 102.39 834.17 102.39 416.53 1522.39 437.4 1522.39 827.47" fill="#996745"/><polygon points="1522.39 925.97 102.39 939.63 102.39 894.78 1522.39 884.08 1522.39 925.97" fill="#d17f47"/><polygon points="1522.39 1028.72 102.39 1049.65 102.39 1004.8 1522.39 986.84 1522.39 1028.72" fill="#d17f47"/><polygon points="866.09 326.04 102.39 311.07 102.39 355.92 866.09 369.3 866.09 326.04" fill="#fca265"/><polygon points="1441.36 337.32 1441.36 379.37 1522.39 380.79 1522.39 338.9 1441.36 337.32" fill="#fca265"/><g opacity="0.5" style="mix-blend-mode:soft-light"><path d="M971.81,590.35c-169.07-246-461.52-168.37-646.4-440A594.49,594.49,0,0,1,254,5.71L87.84.05C39.42-1.6,0,36.55,0,85.26V1141.48a85.68,85.68,0,0,0,87.84,86.18l1100.69-25.31A924.81,924.81,0,0,1,1099.45,1043C1000.78,816.31,1073.85,738.84,971.81,590.35Z" fill="#fff"/></g></g></g></g></g></g></svg>